<?xml version="1.0" encoding="utf-8"?>
<!-- Generator: Adobe Illustrator 25.2.3, SVG Export Plug-In . SVG Version: 6.00 Build 0)  -->
<svg version="1.1" id="Layer_1" xmlns="http://www.w3.org/2000/svg" xmlns:xlink="http://www.w3.org/1999/xlink" x="0px" y="0px"
	 viewBox="0 0 80.1 24.3" style="enable-background:new 0 0 80.1 24.3;" xml:space="preserve">
<style type="text/css">
	.st0{fill-rule:evenodd;clip-rule:evenodd;fill:#FF9900;}
	.st1{fill-rule:evenodd;clip-rule:evenodd;}
</style>
<g>
	<path id="path8" class="st0" d="M49.7,18.9c-4.7,3.4-11.4,5.3-17.2,5.3c-8.1,0-15.5-3-21-8c-0.4-0.4,0-0.9,0.5-0.6
		c6,3.5,13.4,5.6,21,5.6c5.2,0,10.8-1.1,16-3.3C49.8,17.4,50.4,18.3,49.7,18.9"/>
	<path id="path10" class="st0" d="M51.6,16.7c-0.6-0.8-3.9-0.4-5.4-0.2c-0.5,0.1-0.5-0.3-0.1-0.6c2.7-1.9,7-1.3,7.5-0.7
		c0.5,0.6-0.1,5-2.6,7.1c-0.4,0.3-0.7,0.1-0.6-0.3C50.9,20.6,52.2,17.4,51.6,16.7"/>
	<path id="path12" class="st1" d="M46.3,2.6V0.8c0-0.3,0.2-0.5,0.5-0.5h8.1c0.3,0,0.5,0.2,0.5,0.5v1.6c0,0.3-0.2,0.6-0.6,1.1l-4.2,6
		c1.6,0,3.2,0.2,4.6,1c0.3,0.2,0.4,0.4,0.4,0.7v1.9c0,0.3-0.3,0.6-0.6,0.4c-2.5-1.3-5.8-1.5-8.6,0c-0.3,0.2-0.6-0.2-0.6-0.4v-1.8
		c0-0.3,0-0.8,0.3-1.3l4.9-7h-4.3C46.5,3.1,46.3,2.9,46.3,2.6"/>
	<path id="path14" class="st1" d="M16.6,14h-2.5c-0.2,0-0.4-0.2-0.4-0.4V0.8c0-0.3,0.2-0.5,0.5-0.5h2.3c0.2,0,0.4,0.2,0.4,0.4v1.7h0
		c0.6-1.6,1.7-2.4,3.3-2.4c1.6,0,2.5,0.7,3.2,2.4c0.6-1.6,2-2.4,3.4-2.4c1,0,2.2,0.4,2.9,1.4c0.8,1.1,0.6,2.6,0.6,4l0,8
		c0,0.3-0.2,0.5-0.5,0.5h-2.5c-0.2,0-0.4-0.2-0.4-0.5V6.8c0-0.5,0-1.9-0.1-2.4c-0.2-0.9-0.7-1.1-1.5-1.1c-0.6,0-1.2,0.4-1.5,1
		c-0.3,0.6-0.2,1.7-0.2,2.4v6.7c0,0.3-0.2,0.5-0.5,0.5h-2.5c-0.3,0-0.4-0.2-0.4-0.5l0-6.7c0-1.4,0.2-3.5-1.5-3.5
		c-1.8,0-1.7,2-1.7,3.5v6.7C17,13.8,16.8,14,16.6,14"/>
	<path id="path16" class="st1" d="M62.4,0.1C66,0.1,68,3.3,68,7.3c0,3.9-2.2,7-5.7,7c-3.6,0-5.6-3.2-5.6-7.1
		C56.8,3.2,58.8,0.1,62.4,0.1 M62.4,2.7c-1.8,0-1.9,2.5-1.9,4c0,1.6,0,4.9,1.9,4.9c1.9,0,2-2.7,2-4.3c0-1.1,0-2.4-0.4-3.4
		C63.7,3.1,63.2,2.7,62.4,2.7"/>
	<path id="path18" class="st1" d="M72.8,14h-2.5c-0.2,0-0.4-0.2-0.4-0.5l0-12.7c0-0.2,0.2-0.4,0.5-0.4h2.3c0.2,0,0.4,0.2,0.4,0.4
		v1.9h0c0.7-1.7,1.7-2.6,3.4-2.6c1.1,0,2.2,0.4,2.9,1.5c0.6,1,0.6,2.7,0.6,4v8c0,0.2-0.2,0.4-0.5,0.4h-2.5c-0.2,0-0.4-0.2-0.4-0.4
		V6.7c0-1.4,0.2-3.4-1.6-3.4c-0.6,0-1.2,0.4-1.4,1c-0.3,0.8-0.4,1.6-0.4,2.4v6.8C73.3,13.8,73.1,14,72.8,14"/>
	<path id="path28" class="st1" d="M39.8,7.9c0,1,0,1.8-0.5,2.6c-0.4,0.7-1,1.1-1.7,1.1c-1,0-1.5-0.7-1.5-1.8c0-2.1,1.9-2.5,3.7-2.5
		L39.8,7.9 M42.3,14c-0.2,0.1-0.4,0.2-0.6,0.1c-0.8-0.7-1-1-1.4-1.7c-1.4,1.4-2.3,1.8-4.1,1.8c-2.1,0-3.7-1.3-3.7-3.9
		c0-2,1.1-3.4,2.6-4.1c1.3-0.6,3.2-0.7,4.7-0.9V5.1c0-0.6,0-1.3-0.3-1.8c-0.3-0.5-0.9-0.6-1.4-0.6c-0.9,0-1.8,0.5-2,1.5
		c0,0.2-0.2,0.4-0.4,0.5l-2.4-0.3c-0.2,0-0.4-0.2-0.4-0.5C33.5,0.9,36.1,0,38.4,0c1.2,0,2.8,0.3,3.7,1.2c1.2,1.1,1.1,2.6,1.1,4.3
		v3.9c0,1.2,0.5,1.7,0.9,2.3c0.2,0.2,0.2,0.5,0,0.7C43.7,12.7,42.8,13.5,42.3,14L42.3,14"/>
	<path id="path30" class="st1" d="M7.3,7.9c0,1,0,1.8-0.5,2.6c-0.4,0.7-1,1.1-1.7,1.1c-1,0-1.5-0.7-1.5-1.8c0-2.1,1.9-2.5,3.7-2.5
		V7.9 M9.8,14c-0.2,0.1-0.4,0.2-0.6,0.1c-0.8-0.7-1-1-1.4-1.7c-1.4,1.4-2.3,1.8-4.1,1.8c-2.1,0-3.7-1.3-3.7-3.9c0-2,1.1-3.4,2.6-4.1
		C4,5.7,5.9,5.6,7.3,5.4V5.1c0-0.6,0-1.3-0.3-1.8C6.7,2.8,6.1,2.6,5.6,2.6c-0.9,0-1.8,0.5-2,1.5c0,0.2-0.2,0.4-0.4,0.5L0.8,4.3
		c-0.2,0-0.4-0.2-0.4-0.5C1,0.9,3.6,0,6,0c1.2,0,2.8,0.3,3.7,1.2c1.2,1.1,1.1,2.6,1.1,4.3v3.9c0,1.2,0.5,1.7,0.9,2.3
		c0.2,0.2,0.2,0.5,0,0.7C11.2,12.7,10.3,13.5,9.8,14L9.8,14"/>
</g>
</svg>
