<?xml version="1.0" encoding="utf-8"?>
<!-- Generator: Adobe Illustrator 25.3.1, SVG Export Plug-In . SVG Version: 6.00 Build 0)  -->
<svg version="1.1" id="Layer_1" xmlns="http://www.w3.org/2000/svg" xmlns:xlink="http://www.w3.org/1999/xlink" x="0px" y="0px"
	 viewBox="0 0 131.4 38" style="enable-background:new 0 0 131.4 38;" xml:space="preserve">
<style type="text/css">
	.st0{fill:#FFFFFF;}
</style>
<g id="Page-1">
	<g id="Group-3-Copy" transform="translate(-24.000000, -66.000000)">
		<g id="logo_x2F_og_x2F_DBS-blk" transform="translate(24.000000, 66.000000)">
			<g>
				<g id="Logomark">
					<path class="st0" d="M30.5,31.1l-9-7.6c0,0-1.2-1.2-2.6-1.2s-2.6,1.2-2.6,1.2l-9,7.6l0,0l7.5-9.1c0,0,1.2-1.2,1.2-2.6
						s-1.2-2.6-1.2-2.6L7.3,7.7l0,0l9,7.6c0,0,1.2,1.2,2.6,1.2s2.6-1.2,2.6-1.2l9-7.6l0,0l-7.6,9.1c0,0-1.2,1.2-1.2,2.6
						s1.2,2.6,1.2,2.6L30.5,31.1L30.5,31.1z M34.7,19.4L34.7,19.4c0-2.5,0.1-4.7,1.9-8.5c0.5-1.1,1.7-2.8,0-4.7
						c-1.4-1.4-2.9-1.2-4-0.5c0.6-1.1,0.8-2.7-0.5-4.1c-1.9-1.7-3.5-0.5-4.6,0c-3.8,1.8-6,1.9-8.4,1.9s-4.6-0.1-8.4-1.9
						c-1.3-0.6-3-1.8-4.9,0C4.5,3,4.7,4.5,5.3,5.6C4.2,5,2.7,4.8,1.3,6.1c-1.7,1.9-0.5,3.6,0,4.7c1.8,3.9,1.9,6.1,1.9,8.5
						c0,2.5-0.1,4.7-1.9,8.6c-0.5,1.1-1.7,2.8,0,4.7c1.4,1.4,3,1.1,4,0.5c-0.6,1.1-0.8,2.7,0.5,4.1c1.9,1.7,3.5,0.6,4.6,0
						c3.8-1.8,6-1.9,8.4-1.9s4.6,0.1,8.4,1.9c1.1,0.5,2.8,1.7,4.6,0c1.4-1.4,1.1-3,0.5-4.1c1.1,0.6,2.6,0.8,4-0.5
						c1.7-1.9,0.5-3.6,0-4.7C34.8,24,34.7,21.8,34.7,19.4L34.7,19.4z"/>
				</g>
				<path id="DBS" class="st0" d="M64,33.9c3.1-1.1,6.9-6.4,6.3-14.8c-0.6-8.1-3.7-14.4-11.8-15c0,0-1.5-0.1-2.8-0.1
					c-1.4,0-1.7-0.1-1.8,1.4c-0.2,2.8-0.2,24.5,0,27.7c0,0.4,0.1,1.5,1.8,1.6C58.9,35,61.5,34.8,64,33.9z M60.8,2.7
					c6.9,0,15.9,4.7,15.9,16.6c0,10.4-7.4,16.7-14.3,16.7H45.1v-0.4c1-0.2,2.1-0.8,2.3-1.5c0.6-2.5,0.4-25.3,0.1-29
					c-0.1-1.2-1-1.9-2.1-2.1V2.7C45.3,2.7,59.3,2.7,60.8,2.7z M98.8,27.8c0.1-7.2-5.1-9.1-10.4-9.4c-0.1,0-0.1-0.3,0-0.3
					c1.8-0.1,8.7-0.9,8.4-7.6c-0.3-6.5-5.2-6.7-7-6.7c-1.5,0-1.8,0-2.4,0c-1,0-1.3,0.1-1.3,1.3c0,0.2-0.2,11.8-0.4,20
					c-0.1,4.4-0.1,7.9-0.1,7.9c0,0.8-0.1,1.6,1.9,1.7c2.1,0.1,4.7,0.2,6.5-0.2C95.9,34.2,98.7,32.9,98.8,27.8z M96.7,18.2
					c8.1,2,8.6,7.9,8.5,9.6c-0.4,7.4-6.6,8.2-9.1,8.2H77v-0.4c1.4-0.2,2.4-1,2.4-3.4l0.1-25.4c0-2.8-0.7-3.6-2.2-3.8V2.7h14.4
					c2.6,0,10.6-0.5,11.3,6.9C103.6,15.5,97.2,18,96.7,18.2z M127.8,2.8h0.3l0.1,5.9h-0.4c-0.6-2.4-2.9-4.7-7.5-4.9
					c-5.5-0.3-7.8,3-7.8,6.1c0,4.1,3.2,5,7.9,6.2c2.2,0.5,10.5,1.6,9.8,11c-0.5,6.5-6,9.6-13.9,9.4c0,0-3.3-0.1-7.9-1.4
					c-0.8-0.2-1.1,0-1.4,0.7h-0.4v-6.4h0.4c0.2,0.6,0.2,1.9,1.4,2.9c0.8,0.8,2.8,2.6,7.2,2.7c4.3,0.1,7.8-1.8,8.3-6.6
					c0.1-1.3,0-4.3-2.9-5.7c-2.3-1.1-8.6-1.8-11.6-4.5c0,0-3.6-2.5-3.1-7.3c0.8-6.7,6.3-8.4,11.3-8.5c0,0,4.5,0,8,0.9
					c0,0,0.9,0.2,1.6,0C127.6,3.1,127.8,2.9,127.8,2.8L127.8,2.8z"/>
			</g>
		</g>
	</g>
</g>
</svg>
