<?xml version="1.0" encoding="utf-8"?>
<!-- Generator: Adobe Illustrator 25.3.1, SVG Export Plug-In . SVG Version: 6.00 Build 0)  -->
<svg version="1.1" id="Layer_1" xmlns="http://www.w3.org/2000/svg" xmlns:xlink="http://www.w3.org/1999/xlink" x="0px" y="0px"
	 viewBox="0 0 154 38" style="enable-background:new 0 0 154 38;" xml:space="preserve">
<style type="text/css">
	.st0{fill:#FFFFFF;}
</style>
<g id="Group_1" transform="translate(-0.5 -3.519)">
	<path id="Path_1" class="st0" d="M0.1,20.1h5.1c3,0,5.4-1.5,5.4-4.7c0.2-1.9-1.2-3.5-3-3.8v-0.1C9.1,11,10,9.6,10,8
		c0-3-2.3-4-5.2-4H0.1V20.1z M3.3,10.5V6.9h1.5C6.2,6.9,7,7.4,7,8.6s-0.7,2-2.2,2H3.3V10.5z M3.3,17.3v-4.2H5c1.7,0,2.6,0.6,2.6,2
		c0,1.5-0.9,2.2-2.6,2.2H3.3z"/>
	<path id="Path_2" class="st0" d="M16.1,6.9h1.6c1.6,0,2.5,0.5,2.5,2.1c0.1,1.2-0.8,2.3-2,2.4c-0.2,0-0.4,0-0.5,0h-1.6V6.9z
		 M24,20.1l-3.1-6.4c1.7-0.9,2.6-2.7,2.5-4.6c0-3.8-2.4-5-5.4-5h-5v16.1h3.1v-5.8h1.7l2.7,5.8L24,20.1z"/>
	<path id="Path_3" class="st0" d="M26,20.1h8.9V17h-5.8v-3.7h4.7v-3h-4.7V7.1h5.5V4H26V20.1z"/>
	<path id="Path_4" class="st0" d="M40.5,13.5l0.3-1.5c0.4-1.6,0.8-3.5,1.1-5.2H42c0.4,1.7,0.7,3.6,1.1,5.2l0.3,1.5H40.5z M45,20.1
		h3.3L43.9,4h-3.7l-4.4,16.1H39l0.9-3.8h4.2L45,20.1z"/>
	<path id="Path_5" class="st0" d="M49.8,20.1h3.1v-4.3l1.6-2.5l3.4,6.8h3.4l-5-9.7L60.5,4h-3.4L53,10.6h-0.1V4h-3.1
		C49.8,4,49.8,20.1,49.8,20.1z"/>
	<path id="Path_6" class="st0" d="M64.9,20.1H68v-13h3.8V4H61.1v3.1h3.8V20.1z"/>
	<path id="Path_7" class="st0" d="M74,20.1h3.1v-6.7h4.8v6.7H85V4h-3.1v6.2h-4.8V4H74V20.1z"/>
	<path id="Path_8" class="st0" d="M91.4,6.9H93c1.6,0,2.5,0.5,2.5,2.1c0.1,1.2-0.8,2.3-2,2.4c-0.2,0-0.4,0-0.5,0h-1.6V6.9z
		 M99.3,20.1l-3.1-6.4c1.7-0.9,2.6-2.7,2.5-4.6c0-3.8-2.4-5-5.4-5h-5v16.1h3.1v-5.8h1.7l2.7,5.8L99.3,20.1z"/>
	<path id="Path_9" class="st0" d="M107,20.4c3.7,0,6.3-3.2,6.3-8.4s-2.5-8.3-6.3-8.3c-3.7,0-6.3,3-6.3,8.2S103.3,20.4,107,20.4z
		 M107,17.3c-1.9,0-3.1-2-3.1-5.3c0-3.2,1.2-5.1,3.1-5.1s3.1,1.9,3.1,5.1S108.9,17.3,107,17.3L107,17.3z"/>
	<path id="Path_10" class="st0" d="M115.8,12.7c0,5.4,1.9,7.7,5.5,7.7s5.5-2.3,5.5-7.7V4h-3v9c0,3.2-0.9,4.2-2.5,4.2
		s-2.4-1.1-2.4-4.2V4h-3.1V12.7z"/>
	<path id="Path_11" class="st0" d="M129.3,12.2c0,5.4,3,8.2,6.7,8.2c1.7,0,3.4-0.7,4.7-1.9v-7.4h-5.1V14h2.3v2.8
		c-0.4,0.3-0.9,0.5-1.5,0.5c-2.6,0-3.9-1.9-3.9-5.2c0-3.2,1.5-5.2,3.7-5.2c1,0,1.9,0.4,2.5,1.2l1.7-2.2c-1.1-1.3-2.6-2.1-4.3-2.1
		C132.4,3.7,129.3,6.9,129.3,12.2z"/>
	<path id="Path_12" class="st0" d="M143.5,20.1h3.1v-6.7h4.8v6.7h3.1V4h-3.1v6.2h-4.8V4h-3.1V20.1z"/>
	<path id="Path_13" class="st0" d="M0.1,41.6h3.1v-5.4h1.9c2.8,0.2,5.2-1.8,5.4-4.6c0-0.3,0-0.6,0-0.8c0-3.9-2.4-5.2-5.4-5.2h-5
		V41.6z M3.3,33.3v-4.9H5c1.7,0,2.6,0.6,2.6,2.3c0.2,1.2-0.7,2.4-1.9,2.6c-0.2,0-0.4,0-0.6,0H3.3z"/>
	<path id="Path_14" class="st0" d="M16.1,28.5h1.6c1.6,0,2.5,0.5,2.5,2.1c0.1,1.2-0.8,2.3-2,2.4c-0.2,0-0.4,0-0.5,0h-1.6V28.5z
		 M24,41.6l-3.1-6.4c1.7-0.9,2.6-2.7,2.5-4.6c0-3.8-2.4-5-5.4-5h-5v16.1h3.1v-5.8h1.7l2.7,5.8L24,41.6z"/>
	<path id="Path_15" class="st0" d="M26,41.6h3.1v-16H26V41.6z"/>
	<path id="Path_16" class="st0" d="M31.5,41.6h10v-3.1h-6.2l6.1-10.8v-2.2H32v3.1h5.5l-6.1,10.8v2.2H31.5z"/>
	<path id="Path_17" class="st0" d="M43.9,41.6h8.9v-3.1H47v-3.7h4.7v-3H47v-3.2h5.5v-3.1h-8.7v16.1H43.9z"/>
</g>
</svg>
