<svg id="Layer_1" data-name="Layer 1" xmlns="http://www.w3.org/2000/svg" viewBox="0 0 397.54 107.22"><defs><style>.cls-1{fill:#fff;}</style></defs><rect class="cls-1" x="128.77" y="34.06" width="3.01" height="16.9"/><path class="cls-1" d="M156.17,63.46h2.72V65.3h.05a3.69,3.69,0,0,1,1.32-1.52,3.85,3.85,0,0,1,2.23-.65,4.32,4.32,0,0,1,1.92.39,3.79,3.79,0,0,1,1.32,1,4.22,4.22,0,0,1,.75,1.48,6.21,6.21,0,0,1,.24,1.72v7.16h-2.87V68.57a7.82,7.82,0,0,0-.07-1,2.8,2.8,0,0,0-.31-1,2.1,2.1,0,0,0-.66-.73,1.9,1.9,0,0,0-1.11-.28,2.49,2.49,0,0,0-1.19.27,2.54,2.54,0,0,0-.82.7,3,3,0,0,0-.49,1,4,4,0,0,0-.17,1.13v6.3h-2.86Z" transform="translate(-20.8 -23.96)"/><path class="cls-1" d="M168.41,65.75V63.46h2V60.14h2.81v3.32h2.87v2.29h-2.87v5.33a2.61,2.61,0,0,0,.28,1.26c.18.34.59.5,1.23.5a3.5,3.5,0,0,0,.62-.06,2.21,2.21,0,0,0,.6-.17l.09,2.24a5.46,5.46,0,0,1-.91.23,7.07,7.07,0,0,1-1,.08,4.67,4.67,0,0,1-1.86-.32,2.74,2.74,0,0,1-1.13-.89,3.32,3.32,0,0,1-.58-1.28,7.82,7.82,0,0,1-.15-1.57V65.75Z" transform="translate(-20.8 -23.96)"/><path class="cls-1" d="M186.24,68.05a3.6,3.6,0,0,0-.15-1,2.34,2.34,0,0,0-1.34-1.5,3,3,0,0,0-1.2-.22,3.27,3.27,0,0,0-2.19.77,2.88,2.88,0,0,0-1,2Zm2.87,1.28v.39c0,.12,0,.25,0,.38h-8.72a2.84,2.84,0,0,0,.32,1.13,3,3,0,0,0,.73.89,3.71,3.71,0,0,0,1,.58,3.44,3.44,0,0,0,1.19.22,3.88,3.88,0,0,0,1.82-.4,3.31,3.31,0,0,0,1.21-1.08L188.58,73a5.74,5.74,0,0,1-4.91,2.3,7,7,0,0,1-2.46-.42,5.82,5.82,0,0,1-2-1.18A5.34,5.34,0,0,1,178,71.78a7.11,7.11,0,0,1,0-5,5.61,5.61,0,0,1,3.2-3.18,6.52,6.52,0,0,1,2.4-.44,6.11,6.11,0,0,1,2.21.39,5,5,0,0,1,1.75,1.17,5.34,5.34,0,0,1,1.16,1.94,7.89,7.89,0,0,1,.42,2.7" transform="translate(-20.8 -23.96)"/><path class="cls-1" d="M191.88,63.46h2.74v1.91h0A4.09,4.09,0,0,1,196,63.75a3.35,3.35,0,0,1,2-.62h.36a1.39,1.39,0,0,1,.33.06v2.63a4.63,4.63,0,0,0-.48-.1,2.75,2.75,0,0,0-.4,0,3.09,3.09,0,0,0-1.57.35,2.87,2.87,0,0,0-.93.86,3,3,0,0,0-.46,1,4,4,0,0,0-.12.84v6.13h-2.86Z" transform="translate(-20.8 -23.96)"/><path class="cls-1" d="M200.57,63.46h2.72V65.3h.05a3.69,3.69,0,0,1,1.32-1.52,3.85,3.85,0,0,1,2.23-.65,4.4,4.4,0,0,1,1.93.39,3.76,3.76,0,0,1,1.31,1,4.22,4.22,0,0,1,.75,1.48,6.21,6.21,0,0,1,.24,1.72v7.16h-2.87V68.57a7.82,7.82,0,0,0-.07-1,2.8,2.8,0,0,0-.31-1,2.17,2.17,0,0,0-.65-.73,1.94,1.94,0,0,0-1.11-.28,2.5,2.5,0,0,0-1.2.27,2.54,2.54,0,0,0-.82.7,3,3,0,0,0-.49,1,4,4,0,0,0-.17,1.13v6.3h-2.86Z" transform="translate(-20.8 -23.96)"/><path class="cls-1" d="M221.53,69.69h-.65c-.46,0-.95,0-1.45.06A6.08,6.08,0,0,0,218,70a2.93,2.93,0,0,0-1.08.57,1.28,1.28,0,0,0-.43,1,1.21,1.21,0,0,0,.18.68,1.32,1.32,0,0,0,.47.44,1.7,1.7,0,0,0,.64.24,3.53,3.53,0,0,0,.72.08,3,3,0,0,0,2.24-.79,3,3,0,0,0,.77-2.15Zm0,3.77h-.07a3.22,3.22,0,0,1-1.38,1.26,4.78,4.78,0,0,1-2.17.49A6.19,6.19,0,0,1,216.5,75a4.26,4.26,0,0,1-1.38-.6,3.26,3.26,0,0,1-1.05-1.1,3.12,3.12,0,0,1-.42-1.68,2.83,2.83,0,0,1,.73-2.05,4.67,4.67,0,0,1,1.87-1.17,10.66,10.66,0,0,1,2.54-.54c.93-.09,1.84-.13,2.74-.13v-.29a1.76,1.76,0,0,0-.78-1.58,3.22,3.22,0,0,0-1.85-.52,4.16,4.16,0,0,0-1.74.38,4.78,4.78,0,0,0-1.39.94l-1.48-1.75a6.6,6.6,0,0,1,2.26-1.36,7.72,7.72,0,0,1,2.59-.45,6.3,6.3,0,0,1,2.52.43A3.92,3.92,0,0,1,224,66.23a6.78,6.78,0,0,1,.23,1.72v7h-2.68Z" transform="translate(-20.8 -23.96)"/><path class="cls-1" d="M225.7,65.75V63.46h2V60.14h2.82v3.32h2.86v2.29h-2.86v5.33a2.61,2.61,0,0,0,.27,1.26c.18.34.59.5,1.23.5a3.5,3.5,0,0,0,.62-.06,2.21,2.21,0,0,0,.6-.17l.09,2.24a5.33,5.33,0,0,1-.9.23,7.21,7.21,0,0,1-1,.08,4.67,4.67,0,0,1-1.86-.32,2.81,2.81,0,0,1-1.13-.89,3.32,3.32,0,0,1-.58-1.28,7.82,7.82,0,0,1-.15-1.57V65.75Z" transform="translate(-20.8 -23.96)"/><path class="cls-1" d="M235.51,63.46h2.87V74.92h-2.87Zm-.4-3.89a1.64,1.64,0,0,1,.51-1.2,1.74,1.74,0,0,1,1.3-.52,1.93,1.93,0,0,1,1.33.49,1.67,1.67,0,0,1,0,2.46,1.89,1.89,0,0,1-1.33.49,1.77,1.77,0,0,1-1.3-.51,1.68,1.68,0,0,1-.51-1.21" transform="translate(-20.8 -23.96)"/><path class="cls-1" d="M244.11,69.14a4.73,4.73,0,0,0,.2,1.34,3.72,3.72,0,0,0,.61,1.19,3.1,3.1,0,0,0,1,.86,3,3,0,0,0,1.48.34,3,3,0,0,0,1.48-.34,3.16,3.16,0,0,0,1-.86,3.53,3.53,0,0,0,.61-1.19,4.4,4.4,0,0,0,.2-1.34,4.32,4.32,0,0,0-.2-1.32,3.58,3.58,0,0,0-.61-1.18,3,3,0,0,0-1-.85,3.26,3.26,0,0,0-1.48-.32,3.2,3.2,0,0,0-1.48.32,3,3,0,0,0-1,.85,3.78,3.78,0,0,0-.61,1.18,4.65,4.65,0,0,0-.2,1.32m-2.91,0a6.18,6.18,0,0,1,.48-2.47A5.76,5.76,0,0,1,245,63.56a6.85,6.85,0,0,1,2.44-.43,6.76,6.76,0,0,1,2.43.43,5.55,5.55,0,0,1,2,1.22,5.71,5.71,0,0,1,1.33,1.89,6.19,6.19,0,0,1,.49,2.47,6.28,6.28,0,0,1-.49,2.49,5.84,5.84,0,0,1-1.33,1.92,5.92,5.92,0,0,1-2,1.25,6.56,6.56,0,0,1-2.43.46A6.66,6.66,0,0,1,245,74.8a6.12,6.12,0,0,1-2-1.25,5.84,5.84,0,0,1-1.33-1.92,6.28,6.28,0,0,1-.48-2.49" transform="translate(-20.8 -23.96)"/><path class="cls-1" d="M256.43,63.46h2.72V65.3h0a3.79,3.79,0,0,1,1.33-1.52,3.85,3.85,0,0,1,2.23-.65,4.32,4.32,0,0,1,1.92.39,3.79,3.79,0,0,1,1.32,1,4.22,4.22,0,0,1,.75,1.48,6.21,6.21,0,0,1,.24,1.72v7.16h-2.87V68.57a7.82,7.82,0,0,0-.07-1,2.8,2.8,0,0,0-.31-1,2.1,2.1,0,0,0-.66-.73,1.9,1.9,0,0,0-1.11-.28,2.46,2.46,0,0,0-1.19.27,2.54,2.54,0,0,0-.82.7,3,3,0,0,0-.49,1,4,4,0,0,0-.17,1.13v6.3h-2.86Z" transform="translate(-20.8 -23.96)"/><path class="cls-1" d="M277.38,69.69h-.64c-.46,0-.95,0-1.46.06a6,6,0,0,0-1.4.27,2.93,2.93,0,0,0-1.08.57,1.25,1.25,0,0,0-.43,1,1.21,1.21,0,0,0,.18.68,1.32,1.32,0,0,0,.47.44,1.7,1.7,0,0,0,.64.24,3.53,3.53,0,0,0,.72.08,3,3,0,0,0,2.24-.79,3,3,0,0,0,.76-2.15Zm.05,3.77h-.07A3.27,3.27,0,0,1,276,74.72a4.79,4.79,0,0,1-2.18.49,6.17,6.17,0,0,1-1.44-.18,4.26,4.26,0,0,1-1.38-.6,3.38,3.38,0,0,1-1.06-1.1,3.22,3.22,0,0,1-.41-1.68,2.83,2.83,0,0,1,.73-2.05,4.67,4.67,0,0,1,1.87-1.17,10.66,10.66,0,0,1,2.54-.54c.93-.09,1.84-.13,2.73-.13v-.29a1.75,1.75,0,0,0-.77-1.58,3.22,3.22,0,0,0-1.85-.52,4.16,4.16,0,0,0-1.74.38,4.78,4.78,0,0,0-1.39.94l-1.48-1.75a6.51,6.51,0,0,1,2.26-1.36,7.72,7.72,0,0,1,2.59-.45,6.3,6.3,0,0,1,2.52.43,3.92,3.92,0,0,1,2.36,2.67,6.78,6.78,0,0,1,.23,1.72v7h-2.68Z" transform="translate(-20.8 -23.96)"/><rect class="cls-1" x="262.69" y="32.91" width="2.86" height="18.05"/><polygon class="cls-1" points="275.15 34.06 286.06 34.06 286.06 36.69 278.16 36.69 278.16 41.32 285.61 41.32 285.61 43.85 278.16 43.85 278.16 50.96 275.15 50.96 275.15 34.06"/><path class="cls-1" d="M310.59,69.14a4.73,4.73,0,0,0,.2,1.34,3.72,3.72,0,0,0,.61,1.19,3.1,3.1,0,0,0,1,.86,3.39,3.39,0,0,0,3,0,3.16,3.16,0,0,0,1-.86,3.36,3.36,0,0,0,.61-1.19,4.41,4.41,0,0,0,.21-1.34,4.33,4.33,0,0,0-.21-1.32,3.4,3.4,0,0,0-.61-1.18,3,3,0,0,0-1-.85,3.58,3.58,0,0,0-3,0,3,3,0,0,0-1,.85,3.78,3.78,0,0,0-.61,1.18,4.65,4.65,0,0,0-.2,1.32m-2.91,0a6,6,0,0,1,.49-2.47,5.55,5.55,0,0,1,1.32-1.89,5.73,5.73,0,0,1,2-1.22,6.85,6.85,0,0,1,2.44-.43,6.76,6.76,0,0,1,2.43.43,5.55,5.55,0,0,1,2,1.22,5.71,5.71,0,0,1,1.33,1.89,6,6,0,0,1,.49,2.47,6.11,6.11,0,0,1-.49,2.49,5.84,5.84,0,0,1-1.33,1.92,5.92,5.92,0,0,1-2,1.25,6.56,6.56,0,0,1-2.43.46,6.66,6.66,0,0,1-2.44-.46,6.12,6.12,0,0,1-2-1.25,5.67,5.67,0,0,1-1.32-1.92,6.11,6.11,0,0,1-.49-2.49" transform="translate(-20.8 -23.96)"/><path class="cls-1" d="M333.36,74.92h-2.72V73.08h-.05a3.63,3.63,0,0,1-1.32,1.52,3.79,3.79,0,0,1-2.23.66,4.32,4.32,0,0,1-1.92-.4,3.7,3.7,0,0,1-1.32-1,4.22,4.22,0,0,1-.75-1.48,6.16,6.16,0,0,1-.24-1.72V63.46h2.87v6.35a7.61,7.61,0,0,0,.07,1,2.8,2.8,0,0,0,.31,1,2.08,2.08,0,0,0,.65.73,2,2,0,0,0,1.12.29,2.42,2.42,0,0,0,1.18-.28,2.37,2.37,0,0,0,.83-.7,3.06,3.06,0,0,0,.49-1,4,4,0,0,0,.17-1.14v-6.3h2.86Z" transform="translate(-20.8 -23.96)"/><path class="cls-1" d="M336.8,63.46h2.72V65.3h.05a3.76,3.76,0,0,1,1.32-1.52,3.89,3.89,0,0,1,2.24-.65,4.35,4.35,0,0,1,1.92.39,3.76,3.76,0,0,1,1.31,1,4.22,4.22,0,0,1,.75,1.48,6.21,6.21,0,0,1,.24,1.72v7.16h-2.86V68.57a9.91,9.91,0,0,0-.07-1,3,3,0,0,0-.31-1,2.1,2.1,0,0,0-.66-.73,1.94,1.94,0,0,0-1.11-.28,2.46,2.46,0,0,0-1.19.27,2.58,2.58,0,0,0-.83.7,3.22,3.22,0,0,0-.49,1,4,4,0,0,0-.16,1.13v6.3H336.8Z" transform="translate(-20.8 -23.96)"/><path class="cls-1" d="M352.91,69.14a4.41,4.41,0,0,0,.21,1.34,3.51,3.51,0,0,0,.6,1.19,3.31,3.31,0,0,0,1,.86,3,3,0,0,0,1.46.34,3.11,3.11,0,0,0,1.41-.32,3.65,3.65,0,0,0,1.06-.85,3.84,3.84,0,0,0,.67-1.18,4.08,4.08,0,0,0,.22-1.33,4.12,4.12,0,0,0-.22-1.33,3.63,3.63,0,0,0-1.73-2.06,3,3,0,0,0-1.41-.33,3.2,3.2,0,0,0-1.46.32,3.28,3.28,0,0,0-1,.85,3.56,3.56,0,0,0-.6,1.18,4.33,4.33,0,0,0-.21,1.32m9.43,5.78h-2.72V73.2h-.05a3.84,3.84,0,0,1-1.66,1.53,5,5,0,0,1-2.28.53,5.58,5.58,0,0,1-2.35-.49,5.4,5.4,0,0,1-1.76-1.32,5.88,5.88,0,0,1-1.13-1.93,7.12,7.12,0,0,1-.39-2.38,6.77,6.77,0,0,1,.41-2.36,5.81,5.81,0,0,1,1.14-1.91,5.5,5.5,0,0,1,1.77-1.28,5.34,5.34,0,0,1,2.24-.46,5,5,0,0,1,1.41.18,4.76,4.76,0,0,1,1.09.44,4.55,4.55,0,0,1,.8.57,5.79,5.79,0,0,1,.55.6h.07V56.87h2.86Z" transform="translate(-20.8 -23.96)"/><path class="cls-1" d="M372.89,69.69h-.64c-.46,0-.95,0-1.46.06a5.89,5.89,0,0,0-1.4.27,2.93,2.93,0,0,0-1.08.57,1.25,1.25,0,0,0-.43,1,1.21,1.21,0,0,0,.18.68,1.24,1.24,0,0,0,.47.44,1.7,1.7,0,0,0,.64.24,3.53,3.53,0,0,0,.72.08,3,3,0,0,0,2.24-.79,3,3,0,0,0,.76-2.15Zm.05,3.77h-.07a3.27,3.27,0,0,1-1.38,1.26,4.82,4.82,0,0,1-2.18.49,6.17,6.17,0,0,1-1.44-.18,4.41,4.41,0,0,1-1.39-.6,3.46,3.46,0,0,1-1.05-1.1,3.22,3.22,0,0,1-.41-1.68,2.86,2.86,0,0,1,.72-2.05,4.71,4.71,0,0,1,1.88-1.17,10.66,10.66,0,0,1,2.54-.54c.93-.09,1.84-.13,2.73-.13v-.29a1.75,1.75,0,0,0-.77-1.58,3.24,3.24,0,0,0-1.85-.52,4.16,4.16,0,0,0-1.74.38,4.78,4.78,0,0,0-1.39.94l-1.48-1.75a6.51,6.51,0,0,1,2.26-1.36,7.72,7.72,0,0,1,2.59-.45,6.37,6.37,0,0,1,2.52.43,3.92,3.92,0,0,1,2.36,2.67,6.78,6.78,0,0,1,.23,1.72v7h-2.68Z" transform="translate(-20.8 -23.96)"/><path class="cls-1" d="M377.07,65.75V63.46h2V60.14h2.81v3.32h2.87v2.29h-2.87v5.33a2.5,2.5,0,0,0,.28,1.26c.18.34.59.5,1.23.5a3.59,3.59,0,0,0,.62-.06,2,2,0,0,0,.59-.17l.1,2.24a5.46,5.46,0,0,1-.91.23,7.07,7.07,0,0,1-1,.08,4.67,4.67,0,0,1-1.86-.32A2.84,2.84,0,0,1,379.8,74a3.31,3.31,0,0,1-.57-1.28,7.82,7.82,0,0,1-.15-1.57V65.75Z" transform="translate(-20.8 -23.96)"/><path class="cls-1" d="M386.88,63.46h2.87V74.92h-2.87Zm-.4-3.89a1.64,1.64,0,0,1,.51-1.2,1.74,1.74,0,0,1,1.3-.52,1.93,1.93,0,0,1,1.33.49,1.69,1.69,0,0,1,0,2.46,1.89,1.89,0,0,1-1.33.49,1.77,1.77,0,0,1-1.3-.51,1.68,1.68,0,0,1-.51-1.21" transform="translate(-20.8 -23.96)"/><path class="cls-1" d="M395.48,69.14a4.4,4.4,0,0,0,.2,1.34,3.53,3.53,0,0,0,.61,1.19,3.16,3.16,0,0,0,1,.86,3,3,0,0,0,1.48.34,3,3,0,0,0,1.48-.34,3.1,3.1,0,0,0,1-.86,3.72,3.72,0,0,0,.61-1.19,4.73,4.73,0,0,0,.2-1.34,4.65,4.65,0,0,0-.2-1.32,3.78,3.78,0,0,0-.61-1.18,3,3,0,0,0-1-.85,3.2,3.2,0,0,0-1.48-.32,3.26,3.26,0,0,0-1.48.32,3,3,0,0,0-1,.85,3.58,3.58,0,0,0-.61,1.18,4.32,4.32,0,0,0-.2,1.32m-2.92,0a6.19,6.19,0,0,1,.49-2.47,5.71,5.71,0,0,1,1.33-1.89,5.64,5.64,0,0,1,2-1.22,7.11,7.11,0,0,1,4.87,0,5.76,5.76,0,0,1,3.31,3.11,6.18,6.18,0,0,1,.48,2.47,6.28,6.28,0,0,1-.48,2.49,5.84,5.84,0,0,1-1.33,1.92,6.12,6.12,0,0,1-2,1.25,6.67,6.67,0,0,1-4.87,0,6,6,0,0,1-2-1.25,5.84,5.84,0,0,1-1.33-1.92,6.28,6.28,0,0,1-.49-2.49" transform="translate(-20.8 -23.96)"/><path class="cls-1" d="M407.79,63.46h2.72V65.3h.05a3.79,3.79,0,0,1,1.33-1.52,3.85,3.85,0,0,1,2.23-.65,4.32,4.32,0,0,1,1.92.39,3.76,3.76,0,0,1,1.31,1,4.08,4.08,0,0,1,.76,1.48,6.21,6.21,0,0,1,.24,1.72v7.16h-2.87V68.57a7.82,7.82,0,0,0-.07-1,2.8,2.8,0,0,0-.31-1,2.1,2.1,0,0,0-.66-.73,1.94,1.94,0,0,0-1.11-.28,2.4,2.4,0,0,0-2,1,3,3,0,0,0-.49,1,3.65,3.65,0,0,0-.17,1.13v6.3h-2.87Z" transform="translate(-20.8 -23.96)"/><path class="cls-1" d="M149.89,92h-2.17V89.69h2.17V88a8.5,8.5,0,0,1,.22-2,4.69,4.69,0,0,1,.77-1.66,3.81,3.81,0,0,1,1.42-1.13,5.17,5.17,0,0,1,2.22-.42,6.07,6.07,0,0,1,.8,0A4.27,4.27,0,0,1,156,83l-.2,2.43-.51-.11a2.72,2.72,0,0,0-.58,0,1.89,1.89,0,0,0-1,.24,1.57,1.57,0,0,0-.58.62,2.54,2.54,0,0,0-.28.83,6.94,6.94,0,0,0-.07.89v1.86h2.65V92h-2.65v9.17h-2.86Z" transform="translate(-20.8 -23.96)"/><path class="cls-1" d="M159.41,95.37a4.46,4.46,0,0,0,.21,1.34,3.61,3.61,0,0,0,.6,1.19,3.2,3.2,0,0,0,1,.86,3.48,3.48,0,0,0,3,0,3.2,3.2,0,0,0,1-.86,3.83,3.83,0,0,0,.61-1.19,4.78,4.78,0,0,0,.2-1.34,4.66,4.66,0,0,0-.2-1.33,3.89,3.89,0,0,0-.61-1.18,3,3,0,0,0-1-.84,3.48,3.48,0,0,0-3,0,3,3,0,0,0-1,.84,3.66,3.66,0,0,0-.6,1.18,4.35,4.35,0,0,0-.21,1.33m-2.91,0a5.75,5.75,0,0,1,3.8-5.59,7,7,0,0,1,2.43-.43,7.08,7.08,0,0,1,2.44.43,6.05,6.05,0,0,1,2,1.22,5.84,5.84,0,0,1,1.32,1.9,6,6,0,0,1,.49,2.47,6.07,6.07,0,0,1-.49,2.48,5.82,5.82,0,0,1-1.32,1.92,6.15,6.15,0,0,1-2,1.26,6.65,6.65,0,0,1-2.44.45,6.56,6.56,0,0,1-2.43-.45,6.09,6.09,0,0,1-2-1.26A6,6,0,0,1,157,97.85a6.07,6.07,0,0,1-.49-2.48" transform="translate(-20.8 -23.96)"/><path class="cls-1" d="M171.73,89.69h2.75V91.6h0A4.28,4.28,0,0,1,175.86,90a3.35,3.35,0,0,1,2-.62l.35,0a.9.9,0,0,1,.34.06v2.62a2.88,2.88,0,0,0-.49-.09l-.4,0a3,3,0,0,0-1.57.36,2.77,2.77,0,0,0-.93.86,3,3,0,0,0-.46,1,3.9,3.9,0,0,0-.12.83v6.14h-2.86Z" transform="translate(-20.8 -23.96)"/><polygon class="cls-1" points="165.73 60.28 176.92 60.28 176.92 62.91 168.74 62.91 168.74 67.21 176.49 67.21 176.49 69.74 168.74 69.74 168.74 74.51 177.35 74.51 177.35 77.19 165.73 77.19 165.73 60.28"/><rect class="cls-1" x="180.19" y="59.14" width="2.86" height="18.05"/><path class="cls-1" d="M215.42,94.27a3.66,3.66,0,0,0-.16-1,2.38,2.38,0,0,0-.49-.88,2.32,2.32,0,0,0-.85-.61,3,3,0,0,0-1.2-.23,3.23,3.23,0,0,0-2.19.78,2.88,2.88,0,0,0-1,2Zm2.86,1.29v.38c0,.13,0,.26,0,.38h-8.72a2.84,2.84,0,0,0,.32,1.14,3.09,3.09,0,0,0,.73.88,3.73,3.73,0,0,0,1,.59,3.43,3.43,0,0,0,1.19.21,3.89,3.89,0,0,0,1.82-.39,3.43,3.43,0,0,0,1.21-1.09l1.91,1.53a5.72,5.72,0,0,1-4.91,2.29,7,7,0,0,1-2.46-.42,5.82,5.82,0,0,1-1.95-1.18A5.3,5.3,0,0,1,207.14,98a6.47,6.47,0,0,1-.46-2.52,6.61,6.61,0,0,1,.46-2.52A5.67,5.67,0,0,1,208.42,91a5.53,5.53,0,0,1,1.92-1.24,6.33,6.33,0,0,1,2.4-.45,6.11,6.11,0,0,1,2.21.4,4.65,4.65,0,0,1,1.75,1.17,5.29,5.29,0,0,1,1.16,1.93,8,8,0,0,1,.42,2.71" transform="translate(-20.8 -23.96)"/><path class="cls-1" d="M228.88,92.86a2.57,2.57,0,0,0-1-.8,3.19,3.19,0,0,0-1.36-.32,2.94,2.94,0,0,0-1.39.32,3,3,0,0,0-1,.85,3.52,3.52,0,0,0-.58,1.18,4.66,4.66,0,0,0-.2,1.33,4.33,4.33,0,0,0,.21,1.32,3.4,3.4,0,0,0,.61,1.18,3,3,0,0,0,1,.85,3,3,0,0,0,1.42.32,3.55,3.55,0,0,0,1.34-.26,2.55,2.55,0,0,0,1.07-.76l1.79,1.81a4.75,4.75,0,0,1-1.82,1.18,6.73,6.73,0,0,1-2.4.42,7,7,0,0,1-2.4-.41,5.52,5.52,0,0,1-2-1.19A5.58,5.58,0,0,1,220.87,98a6.27,6.27,0,0,1-.49-2.55,6.14,6.14,0,0,1,.49-2.51A5.93,5.93,0,0,1,222.19,91a6.13,6.13,0,0,1,1.95-1.22,6.66,6.66,0,0,1,2.38-.43,6.43,6.43,0,0,1,2.44.48,4.77,4.77,0,0,1,1.88,1.31Z" transform="translate(-20.8 -23.96)"/><path class="cls-1" d="M231.05,92V89.69h2V86.37h2.81v3.32h2.87V92h-2.87V97.3a2.57,2.57,0,0,0,.28,1.27c.18.33.59.5,1.23.5A3.59,3.59,0,0,0,238,99a2.41,2.41,0,0,0,.59-.18l.1,2.24a4.16,4.16,0,0,1-.91.23,5.89,5.89,0,0,1-1,.09,4.46,4.46,0,0,1-1.86-.33,2.82,2.82,0,0,1-1.14-.88,3.15,3.15,0,0,1-.57-1.29,7.72,7.72,0,0,1-.15-1.56V92Z" transform="translate(-20.8 -23.96)"/><path class="cls-1" d="M243.06,95.37a4.78,4.78,0,0,0,.2,1.34,3.83,3.83,0,0,0,.61,1.19,3,3,0,0,0,2.51,1.19,3,3,0,0,0,2.5-1.19,3.63,3.63,0,0,0,.61-1.19,4.44,4.44,0,0,0,.2-1.34,4.34,4.34,0,0,0-.2-1.33,3.68,3.68,0,0,0-.61-1.18,3,3,0,0,0-1-.84,3.14,3.14,0,0,0-1.48-.33,3.08,3.08,0,0,0-1.48.33,2.93,2.93,0,0,0-1,.84,3.89,3.89,0,0,0-.61,1.18,4.66,4.66,0,0,0-.2,1.33m-2.91,0a6.15,6.15,0,0,1,.48-2.47A5.86,5.86,0,0,1,242,91a6.05,6.05,0,0,1,2-1.22,7.08,7.08,0,0,1,2.44-.43,7,7,0,0,1,2.43.43,6,6,0,0,1,2,1.22,5.86,5.86,0,0,1,1.33,1.9,6.15,6.15,0,0,1,.49,2.47,6.24,6.24,0,0,1-.49,2.48,5.84,5.84,0,0,1-1.33,1.92,6,6,0,0,1-2,1.26,6.56,6.56,0,0,1-2.43.45,6.65,6.65,0,0,1-2.44-.45,6.15,6.15,0,0,1-2-1.26,5.84,5.84,0,0,1-1.33-1.92,6.23,6.23,0,0,1-.48-2.48" transform="translate(-20.8 -23.96)"/><path class="cls-1" d="M255.38,89.69h2.74V91.6h.05A4.26,4.26,0,0,1,259.5,90a3.4,3.4,0,0,1,2-.62l.36,0a.81.81,0,0,1,.33.06v2.62a2.72,2.72,0,0,0-.49-.09,2.56,2.56,0,0,0-.39,0,3.05,3.05,0,0,0-1.58.36,3,3,0,0,0-.93.86,3.11,3.11,0,0,0-.45,1,3.9,3.9,0,0,0-.12.83v6.14h-2.86Z" transform="translate(-20.8 -23.96)"/><path class="cls-1" d="M270.82,95.92h-.64c-.47,0-.95,0-1.46.06a6.66,6.66,0,0,0-1.41.26,3.11,3.11,0,0,0-1.07.57,1.27,1.27,0,0,0-.43,1,1.21,1.21,0,0,0,.18.68,1.38,1.38,0,0,0,.46.44,2.19,2.19,0,0,0,.65.24,3.42,3.42,0,0,0,.71.07,3,3,0,0,0,2.25-.79,2.94,2.94,0,0,0,.76-2.15Zm.05,3.77h-.07a3.17,3.17,0,0,1-1.39,1.25,4.63,4.63,0,0,1-2.17.49,6.17,6.17,0,0,1-1.44-.18,4.2,4.2,0,0,1-1.39-.59,3.57,3.57,0,0,1-1.05-1.1,3.15,3.15,0,0,1-.42-1.68,2.89,2.89,0,0,1,.73-2.06,4.74,4.74,0,0,1,1.87-1.17,10.37,10.37,0,0,1,2.55-.53c.93-.09,1.84-.14,2.73-.14V93.7a1.76,1.76,0,0,0-.78-1.59,3.27,3.27,0,0,0-1.85-.51,4.23,4.23,0,0,0-1.74.38,4.4,4.4,0,0,0-1.38.93l-1.48-1.74a6.32,6.32,0,0,1,2.25-1.36,7.53,7.53,0,0,1,2.59-.46,6.48,6.48,0,0,1,2.52.43,4.15,4.15,0,0,1,1.57,1.13,4.09,4.09,0,0,1,.8,1.55,6.71,6.71,0,0,1,.22,1.72v7h-2.67Z" transform="translate(-20.8 -23.96)"/><rect class="cls-1" x="256.13" y="59.14" width="2.86" height="18.05"/><path class="cls-1" d="M298,87.78a3.63,3.63,0,0,0-1.35-1,4,4,0,0,0-1.75-.42,4.71,4.71,0,0,0-1.05.13,3.44,3.44,0,0,0-1,.41,2.1,2.1,0,0,0-.7.72,2.13,2.13,0,0,0,0,2,2.17,2.17,0,0,0,.66.69,4.32,4.32,0,0,0,1,.5c.4.14.84.29,1.32.43s1.1.37,1.68.6a6.39,6.39,0,0,1,1.6.88,4.54,4.54,0,0,1,1.19,1.38,4.24,4.24,0,0,1,.47,2.08,5.38,5.38,0,0,1-.5,2.38,5,5,0,0,1-1.34,1.68,5.59,5.59,0,0,1-2,1,8.36,8.36,0,0,1-2.36.34,9,9,0,0,1-3.22-.61,6.27,6.27,0,0,1-2.58-1.8l2.15-2a4.26,4.26,0,0,0,1.65,1.36A4.79,4.79,0,0,0,294,99a4.47,4.47,0,0,0,1.07-.13,2.78,2.78,0,0,0,1-.44,2.68,2.68,0,0,0,.72-.78,2.25,2.25,0,0,0,.27-1.15,1.84,1.84,0,0,0-.31-1.11,2.8,2.8,0,0,0-.83-.77,6.33,6.33,0,0,0-1.25-.56l-1.5-.5a15.81,15.81,0,0,1-1.53-.57,5.21,5.21,0,0,1-1.37-.89,4,4,0,0,1-1-1.35,4.5,4.5,0,0,1-.38-2,4.45,4.45,0,0,1,.53-2.22A4.84,4.84,0,0,1,290.81,85a6.19,6.19,0,0,1,2-.91,9.1,9.1,0,0,1,2.26-.29,8.05,8.05,0,0,1,2.61.45A6.45,6.45,0,0,1,300,85.63Z" transform="translate(-20.8 -23.96)"/><path class="cls-1" d="M301,89.69h3.17l3.2,8.33h.05l2.84-8.33h3l-5.42,13.92a10,10,0,0,1-.66,1.39,4,4,0,0,1-.86,1,3.39,3.39,0,0,1-1.19.63,5.49,5.49,0,0,1-1.63.22c-.24,0-.48,0-.73,0a4.91,4.91,0,0,1-.75-.13l.24-2.48a4.09,4.09,0,0,0,.56.13l.51,0a2.48,2.48,0,0,0,.77-.1,1.42,1.42,0,0,0,.52-.34,2.39,2.39,0,0,0,.38-.56c.11-.22.23-.49.36-.79l.57-1.45Z" transform="translate(-20.8 -23.96)"/><path class="cls-1" d="M321.19,92.74a3.54,3.54,0,0,0-1.05-.87,3,3,0,0,0-1.46-.37,2.78,2.78,0,0,0-1.26.29,1,1,0,0,0-.58.95,1,1,0,0,0,.64,1,11.81,11.81,0,0,0,1.85.56,9.51,9.51,0,0,1,1.3.38,4.83,4.83,0,0,1,1.19.63,3,3,0,0,1,.87,1,2.74,2.74,0,0,1,.34,1.42,3.63,3.63,0,0,1-.4,1.78,3.24,3.24,0,0,1-1.05,1.18,4.43,4.43,0,0,1-1.53.66,8.21,8.21,0,0,1-1.8.2,7.06,7.06,0,0,1-2.6-.49,5.43,5.43,0,0,1-2.1-1.4l1.89-1.76a3.69,3.69,0,0,0,1.24,1,3.44,3.44,0,0,0,1.69.41,2.7,2.7,0,0,0,.63-.07,2,2,0,0,0,.6-.23,1.17,1.17,0,0,0,.61-1.06,1.06,1.06,0,0,0-.66-1,11.07,11.07,0,0,0-2-.62,9.39,9.39,0,0,1-1.25-.37,4.15,4.15,0,0,1-1.08-.59,2.85,2.85,0,0,1-.77-.92,2.94,2.94,0,0,1-.29-1.36,3.23,3.23,0,0,1,1.44-2.78,4.46,4.46,0,0,1,1.45-.66,6.22,6.22,0,0,1,1.67-.22,7.23,7.23,0,0,1,2.43.43,4.14,4.14,0,0,1,1.87,1.32Z" transform="translate(-20.8 -23.96)"/><path class="cls-1" d="M323.86,92V89.69h2V86.37h2.81v3.32h2.87V92h-2.87V97.3a2.68,2.68,0,0,0,.28,1.27c.18.33.59.5,1.23.5a3.5,3.5,0,0,0,.62-.06,2.63,2.63,0,0,0,.6-.18l.09,2.24a4,4,0,0,1-.91.23,5.89,5.89,0,0,1-1,.09,4.49,4.49,0,0,1-1.86-.33,2.72,2.72,0,0,1-1.13-.88,3.3,3.3,0,0,1-.58-1.29,7.72,7.72,0,0,1-.15-1.56V92Z" transform="translate(-20.8 -23.96)"/><path class="cls-1" d="M341.69,94.27a3.65,3.65,0,0,0-.15-1,2.38,2.38,0,0,0-.49-.88,2.32,2.32,0,0,0-.85-.61,3,3,0,0,0-1.2-.23,3.23,3.23,0,0,0-2.19.78,2.88,2.88,0,0,0-1,2Zm2.87,1.29v.38a2.34,2.34,0,0,1,0,.38h-8.71a2.84,2.84,0,0,0,.32,1.14,3.09,3.09,0,0,0,.73.88,3.73,3.73,0,0,0,1,.59,3.43,3.43,0,0,0,1.19.21,3.89,3.89,0,0,0,1.82-.39,3.43,3.43,0,0,0,1.21-1.09L344,99.19a5.73,5.73,0,0,1-4.91,2.29,7,7,0,0,1-2.46-.42,5.82,5.82,0,0,1-2-1.18A5.3,5.3,0,0,1,333.42,98a6.47,6.47,0,0,1-.46-2.52,6.61,6.61,0,0,1,.46-2.52A5.67,5.67,0,0,1,334.7,91a5.53,5.53,0,0,1,1.92-1.24,6.33,6.33,0,0,1,2.4-.45,6.11,6.11,0,0,1,2.21.4A4.73,4.73,0,0,1,343,90.92a5.29,5.29,0,0,1,1.16,1.93,8,8,0,0,1,.42,2.71" transform="translate(-20.8 -23.96)"/><path class="cls-1" d="M361,89.35a4.25,4.25,0,0,1,1.92.4,3.76,3.76,0,0,1,1.31,1,4.22,4.22,0,0,1,.75,1.48,6.16,6.16,0,0,1,.24,1.72v7.16h-2.86V94.8a9.57,9.57,0,0,0-.07-1,3,3,0,0,0-.31-1,2,2,0,0,0-.66-.73,1.94,1.94,0,0,0-1.11-.29,2.21,2.21,0,0,0-1.15.29,2.54,2.54,0,0,0-.79.74,3.42,3.42,0,0,0-.45,1,4.82,4.82,0,0,0-.14,1.11v6.26h-2.87V94.22a3,3,0,0,0-.51-1.78,1.88,1.88,0,0,0-1.61-.7,2.14,2.14,0,0,0-1.12.28,2.29,2.29,0,0,0-.78.7,3.2,3.2,0,0,0-.45,1,4,4,0,0,0-.16,1.13v6.31h-2.86V89.69h2.72v1.84h.05a3.39,3.39,0,0,1,.51-.82,4.59,4.59,0,0,1,.76-.69,4,4,0,0,1,1-.49,4.17,4.17,0,0,1,1.26-.18,3.73,3.73,0,0,1,3.58,2.18,4.27,4.27,0,0,1,1.53-1.62,4.42,4.42,0,0,1,2.25-.56" transform="translate(-20.8 -23.96)"/><path class="cls-1" d="M374.85,92.74a3.3,3.3,0,0,0-1.05-.87,3,3,0,0,0-1.45-.37,2.79,2.79,0,0,0-1.27.29,1,1,0,0,0-.57.95,1,1,0,0,0,.63,1,11.81,11.81,0,0,0,1.85.56,9.51,9.51,0,0,1,1.3.38,4.65,4.65,0,0,1,1.19.63,3.18,3.18,0,0,1,.88,1,2.84,2.84,0,0,1,.33,1.42,3.75,3.75,0,0,1-.39,1.78,3.43,3.43,0,0,1-1.05,1.18,4.61,4.61,0,0,1-1.53.66,8.21,8.21,0,0,1-1.8.2,7.11,7.11,0,0,1-2.61-.49,5.43,5.43,0,0,1-2.1-1.4l1.89-1.76a3.8,3.8,0,0,0,1.24,1,3.44,3.44,0,0,0,1.69.41,2.85,2.85,0,0,0,.64-.07,2,2,0,0,0,.59-.23,1.21,1.21,0,0,0,.45-.42,1.17,1.17,0,0,0,.16-.64,1.07,1.07,0,0,0-.65-1,11.65,11.65,0,0,0-2-.62,9.11,9.11,0,0,1-1.26-.37,4.32,4.32,0,0,1-1.08-.59,3,3,0,0,1-.77-.92,2.94,2.94,0,0,1-.28-1.36,3.19,3.19,0,0,1,1.43-2.78,4.42,4.42,0,0,1,1.46-.66,6.17,6.17,0,0,1,1.67-.22,7.22,7.22,0,0,1,2.42.43,4.09,4.09,0,0,1,1.87,1.32Z" transform="translate(-20.8 -23.96)"/><rect class="cls-1" x="51.48" y="18.95" width="4.11" height="16.73"/><polygon class="cls-1" points="52 42.16 52 45.61 58.98 45.61 58.98 48.94 52 48.94 52 55.44 47.97 55.44 47.97 38.71 59.53 38.71 59.53 42.16 52 42.16"/><polygon class="cls-1" points="48.03 75.21 48.03 58.48 59.4 58.48 59.4 61.88 51.97 61.88 51.97 65.05 58.99 65.05 58.99 68.28 51.97 68.28 51.97 71.76 59.83 71.76 59.83 75.21 48.03 75.21"/><path class="cls-1" d="M78,107a3.7,3.7,0,0,0-1.38-1.06,3.88,3.88,0,0,0-1.63-.39,4.56,4.56,0,0,0-.82.08,2,2,0,0,0-.76.27,1.74,1.74,0,0,0-.56.52,1.36,1.36,0,0,0-.22.81,1.29,1.29,0,0,0,.18.71,1.47,1.47,0,0,0,.52.5,4.84,4.84,0,0,0,.82.39q.48.18,1.08.36c.57.19,1.17.4,1.79.63a6.7,6.7,0,0,1,1.69.91,4.91,4.91,0,0,1,1.27,1.41,4,4,0,0,1,.5,2.09,5.38,5.38,0,0,1-.54,2.49,5.09,5.09,0,0,1-1.44,1.74,6.39,6.39,0,0,1-2.08,1,8.82,8.82,0,0,1-2.41.33,10.22,10.22,0,0,1-3.51-.62,7.3,7.3,0,0,1-2.81-1.79l2.67-2.69A4.87,4.87,0,0,0,72,115.94a4.48,4.48,0,0,0,2,.51,4.24,4.24,0,0,0,.88-.09,2.48,2.48,0,0,0,.76-.31,1.57,1.57,0,0,0,.51-.57,1.72,1.72,0,0,0,.19-.85,1.33,1.33,0,0,0-.24-.8,2.38,2.38,0,0,0-.68-.6,5.43,5.43,0,0,0-1.1-.5c-.43-.15-.93-.31-1.49-.48a15.38,15.38,0,0,1-1.59-.62,5.33,5.33,0,0,1-1.38-.91,4.19,4.19,0,0,1-1-1.35,4.44,4.44,0,0,1-.37-1.92,4.72,4.72,0,0,1,.57-2.39,5.12,5.12,0,0,1,1.51-1.63,6.66,6.66,0,0,1,2.1-.93,9.43,9.43,0,0,1,2.36-.3,9,9,0,0,1,2.92.52,7.56,7.56,0,0,1,2.62,1.54Z" transform="translate(-20.8 -23.96)"/><path class="cls-1" d="M122.74,79.63h0A51.33,51.33,0,0,1,100.1,119.7c.9-1.77,1.71-3.53,2.45-5.26a91.59,91.59,0,0,0,6.77-26c.06-.85.1-1.71.13-2.56a69.73,69.73,0,0,0,8.1-3.74c.7-.4,5-2.9,5.25-3.49Zm-27.64,43A46.17,46.17,0,0,1,59,124.67l-3.29-1.32L54.9,123h0s-8.23-11.54-10.64-34.36c.94.29,1.93.58,3,.84q.85.21,1.71.39l3.36.66a109.79,109.79,0,0,0,12,1.47V89.74a104,104,0,0,1-10.51-1l-1.56-.24L51,88.28l-2.18-.41c-1.61-.33-3.2-.69-4.75-1.09a22.39,22.39,0,0,1-.25-3.23,82.24,82.24,0,0,1,4.5-26.24c3.11.73,5.51,1.13,5.51,1.13l.83.12c3.09.48,6.29.82,9.58,1V58c-4.79-.32-11.46-1.24-11.46-1.24-1.22-.19-2.58-.4-4-.66,5.72-15,14.57-21.8,16.46-23.11A35.43,35.43,0,0,0,75,34.25a35.68,35.68,0,0,0,9.3-1.19c6.14,4,11.38,10.67,15.12,19a75.05,75.05,0,0,1-14.86,4.4v2.27A85.88,85.88,0,0,0,100.11,55l.46-.16a75.38,75.38,0,0,1,5,27.41c0,.33,0,.66,0,1a87.41,87.41,0,0,1-21,5.56v2.84a101.58,101.58,0,0,0,20-4.05l.83-.26h0l.05,0A79.23,79.23,0,0,1,101.76,107a86.77,86.77,0,0,1-4.56,11.51c-.74,1.54-1.45,2.91-2.1,4.1M26.56,81.69h0l-.17-1.84h0c-.07-1.1-.1-2.21-.1-3.33A52.79,52.79,0,0,1,32.4,51.8l0,0,.29-.56h0A49.26,49.26,0,0,1,57.4,29l0,0c.22.19.45.37.69.55a21.85,21.85,0,0,0,6.55,3.19C57.46,36.08,49.9,42.85,45,55.33a57.08,57.08,0,0,1-6.12-1.62c-.61-.21-1.21-.42-1.8-.64l0,.44a35.63,35.63,0,0,0,7.49,2.85,77.16,77.16,0,0,0-4,17.16,74.09,74.09,0,0,0-.49,12.14,76.81,76.81,0,0,1-8.71-3.26c0,.22,0,.44,0,.67a55.63,55.63,0,0,0,8.75,4.15,80.07,80.07,0,0,0,9.54,32.94A51.18,51.18,0,0,1,26.56,81.69M59.2,28.31a46,46,0,0,1,28.09-.84c.44.15,1.36.62-.25,1.45l0,0a28.46,28.46,0,0,1-6.23,2.11h0A39.49,39.49,0,0,1,72.3,32a40.91,40.91,0,0,1-4.63-.26l-.28,0a31.16,31.16,0,0,1-9.79-2.72h0c.54-.22,1.09-.43,1.64-.62m33.5,1.08a48.35,48.35,0,0,1,17.83,13.24c.15.29.9,2.24-2.52,4.85a49.61,49.61,0,0,1-5.82,3.29l-.21-.4c-4.1-7.83-9.65-13.88-16-17.24l-.7-.36a27.09,27.09,0,0,0,4.17-1.67Zm21.67,18.39.35.53.08.12h0a52.16,52.16,0,0,1,7.53,20.75v0a5.7,5.7,0,0,1-2.29,5.52c-.12.1-.52.41-.6.5a53.15,53.15,0,0,1-10,6.23l-.06-1.93a71.35,71.35,0,0,0-5.84-25.85,48.17,48.17,0,0,0,8.67-4.41c1.36-.92,2.11-1.51,2.11-1.51M74.41,24a53.62,53.62,0,0,0-48,77.54A53.83,53.83,0,0,0,29,106.37,36.43,36.43,0,0,0,32,110.3,53.67,53.67,0,0,0,95.33,127a51.2,51.2,0,0,0,22.21-16.76,54.13,54.13,0,0,0,7.9-16.14A53.63,53.63,0,0,0,74.41,24" transform="translate(-20.8 -23.96)"/></svg>