<?xml version="1.0" encoding="utf-8"?>
<!-- Generator: Adobe Illustrator 25.2.3, SVG Export Plug-In . SVG Version: 6.00 Build 0)  -->
<svg version="1.1" id="Layer_1" xmlns="http://www.w3.org/2000/svg" xmlns:xlink="http://www.w3.org/1999/xlink" x="0px" y="0px"
	 viewBox="0 0 72 114" style="enable-background:new 0 0 72 114;" xml:space="preserve">
<style type="text/css">
	.st0{fill:#48494D;}
	.st1{fill:#1A1A1A;}
	.st2{fill:#FEFEFE;}
</style>
<g id="mBI4TR_1_">
	<g>
		<path class="st0" d="M46.6,4.8c-3.5,0-7,0-10.5,0c-0.5,0-1.1,0-1.6,0c-0.2,0-0.4,0.1-0.5,0.3c-1.1,2.1-1.7,4.4-2,6.8
			c-0.4,3,0,5.9,0.6,8.8c0.6,3,1.1,5.9,1.3,9c0.3,4-0.7,7.7-2.1,11.4c-0.9,2.3-1.8,4.6-2.7,6.9c-0.8,2.4-1.1,4.8-0.8,7.3
			c0.2,2.1,0.9,4.1,1.5,6.1c0.7,2.3,1,4.7,1,7.1c0,3.1-0.5,6.1-1.3,9.1c-0.1,0.4-0.2,0.7-0.3,1.1c-0.1,0.2-0.1,0.3,0.2,0.3
			c2,0.1,4.1,0.1,6.1,0.2c3.4,0.1,6.9,0.2,10.3,0.3c0.8,0,1.7,0,2.5,0.1c0.3,0,0.4,0,0.4-0.3c0.7-3.1,1.1-6.3,1.3-9.5
			c0.1-2.3-0.5-4.4-1.5-6.5c-0.8-1.8-1.8-3.6-2.5-5.5c-1.4-3.8-1.5-7.6-0.7-11.5c0.5-2.2,1.2-4.4,1.7-6.6c0.9-3.6,0.7-7.2-0.3-10.8
			c-0.8-2.8-1.8-5.6-2.6-8.4c-0.6-1.8-1.1-3.6-1.2-5.4c0-0.3,0-0.6,0-0.9c0-0.2,0.1-0.3,0.3-0.3c1,0,1.9,0,2.9,0
			c0.1,0,0.3,0,0.3,0.2c0.1,2.1,0.7,4.1,1.4,6.1c0.9,2.8,1.9,5.6,2.6,8.5c0.5,2.1,0.8,4.1,0.8,6.3c0,2.4-0.5,4.8-1.1,7.2
			c-0.5,1.8-1,3.6-1.4,5.4c-0.8,3.8-0.3,7.5,1.4,11c0.8,1.7,1.7,3.4,2.4,5.2c0.9,2.4,1.1,4.9,0.9,7.5c-0.2,3.1-0.7,6.2-1.4,9.3
			c-0.1,0.3-0.2,0.4-0.5,0.4c-1.2,0-2.4,0-3.6,0c-6.4,0-12.7,0-19.1,0c-1.7,0-3.3,0-5,0c-0.1,0-0.3,0-0.5,0c0.3-0.9,0.6-1.7,0.8-2.5
			c0.8-2.7,1.4-5.4,1.6-8.3c0.2-2.7-0.1-5.4-0.9-8c-0.5-1.5-1-3.1-1.2-4.7c-0.7-4.1-0.4-8,1.1-11.9c1-2.6,2.1-5.2,3-7.8
			c0.8-2.3,1.3-4.6,1.2-7.1c-0.1-1.9-0.3-3.8-0.6-5.7c-0.3-2.2-0.9-4.4-1.2-6.6c-0.6-4.7-0.2-9.3,1.6-13.7c0.1-0.3,0.2-0.3,0.5-0.3
			c5,0,10,0,15,0C45.1,4.4,45.9,4.6,46.6,4.8z"/>
		<path class="st1" d="M68.2,96.7c0,2.7,0,5.4,0,8.1c0,1.4,0,2.7,0,4.1c-0.2,0-0.3,0-0.5,0c-20.8,0-41.7,0-62.5,0
			c-0.1,0-0.3,0-0.4,0c0,0,0,0,0,0.1c0.2,0,0.3,0,0.5,0c20.8,0,41.6,0,62.4,0c0.2,0,0.4,0,0.5,0c0,0.1,0.1,0.2-0.1,0.2
			c-0.1,0-0.2,0-0.3,0c-21.1,0-42.1,0-63.2,0c-0.6,0-0.5,0.1-0.5-0.5c0-3.9,0-7.7,0-11.6c0-0.1,0-0.3,0-0.4c0.2,0,0.3,0,0.5,0
			c21,0,42.1,0,63.1,0C67.9,96.7,68,96.7,68.2,96.7z M58.1,103.6c0.4-0.1,0.8-0.2,1.2-0.4c0.5-0.3,0.8-0.6,0.8-1.2c0-0.5,0-1,0-1.5
			c0-0.8-0.3-1-1.1-1.2c-0.2,0-0.4-0.1-0.5-0.1c-1.7,0-3.3,0-5,0c-0.3,0-0.4,0.1-0.4,0.4c0,1.7,0,3.3,0,5c0,0.3-0.1,0.8,0.1,1
			c0.2,0.2,0.7,0,1,0.1c0.2,0,0.2,0,0.2-0.2c0-0.3,0-0.7,0-1c0-0.3-0.1-0.8,0.1-1c0.2-0.2,0.7,0,1-0.1c0.3,0,0.5,0.1,0.8,0.3
			c0.7,0.6,1.3,1.2,2,1.8c0.1,0.1,0.1,0.2,0.3,0.2c0.7,0,1.3,0,2.1,0C59.8,105,59,104.3,58.1,103.6z M16.8,105.7
			C16.8,105.7,16.8,105.7,16.8,105.7c0.9,0,1.8,0,2.7,0c0.6,0,0.7-0.2,0.7-0.8c0-0.6,0-1.2,0-1.8c0-1-0.3-1.3-1.3-1.3
			c-1,0-2.1,0-3.1,0c-0.4,0-0.8,0.2-1-0.1c-0.2-0.2,0-0.7-0.1-1c0-0.3,0.1-0.3,0.3-0.3c1.1,0,2.1,0,3.2,0c0.4,0,0.6,0.1,0.6,0.5
			c0,0.2,0,0.3,0.2,0.2c0.3-0.1,0.7-0.1,1-0.2c0.2,0,0.2-0.1,0.2-0.2c0.1-0.7-0.2-1.2-0.9-1.3c-0.1,0-0.2,0-0.3,0
			c-1.6,0-3.2,0-4.9,0c-0.5,0-0.7,0.2-0.9,0.6c-0.2,0.6-0.2,1.2-0.2,1.8c0.1,0.7,0.7,1.2,1.4,1.2c1.1,0,2.1,0,3.2,0
			c0.4,0,0.9-0.2,1.1,0.1c0.2,0.2,0,0.7,0.1,1.1c0,0,0,0,0,0c0,0.2-0.1,0.2-0.2,0.2c-1.4,0-2.7,0-4.1,0c-0.2,0-0.2,0-0.2-0.2
			c0-0.5,0-0.5-0.5-0.4c-0.2,0-0.5,0.1-0.7,0.1c-0.1,0-0.2,0-0.2,0.1c-0.3,0.8,0.2,1.5,1,1.6C14.9,105.7,15.9,105.7,16.8,105.7z
			 M47,105.8c1,0,2,0,3,0c0.3,0,0.4-0.1,0.3-0.3c0-0.3,0-0.5,0-0.8c0-0.3-0.1-0.3-0.3-0.3c-1.2,0-2.4,0-3.6,0c-0.4,0-0.9,0.1-1-0.1
			c-0.2-0.2,0-0.7-0.1-1.1c0-0.2,0.1-0.3,0.3-0.3c0.6,0,1.1,0,1.7,0c0.9,0,0.9,0,0.9-0.9c0-0.2-0.1-0.3-0.3-0.3c-0.5,0-1.1,0-1.6,0
			c-0.9,0-0.9,0-0.9-0.9c0-0.3,0.1-0.3,0.3-0.3c1.3,0,2.5,0,3.8,0c0.8,0,0.8,0,0.8-0.8c0-0.3-0.1-0.3-0.3-0.3c-2,0-4,0-6,0
			c-0.3,0-0.3,0.1-0.3,0.3c0,1.9,0,3.9,0,5.8c0,0.3,0.1,0.3,0.4,0.3C45,105.8,46,105.8,47,105.8z M33.8,99.4c0,0.1,0,0.1,0,0.1
			c1.2,2,2.3,4,3.5,6c0.1,0.1,0.2,0.2,0.3,0.2c0.2,0,0.3,0,0.5,0c0.3,0,0.4-0.1,0.5-0.3c0.7-1.4,1.4-2.7,2.2-4
			c0.4-0.6,0.7-1.3,1.1-2c-0.4,0-0.7,0-1.1,0c-0.2,0-0.4,0.1-0.5,0.3c-0.6,1.1-1.3,2.2-1.9,3.2c-0.2,0.3-0.3,0.5-0.5,0.8
			c-0.1-0.1-0.1-0.2-0.2-0.3c-0.7-1.2-1.5-2.4-2.2-3.7c-0.1-0.2-0.2-0.3-0.5-0.3C34.7,99.5,34.2,99.4,33.8,99.4z M28.2,102.6
			c0,0.9,0,1.9,0,2.8c0,0.3,0.1,0.4,0.4,0.4c1.8,0,3.7,0,5.5,0c0.3,0,0.4,0,0.4-0.3c0-0.2,0-0.5,0-0.7c0-0.3-0.1-0.3-0.3-0.3
			c-1.4,0-2.7,0-4.1,0c-0.2,0-0.3-0.1-0.3-0.3c0-1.2,0-2.3,0-3.5c0-0.4,0.2-0.9-0.1-1.1c-0.2-0.2-0.7,0-1.1-0.1
			c-0.2,0-0.3,0.1-0.3,0.3C28.2,100.7,28.2,101.6,28.2,102.6z M23.4,102.6c0,0.7,0,1.4,0,2.1c0,0.3-0.1,0.8,0.1,1
			c0.2,0.2,0.7,0,1,0.1c0.3,0,0.3-0.1,0.3-0.3c0-1.6,0-3.3,0-4.9c0-0.3,0.1-0.8-0.1-1c-0.2-0.2-0.7,0-1-0.1c-0.3,0-0.3,0.1-0.3,0.3
			C23.4,100.7,23.4,101.7,23.4,102.6z"/>
		<path class="st0" d="M68.2,96.7c-0.2,0-0.3,0-0.5,0c-21,0-42.1,0-63.1,0c-0.2,0-0.3,0-0.5,0c0-2.3,0-4.7,0-7c0-1.6,0-3.2,0-4.8
			c0-0.6,0-0.6,0.5-0.6c19.9,0,39.8,0,59.7,0c1.2,0,2.4,0,3.6,0c0.2,0,0.3,0,0.3,0.2C68.2,88.7,68.2,92.7,68.2,96.7z M54,94
			c0.1,0,0.1,0,0.2,0c0.4,0.1,0.5-0.1,0.5-0.5c0-1.7,0-3.3,0-5c0-0.8,0-0.8-0.8-0.8c-0.6,0-0.6,0-0.7,0.6c-0.7,0-0.7-0.1-0.7,0.7
			c0,1.5,0,3,0,4.4c0,1,0,1,1,1C53.9,94.5,54.1,94.4,54,94z M56.6,88.2c-0.7,0-0.7,0-0.7,0.7c0,0.2,0.1,0.3,0.3,0.3
			c0.7,0,1.5,0,2.2,0.1c0.3,0,0.4,0.1,0.4,0.4c0,1.3,0,2.6,0,3.9c0,1,0,1,1,1c0.5,0,0.5,0,0.5-0.5c0.6,0,0.6,0,0.6-0.7
			c0-1.3,0-2.7,0-4c0.6,0,1.1,0,1.7,0c0.5,0,0.5,0,0.5-0.5c0.6,0,0.6,0,0.6-0.7c0-0.3-0.1-0.4-0.4-0.4c-2.1,0-4.2,0-6.3,0
			C56.7,87.7,56.7,87.7,56.6,88.2z M24.7,92.8c-1,0-2.1,0-3.1,0c-0.3,0-0.4-0.1-0.4-0.4c0-1.4,0-2.9,0-4.3c0-0.2,0-0.3-0.3-0.3
			c-0.3,0-0.6,0-0.9,0c-0.2,0-0.3,0.1-0.3,0.3c0,0.1,0,0.2,0,0.3c-0.1,0-0.2,0-0.3,0c-0.5,0-0.5,0-0.5,0.5c0,1.6,0,3.3,0,4.9
			c0,0.6,0.2,0.8,0.8,0.8c1.9,0,3.9,0,5.8,0c0.3,0,0.6-0.2,0.6-0.5c0.8-0.1,0.9-0.1,0.9-1c0-1.4,0-2.8,0-4.2c0-0.4,0.2-0.8-0.1-1
			c-0.2-0.2-0.7-0.1-1.1-0.1c0,0,0,0,0,0c-0.2,0-0.2,0.1-0.2,0.2c0,0.1,0,0.2,0,0.3c-0.1,0-0.3,0-0.4,0c-0.4-0.1-0.5,0.1-0.5,0.5
			C24.7,90.1,24.7,91.4,24.7,92.8z M36.3,91c0,0.8,0,1.7,0,2.5c0,1,0,1,1,1c0.6,0,0.5,0,0.5-0.5c0.1,0,0.2,0,0.3,0
			c0.3,0,0.4-0.1,0.4-0.4c0-0.3,0-0.7,0-1c0-1.5,0-3,0-4.5c0-0.1,0.1-0.3-0.2-0.3c-0.5,0-1.1-0.1-1.4,0.4c-0.2,0-0.3,0.1-0.5,0.2
			c-0.7,1-1.5,1.9-2.3,2.9c-0.8-1-1.7-2-2.5-3c-0.3-0.4-0.6-0.5-1.1-0.5c-0.4,0-0.5,0.1-0.5,0.5c-0.7,0-0.7,0-0.7,0.7
			c0,1.5,0,3,0,4.4c0,0.4-0.2,0.8,0.1,1c0.2,0.2,0.7,0,1,0.1c0.4,0,0.5-0.1,0.4-0.5c0.1,0,0.1,0,0.2,0c0.4,0.1,0.5-0.1,0.5-0.5
			c0-0.7-0.1-1.3,0-2c0,0,0.1,0,0.1,0c0.4,0.5,0.9,1,1.3,1.5c0.5,0.7,0.6,0.7,1.1,0c0.2,0.2,0.3,0,0.4-0.1
			C35.1,92.3,35.7,91.7,36.3,91z M9.7,88.4c-0.3,0-0.4,0.2-0.6,0.4c-0.3,0.5-0.3,1.1-0.3,1.6c0,0.9,0.7,1.5,1.5,1.5
			c1.1,0,2.2,0,3.3,0c0.8,0,0.8,0,0.8,0.9c-1.2,0-2.3,0-3.5,0c-0.3,0-0.2-0.2-0.2-0.3c0-0.3,0-0.5-0.4-0.4c-0.2,0.1-0.4,0.1-0.6,0.1
			c-0.3,0-0.5,0.1-0.5,0.5c-0.6,0.2-0.6,0.2-0.6,0.8c0,0.6,0.3,0.9,1,0.9c0.5,0,1,0,1.5,0c1.3,0,2.6,0,3.9,0c0.3,0,0.7,0,0.7-0.4
			c0.8-0.1,0.8-0.2,0.8-0.9c0-0.6,0-1.2,0-1.8c0-0.7-0.3-1.1-1-1.1c-0.2,0-0.3,0-0.5,0c-1.1,0-2.2,0-3.2,0c-0.8,0-0.8,0-0.8-0.8
			c1,0,1.9,0,2.9,0c0.1,0,0.3-0.1,0.3,0.1c0,0.6,0.3,0.6,0.8,0.5c0.1,0,0.3-0.1,0.4-0.1c0.4,0,0.4-0.2,0.4-0.5
			c0.1-0.1,0.3-0.1,0.4-0.1c0.3,0,0.4-0.1,0.4-0.4c0-0.8-0.3-1-1-1.1c-0.1,0-0.2,0-0.3,0c-1.5,0-3.1,0-4.6,0
			C10.2,87.7,9.9,87.9,9.7,88.4z M43.2,91.5c0.1,0,0.2,0.1,0.2,0.2c0.4,0.5,0.9,1,1.3,1.5c0.5,0.6,0.5,0.6,1.1-0.1
			c0.2,0.2,0.3,0,0.4-0.1c0.6-0.7,1.2-1.4,1.8-2c0,0.8,0,1.6,0,2.4c0,0.3-0.1,0.8,0.1,1c0.2,0.2,0.7,0,1,0.1
			c0.4,0.1,0.5-0.1,0.4-0.5c0.1,0,0.3,0,0.4,0c0.2,0,0.2-0.1,0.2-0.2c0-1.9,0-3.9,0-5.8c0-0.1,0-0.2-0.2-0.2c-0.5,0-1-0.1-1.4,0.4
			c-0.2,0-0.3,0-0.5,0.2c-0.8,1-1.5,1.9-2.3,2.9c-0.8-1-1.7-1.9-2.5-2.9c-0.3-0.4-0.7-0.6-1.2-0.6c-0.4,0-0.5,0.1-0.5,0.5
			c-0.7,0-0.7-0.1-0.7,0.7c0,1.5,0,3,0,4.5c0,0.3-0.1,0.8,0.1,1c0.2,0.2,0.7,0,1,0.1c0.4,0.1,0.5-0.1,0.4-0.5c0.1,0,0.1,0,0.2,0
			c0.4,0.1,0.5-0.1,0.4-0.5C43.1,92.9,43.2,92.2,43.2,91.5z"/>
		<path class="st0" d="M68.2,109c-0.2,0-0.4,0-0.5,0c-20.8,0-41.6,0-62.4,0c-0.2,0-0.3,0-0.5,0c0,0,0,0,0-0.1c0.1,0,0.3,0,0.4,0
			c20.8,0,41.7,0,62.5,0C67.9,108.9,68.1,108.9,68.2,109C68.2,109,68.2,109,68.2,109z"/>
		<path class="st2" d="M58.1,103.6c0.9,0.7,1.7,1.4,2.6,2.2c-0.8,0-1.4,0-2.1,0c-0.1,0-0.2-0.1-0.3-0.2c-0.7-0.6-1.4-1.2-2-1.8
			c-0.2-0.2-0.5-0.3-0.8-0.3c-0.3,0-0.8-0.1-1,0.1c-0.2,0.2,0,0.6-0.1,1c0,0.3,0,0.7,0,1c0,0.2-0.1,0.2-0.2,0.2
			c-0.4,0-0.8,0.1-1-0.1c-0.2-0.2-0.1-0.7-0.1-1c0-1.7,0-3.3,0-5c0-0.3,0.1-0.4,0.4-0.4c1.7,0,3.3,0,5,0c0.2,0,0.4,0,0.5,0.1
			c0.8,0.1,1,0.4,1.1,1.2c0,0.5,0,1,0,1.5c0,0.6-0.3,0.9-0.8,1.2C59,103.4,58.6,103.5,58.1,103.6z M56.4,102.2c0.6,0,1.2,0,1.7,0
			c0.3,0,0.4-0.1,0.4-0.4c0-0.3,0-0.7,0-1c0-0.2-0.1-0.2-0.2-0.2c-1.2,0-2.4,0-3.7,0c-0.2,0-0.2,0.1-0.2,0.2c0,0.4,0,0.8,0,1.2
			c0,0.2,0.1,0.3,0.3,0.3C55.3,102.2,55.9,102.2,56.4,102.2z"/>
		<path class="st2" d="M16.8,105.7c-0.9,0-1.9,0-2.8,0c-0.8,0-1.3-0.8-1-1.6c0-0.1,0.1-0.1,0.2-0.1c0.2,0,0.5-0.1,0.7-0.1
			c0.5-0.1,0.5-0.1,0.5,0.4c0,0.2,0.1,0.2,0.2,0.2c1.4,0,2.7,0,4.1,0c0.2,0,0.2,0,0.2-0.2c0,0,0,0,0,0c0-0.4,0.2-0.9-0.1-1.1
			c-0.2-0.2-0.7-0.1-1.1-0.1c-1.1,0-2.1,0-3.2,0c-0.7,0-1.3-0.5-1.4-1.2c-0.1-0.6-0.1-1.2,0.2-1.8c0.2-0.5,0.4-0.6,0.9-0.6
			c1.6,0,3.2,0,4.9,0c0.1,0,0.2,0,0.3,0c0.7,0.1,1,0.5,0.9,1.3c0,0.2-0.1,0.2-0.2,0.2c-0.3,0-0.7,0.1-1,0.2c-0.2,0-0.3-0.1-0.2-0.2
			c0-0.4-0.2-0.5-0.6-0.5c-1.1,0-2.1,0-3.2,0c-0.2,0-0.3,0.1-0.3,0.3c0,0.4-0.1,0.8,0.1,1c0.2,0.2,0.7,0.1,1,0.1c1,0,2.1,0,3.1,0
			c1,0,1.3,0.3,1.3,1.3c0,0.6,0,1.2,0,1.8c0,0.6-0.1,0.7-0.7,0.8C18.6,105.7,17.7,105.7,16.8,105.7
			C16.8,105.7,16.8,105.7,16.8,105.7z"/>
		<path class="st2" d="M47,105.8c-1,0-2,0-3,0c-0.3,0-0.4-0.1-0.4-0.3c0-1.9,0-3.9,0-5.8c0-0.3,0.1-0.3,0.3-0.3c2,0,4,0,6,0
			c0.3,0,0.3,0.1,0.3,0.3c0,0.8,0,0.8-0.8,0.8c-1.3,0-2.5,0-3.8,0c-0.3,0-0.3,0.1-0.3,0.3c0,0.9,0,0.9,0.9,0.9c0.5,0,1.1,0,1.6,0
			c0.3,0,0.3,0.1,0.3,0.3c0,0.9,0,0.9-0.9,0.9c-0.6,0-1.1,0-1.7,0c-0.2,0-0.3,0.1-0.3,0.3c0,0.4-0.2,0.9,0.1,1.1
			c0.2,0.2,0.7,0.1,1,0.1c1.2,0,2.4,0,3.6,0c0.3,0,0.3,0.1,0.3,0.3c0,0.3,0,0.5,0,0.8c0,0.3-0.1,0.3-0.3,0.3
			C49,105.8,48,105.8,47,105.8z"/>
		<path class="st2" d="M33.8,99.4c0.5,0,0.9,0,1.3,0c0.2,0,0.4,0.1,0.5,0.3c0.7,1.2,1.4,2.5,2.2,3.7c0.1,0.1,0.1,0.2,0.2,0.3
			c0.2-0.3,0.3-0.5,0.5-0.8c0.6-1.1,1.3-2.2,1.9-3.2c0.1-0.2,0.3-0.3,0.5-0.3c0.3,0,0.7,0,1.1,0c-0.4,0.7-0.8,1.3-1.1,2
			c-0.7,1.3-1.5,2.6-2.2,4c-0.1,0.2-0.3,0.3-0.5,0.3c-0.2,0-0.3,0-0.5,0c-0.2,0-0.3,0-0.3-0.2c-1.2-2-2.3-4-3.5-6
			C33.8,99.5,33.8,99.5,33.8,99.4z"/>
		<path class="st2" d="M28.2,102.6c0-0.9,0-1.9,0-2.8c0-0.2,0.1-0.3,0.3-0.3c0.4,0,0.8-0.1,1.1,0.1c0.2,0.2,0.1,0.7,0.1,1.1
			c0,1.2,0,2.3,0,3.5c0,0.2,0.1,0.3,0.3,0.3c1.4,0,2.7,0,4.1,0c0.3,0,0.4,0,0.3,0.3c0,0.2,0,0.5,0,0.7c0,0.3-0.1,0.3-0.4,0.3
			c-1.8,0-3.7,0-5.5,0c-0.3,0-0.4,0-0.4-0.4C28.2,104.4,28.2,103.5,28.2,102.6z"/>
		<path class="st2" d="M23.4,102.6c0-0.9,0-1.9,0-2.8c0-0.3,0.1-0.4,0.3-0.3c0.3,0,0.8-0.1,1,0.1c0.2,0.2,0.1,0.6,0.1,1
			c0,1.6,0,3.3,0,4.9c0,0.3-0.1,0.4-0.3,0.3c-0.3,0-0.8,0.1-1-0.1c-0.2-0.2-0.1-0.6-0.1-1C23.4,104,23.4,103.3,23.4,102.6z"/>
		<path class="st2" d="M48.6,88.2c0.3-0.6,0.9-0.4,1.4-0.4c0.2,0,0.2,0.1,0.2,0.2c0,1.9,0,3.9,0,5.8c0,0.2-0.1,0.3-0.2,0.2
			c-0.1,0-0.3,0-0.4,0c-0.2,0-0.3,0-0.5,0c-0.3,0-0.4-0.1-0.4-0.4c0-1,0-2.1,0-3.1c0-0.1,0.1-0.2-0.1-0.3c-0.2,0.2-0.5,0.5-0.6,0.8
			c-0.6,0.6-1.2,1.3-1.8,2c-0.1,0.1-0.2,0.3-0.4,0.1c-0.8-1-1.7-1.9-2.5-2.9c0,0,0,0-0.1,0c0,0,0,0,0,0.1c0,0.4,0,0.8,0,1.2
			c0,0.7,0,1.4,0,2.1c0,0.4-0.1,0.5-0.4,0.5c-0.1,0-0.1,0-0.2,0c-0.1,0-0.2,0-0.2,0c-0.6,0-0.6,0-0.6-0.6c0-1.7,0-3.5,0-5.2
			c0-0.4,0.2-0.4,0.5-0.5c0.5,0,0.9,0.1,1.2,0.6c0.8,1,1.6,2,2.5,2.9c0.1,0.1,0.1,0.3,0.3,0.1C46.9,90.3,47.7,89.2,48.6,88.2z"/>
		<path class="st2" d="M11.1,89.3c-0.1,0.8-0.1,0.8,0.8,0.8c1.1,0,2.2,0,3.2,0c0.2,0,0.3,0,0.5,0c0.7,0.1,1,0.4,1,1.1
			c0,0.6,0,1.2,0,1.8c0,0.8-0.1,0.9-0.8,0.9c-1.7,0-3.3,0-5,0c-1.2,0-1.3-0.1-1.5-1.3c0-0.3,0.2-0.4,0.5-0.5c0.2,0,0.4,0,0.6-0.1
			c0.4-0.1,0.5,0,0.4,0.4c0,0.1,0,0.3,0.2,0.3c1.2,0,2.3,0,3.5,0c0.8,0.1,0.8,0.1,0.8-0.7c0-0.1,0-0.2,0-0.3c0-0.3-0.1-0.3-0.3-0.3
			c-1.3,0-2.6,0-4,0c-0.8,0-1.5-0.6-1.5-1.4c0-0.5,0-1.1,0.2-1.6c0.2-0.5,0.5-0.6,1.1-0.6c1.5,0,3.1,0,4.6,0c0.1,0,0.2,0,0.3,0
			c0.8,0.1,1,0.3,1,1.1c0,0.3-0.1,0.4-0.4,0.4c-0.1,0-0.3,0-0.4,0.1c-0.1,0-0.1,0-0.2,0c-0.4,0.1-0.6,0-0.6-0.4
			c0-0.2-0.1-0.3-0.3-0.3c-1.1,0-2.1,0-3.2,0C11.1,88.7,11.1,88.7,11.1,89.3z"/>
		<path class="st2" d="M37,88.2c0.3-0.6,0.9-0.4,1.4-0.4c0.3,0,0.2,0.2,0.2,0.3c0,1.5,0,3,0,4.5c0,0.3,0,0.7,0,1
			c0,0.3-0.1,0.4-0.4,0.4c-0.1,0-0.2,0-0.3,0c-0.1,0-0.3,0-0.4,0c-0.3,0.1-0.4-0.1-0.4-0.4c0-1,0-2,0-2.9c0-0.2,0-0.3,0-0.6
			c-0.3,0.4-0.5,0.6-0.7,0.9c-0.6,0.7-1.2,1.3-1.8,2c-0.1,0.1-0.2,0.3-0.4,0.1c-0.8-1-1.7-1.9-2.6-3c0,0.6,0,1,0,1.4
			c-0.1,0.7,0,1.3,0,2c0,0.4-0.1,0.5-0.5,0.5c-0.1,0-0.1,0-0.2,0c-0.1,0-0.3,0-0.4,0c-0.4,0.1-0.4-0.1-0.4-0.4c0-1.1,0-2.1,0-3.2
			c0-0.7,0-1.4,0-2.2c0-0.4,0.2-0.5,0.5-0.5c0.5,0,0.8,0.1,1.1,0.5c0.8,1,1.7,2,2.5,3c0.1,0.1,0.1,0.3,0.3,0.1
			C35.3,90.3,36.2,89.2,37,88.2z"/>
		<path class="st2" d="M19.7,88.3c0-0.1,0-0.2,0-0.3c0-0.2,0-0.3,0.3-0.3c0.3,0,0.6,0,0.9,0c0.3,0,0.3,0.1,0.3,0.3
			c0,1.4,0,2.9,0,4.3c0,0.3,0.1,0.4,0.4,0.4c1,0,2.1,0,3.1,0c0.2,0,0.4,0,0.6,0c0.2,0,0.2-0.1,0.2-0.2c0-1.4,0-2.8,0-4.2
			c0-0.1,0-0.2,0-0.3c0-0.2,0-0.2,0.2-0.2c0,0,0,0,0,0c0.4,0,0.9-0.2,1.1,0.1c0.2,0.2,0.1,0.7,0.1,1c0,1.4,0,2.8,0,4.2
			c0,0.8-0.1,0.9-0.9,1c-1.8,0-3.6,0-5.4,0c-0.7,0-0.9-0.2-0.9-0.9C19.7,91.5,19.7,89.9,19.7,88.3z"/>
		<path class="st2" d="M61,89.3c0,1.3,0,2.7,0,4c0,0.7,0,0.7-0.6,0.7c-0.1,0-0.3,0-0.4,0c-0.4,0.1-0.4-0.1-0.4-0.4c0-1.5,0-3,0-4.5
			c0-0.2-0.1-0.3-0.3-0.3c-0.7,0-1.4,0-2.1,0c-0.4,0-0.6-0.1-0.5-0.5c0-0.5,0-0.5,0.6-0.5c2.1,0,4.2,0,6.3,0c0.3,0,0.4,0.1,0.4,0.4
			c0,0.7,0,0.7-0.6,0.7c-0.6,0-1.1,0-1.7,0C60.9,88.8,60.9,88.8,61,89.3z"/>
		<path class="st2" d="M53.2,88.3c0.1-0.6,0.1-0.6,0.7-0.6c0.8,0,0.8,0,0.8,0.8c0,1.7,0,3.3,0,5c0,0.4-0.1,0.6-0.5,0.5
			c-0.1,0-0.1,0-0.2,0c-0.1,0-0.2,0-0.2,0c-0.4,0.1-0.5-0.1-0.5-0.5c0-1.6,0-3.2,0-4.8C53.3,88.6,53.3,88.5,53.2,88.3z"/>
		<path class="st1" d="M19.7,88.3c0,1.6,0,3.2,0,4.8c0,0.7,0.2,0.9,0.9,0.9c1.8,0,3.6,0,5.4,0c0,0.4-0.3,0.5-0.6,0.5
			c-1.9,0-3.9,0-5.8,0c-0.6,0-0.8-0.2-0.8-0.8c0-1.6,0-3.3,0-4.9c0-0.5,0-0.5,0.5-0.5C19.5,88.3,19.6,88.3,19.7,88.3z"/>
		<path class="st1" d="M56.6,88.2c-0.1,0.4,0.1,0.5,0.5,0.5c0.7,0,1.4,0,2.1,0c0.2,0,0.3,0.1,0.3,0.3c0,1.5,0,3,0,4.5
			c0,0.3,0.1,0.5,0.4,0.4c0.1,0,0.3,0,0.4,0c0,0.5,0,0.5-0.5,0.5c-1,0-1,0-1-1c0-1.3,0-2.6,0-3.9c0-0.3-0.1-0.4-0.4-0.4
			c-0.7,0-1.5-0.1-2.2-0.1c-0.2,0-0.3-0.1-0.3-0.3C55.9,88.2,55.9,88.2,56.6,88.2z"/>
		<path class="st1" d="M9.7,88.4c-0.1,0.5-0.2,1-0.2,1.6c0,0.8,0.7,1.4,1.5,1.4c1.3,0,2.6,0,4,0c0.3,0,0.4,0.1,0.3,0.3
			c0,0.1,0,0.2,0,0.3c0,0.8,0,0.8-0.8,0.7c0-0.9,0-0.9-0.8-0.9c-1.1,0-2.2,0-3.3,0c-0.9,0-1.5-0.6-1.5-1.5c0-0.6,0-1.1,0.3-1.6
			C9.3,88.5,9.4,88.4,9.7,88.4z"/>
		<path class="st1" d="M53.2,88.3c0.1,0.1,0.1,0.3,0.1,0.4c0,1.6,0,3.2,0,4.8c0,0.4,0.1,0.6,0.5,0.5c0.1,0,0.2,0,0.2,0
			c0.1,0.3-0.1,0.5-0.4,0.5c-1,0-1,0-1-1c0-1.5,0-3,0-4.4C52.5,88.2,52.5,88.4,53.2,88.3z"/>
		<path class="st1" d="M30.1,88.2c0.1,0.7,0,1.4,0,2.2c0,1.1,0,2.1,0,3.2c0,0.3,0.1,0.5,0.4,0.4c0.1,0,0.3,0,0.4,0
			c0,0.3-0.1,0.5-0.4,0.5c-0.3,0-0.8,0.1-1-0.1c-0.2-0.2-0.1-0.7-0.1-1c0-1.5,0-3,0-4.4C29.4,88.3,29.4,88.3,30.1,88.2z"/>
		<path class="st1" d="M41.7,88.2c0,1.7,0,3.5,0,5.2c0,0.6,0,0.6,0.6,0.6c0.1,0,0.2,0,0.2,0c0,0.3-0.1,0.5-0.4,0.5
			c-0.3-0.1-0.8,0.2-1-0.1c-0.2-0.2-0.1-0.7-0.1-1c0-1.5,0-3,0-4.5C41,88.1,41,88.3,41.7,88.2z"/>
		<path class="st1" d="M9.3,92.7c0.2,1.2,0.3,1.3,1.5,1.3c1.7,0,3.3,0,5,0c0,0.5-0.4,0.4-0.7,0.4c-1.3,0-2.6,0-3.9,0
			c-0.5,0-1,0-1.5,0c-0.6,0-0.9-0.3-1-0.9C8.7,92.9,8.7,92.9,9.3,92.7z"/>
		<path class="st1" d="M25.5,88.3c0,1.4,0,2.8,0,4.2c0,0.2,0,0.3-0.2,0.2c-0.2,0-0.4,0-0.6,0c0-1.3,0-2.7,0-4c0-0.4,0.1-0.5,0.5-0.5
			C25.3,88.3,25.4,88.3,25.5,88.3z"/>
		<path class="st1" d="M36.3,91c0.2-0.3,0.4-0.5,0.7-0.9c0,0.3,0,0.4,0,0.6c0,1,0,2,0,2.9c0,0.3,0.1,0.5,0.4,0.4c0.1,0,0.3,0,0.4,0
			c0,0.5,0.1,0.5-0.5,0.5c-1,0-1,0-1-1C36.3,92.7,36.3,91.9,36.3,91z"/>
		<path class="st1" d="M11.1,89.3c0-0.6,0-0.6,0.5-0.6c1.1,0,2.1,0,3.2,0c0.2,0,0.3,0.1,0.3,0.3c0,0.4,0.2,0.5,0.6,0.4
			c0,0,0.1,0,0.2,0c0,0.3,0,0.5-0.4,0.5c-0.1,0-0.3,0-0.4,0.1c-0.4,0.1-0.8,0.1-0.8-0.5c0-0.2-0.2-0.1-0.3-0.1
			C13,89.3,12.1,89.3,11.1,89.3z"/>
		<path class="st1" d="M47.9,91c0.2-0.3,0.4-0.5,0.6-0.8c0.1,0.1,0.1,0.2,0.1,0.3c0,1,0,2.1,0,3.1c0,0.3,0.1,0.4,0.4,0.4
			c0.2,0,0.3,0,0.5,0c0,0.3-0.1,0.5-0.4,0.5c-0.4-0.1-0.8,0.2-1-0.1c-0.2-0.2-0.1-0.7-0.1-1C47.9,92.6,47.9,91.8,47.9,91z"/>
		<path class="st1" d="M31.6,91.6c-0.1-0.4,0-0.9,0-1.4c0.9,1,1.7,2,2.6,3c-0.5,0.7-0.6,0.7-1.1,0c-0.4-0.5-0.9-1-1.3-1.5
			C31.7,91.6,31.7,91.6,31.6,91.6z"/>
		<path class="st1" d="M43.2,91.5c0-0.4,0-0.8,0-1.2l0,0l0,0c0.9,0.9,1.7,1.9,2.5,2.9c-0.5,0.6-0.5,0.6-1.1,0.1
			c-0.4-0.5-0.9-1-1.3-1.5C43.3,91.6,43.3,91.5,43.2,91.5z"/>
		<path class="st1" d="M61,89.3c0-0.5,0-0.5,0.5-0.5c0.6,0,1.1,0,1.7,0c0,0.5,0,0.5-0.5,0.5C62.1,89.3,61.5,89.3,61,89.3z"/>
		<path class="st1" d="M37,88.2c-0.8,1.1-1.7,2.1-2.5,3.2c-0.2,0.2-0.2,0.1-0.3-0.1c0.8-1,1.5-1.9,2.3-2.9
			C36.6,88.2,36.8,88.1,37,88.2z"/>
		<path class="st1" d="M48.6,88.2c-0.8,1.1-1.6,2.1-2.5,3.2c-0.2,0.2-0.2,0.1-0.3-0.1c0.8-1,1.5-1.9,2.3-2.9
			C48.2,88.2,48.4,88.2,48.6,88.2z"/>
		<path class="st1" d="M56.4,102.2c-0.6,0-1.1,0-1.7,0c-0.2,0-0.3,0-0.3-0.3c0-0.4,0-0.8,0-1.2c0-0.2,0-0.2,0.2-0.2
			c1.2,0,2.4,0,3.7,0c0.2,0,0.2,0.1,0.2,0.2c0,0.3,0,0.7,0,1c0,0.3-0.1,0.4-0.4,0.4C57.6,102.2,57,102.2,56.4,102.2z"/>
		<path class="st0" d="M43.2,90.2L43.2,90.2C43.2,90.3,43.2,90.3,43.2,90.2C43.2,90.2,43.2,90.2,43.2,90.2
			C43.2,90.2,43.2,90.2,43.2,90.2z"/>
	</g>
</g>
</svg>
