<?xml version="1.0" encoding="utf-8"?>
<!-- Generator: Adobe Illustrator 25.2.3, SVG Export Plug-In . SVG Version: 6.00 Build 0)  -->
<svg version="1.1" id="Layer_1" xmlns="http://www.w3.org/2000/svg" xmlns:xlink="http://www.w3.org/1999/xlink" x="0px" y="0px"
	 viewBox="0 0 72 114" style="enable-background:new 0 0 72 114;" xml:space="preserve">
<style type="text/css">
	.st0{fill:url(#SVGID_1_);}
	.st1{fill:url(#SVGID_2_);}
	.st2{fill:url(#SVGID_3_);}
	.st3{fill:url(#SVGID_4_);}
	.st4{clip-path:url(#SVGID_6_);}
	.st5{fill:#CFD2D4;}
	.st6{fill:#A09E9B;}
	.st7{fill:#5D6764;}
	.st8{fill:#D0D2CF;}
	.st9{fill:#3F4949;}
	.st10{fill:#A6A7A3;}
	.st11{fill:#BDBBBB;}
	.st12{fill:#AFB3B0;}
	.st13{fill:#8D948E;}
	.st14{fill:#DEDDDE;}
	.st15{fill:#C5C7C2;}
	.st16{fill:#6E6E6C;}
	.st17{fill:#47504F;}
	.st18{fill:#888A88;}
	.st19{fill:#767575;}
	.st20{fill:#7D7D7B;}
	.st21{fill:#535452;}
	.st22{fill:#FEFEFE;}
	.st23{fill:#3C3C3B;}
	.st24{fill:url(#SVGID_7_);}
	.st25{fill:url(#SVGID_8_);}
	.st26{fill:url(#SVGID_9_);}
	.st27{fill:#FFFFFF;}
</style>
<g>
	<linearGradient id="SVGID_1_" gradientUnits="userSpaceOnUse" x1="52.6144" y1="96.5594" x2="11.4234" y2="96.5594">
		<stop  offset="0" style="stop-color:#74BF44"/>
		<stop  offset="1" style="stop-color:#265C2E"/>
	</linearGradient>
	<polygon class="st0" points="44.9,98.8 52.6,93.8 11.4,85.6 11.4,99.7 50.6,107.5 	"/>
	<linearGradient id="SVGID_2_" gradientUnits="userSpaceOnUse" x1="19.0851" y1="26.1226" x2="60.2755" y2="26.1226">
		<stop  offset="0" style="stop-color:#74BF44"/>
		<stop  offset="1" style="stop-color:#265C2E"/>
	</linearGradient>
	<polygon class="st1" points="26.8,23.9 19.1,28.9 60.3,37.1 60.3,23 21.1,15.2 	"/>
	<linearGradient id="SVGID_3_" gradientUnits="userSpaceOnUse" x1="1.7698" y1="75.2631" x2="60.2532" y2="75.2631">
		<stop  offset="0" style="stop-color:#245D2F"/>
		<stop  offset="0.5031" style="stop-color:#74BF44"/>
		<stop  offset="1" style="stop-color:#275D2E"/>
	</linearGradient>
	<polygon class="st2" points="1.8,62.4 60.3,74 60.3,88.1 1.8,76.5 	"/>
	<linearGradient id="SVGID_4_" gradientUnits="userSpaceOnUse" x1="11.468" y1="47.3776" x2="69.9513" y2="47.3776">
		<stop  offset="0" style="stop-color:#245D2F"/>
		<stop  offset="0.5031" style="stop-color:#74BF44"/>
		<stop  offset="1" style="stop-color:#275D2E"/>
	</linearGradient>
	<polygon class="st3" points="11.5,34.5 70,46.1 70,60.2 11.5,48.6 	"/>
	<g>
		<defs>
			<polyline id="SVGID_5_" points="21.9,91.5 36.7,106.8 59,95.5 58.3,19.6 23.8,0.6 -0.7,2.9 14.8,70 			"/>
		</defs>
		<clipPath id="SVGID_6_">
			<use xlink:href="#SVGID_5_"  style="overflow:visible;"/>
		</clipPath>
		<g class="st4">
			<polygon class="st5" points="23.2,94 37,108.9 57.3,97.4 49.4,78.5 43.2,74.4 38.2,74.5 30.1,77.2 			"/>
			<path class="st6" d="M51.4,83.3c0.6,1.3,1.2,2.7,1.6,4.1c-0.8,0.2-0.5,0.8-0.4,1.3c0.2,0.8,0.2,1.7,0.1,2.5c0,0.6-0.3,1.2-1,0.5
				c-0.4-0.4-0.6-0.2-1,0.1c-1,0.9-0.6,1.9-0.4,2.9c0,0.3,0,0.6,0,1c-0.7,1.6-1.3,3.1-2.7,4.3c-0.5,0.4-1.1,1-0.9,1.9
				c-0.8,0.4-1.5,1-2.4,1.2c0.5-1.9,1.9-3.2,3-4.6c1.4-1.8,1.5-3.8,1.6-5.9c0.1-1.6-1.3-2.8-1.5-4.4c-0.1-0.6-0.2-1.9-1.3-2.2
				c-0.5-0.8,0.2-1.4,0.2-2.2c0.9,0.6,1.2,1.6,1.7,2.6c0.2,0.5,1.8,1.7,2.1,1.5c0.6-0.6,0.6-1.4,0.3-2.1c-0.1-0.2-0.2-0.4-0.2-0.7
				C49.8,83.6,49.9,83.3,51.4,83.3z"/>
			<path class="st7" d="M47.5,61.2c0,0.2,0,0.4,0,0.6c-0.1,0-0.1,0-0.2,0c-0.1,0-0.1,0-0.2,0.1c-0.1,0-0.2,0-0.2,0c0,0,0,0,0,0
				c-0.1-0.2-0.2-0.4-0.5-0.5c-0.1-0.1-0.2-0.2-0.2-0.2C46,61.1,45.9,61,45.9,61c-0.1-0.1-0.3-0.2-0.4-0.3c-0.1-0.1-0.2-0.2-0.3-0.4
				c-0.1,0-0.2,0-0.2,0c-0.1-0.4-0.3-0.6-0.7-0.7c-0.1-0.1-0.2-0.2-0.2-0.2c-0.1-0.1-0.2-0.2-0.2-0.2c-0.5-0.7-1.2-1.3-1.9-1.8
				c-0.5-0.4-0.9-0.7-1.4-1.1c-0.3-0.7-0.9-0.9-1.5-1.3c-0.1-0.1-0.1-0.1-0.2-0.2c-0.1-0.1-0.2-0.1-0.3-0.2c-0.1,0-0.3,0-0.4,0
				c-0.3-0.6-0.4-1.3-1-1.7c-0.1-2,0-2.2,1.3-2.3c0.8-0.1,1.1,0.6,1.8,0.9c0.6,0.4,0.8,1.3,1.7,1.5c0.8,1.2,2,2,3.1,2.9
				c0.5,0.7,1.5,1,1.7,1.9c-0.6,1-0.3,2-0.1,3c0.1,0.4,0.3,0.6,0.8,0.7l0.1,0L47.5,61.2z M40.1,52.6c0,0-0.1-0.1-0.1-0.1
				C40,52.5,40,52.5,40.1,52.6c0.1,0.1,0.2,0.2,0.2,0.2c0.1,0.1,0.2,0.2,0.3,0.3c0,0,0.1-0.1,0.1-0.1c-0.1-0.1-0.3-0.1-0.4-0.2
				C40.2,52.7,40.2,52.7,40.1,52.6z M41.3,53.5c0,0-0.1-0.1-0.1-0.1C41.2,53.5,41.2,53.5,41.3,53.5c0,0.1,0.1,0.2,0.2,0.3
				c0,0,0.1,0.1,0.1,0.1c0,0-0.1-0.1-0.1-0.1C41.4,53.7,41.4,53.6,41.3,53.5z"/>
			<path class="st8" d="M35.8,61.7c-1-0.8-1-2-1.5-3c-1-2.2-2-4.4-3.1-6.6c-0.6-1.1-0.9-2.3-1.2-3.5c-0.1-0.3-0.3-0.5-0.4-0.8
				c0.2-0.2,0.3-0.5,0.5-0.7c0.4,0.4,0.5,0.9,0.5,1.4c0.3,0.5,0.3,1.3,0.9,1.3c0.6,0,0.1-1,0.7-1.2c0,0.1,0.1,0.1,0.2,0.1
				c0.2,1.1,1.1,1.8,1.5,2.9c0,0.2,0,0.3,0,0.5c-0.1,0.3,0.1,0.5,0.2,0.7c-0.1,0.6,0.6,0.9,0.4,1.5c-0.1,1.1,0.6,1.5,1.4,1.9
				c1.7,0.7,1.9,1.9,0.6,3.2c-0.3,0.3-0.8,0.4-0.8,0.9C35.6,60.7,35.7,61.2,35.8,61.7L35.8,61.7z"/>
			<path class="st9" d="M17.7,18.3c0.2,0.2,0.3,0.3,0.5,0.5c0,0.5,0.4,0.8,0.7,1.1c1.6,1.6,3.4,3.1,4.2,5.3c0.3,0.6,0.3,1.5,1.2,1.7
				c-0.2,0.9,0.9,0.9,1,1.6c0.4,0.8,0.7,1.7,1.9,1.2c0,0.3,0,0.6,0,1c-0.3,0-0.6,0-0.8,0.3c-1-1.1-2.4-1.8-3.1-3.2
				c0.2-1-0.2-1.5-1.6-1.7c-0.5-0.5-0.9-1-1.4-1.5c-0.2-0.5-0.3-1-0.7-1.4c-0.1-0.1-0.1-0.3-0.3-0.3l0,0c0-0.7-0.6-1.1-1-1.5
				c-0.3-0.4-0.6-0.8-0.9-1.1c-0.1-0.2-0.2-0.5-0.4-0.7c-0.4-0.4-0.5-1-0.2-1.4C16.9,17.8,17.4,18.5,17.7,18.3z"/>
			<path class="st10" d="M51.4,83.3c-1.5,0.1-1.6,0.3-1.1,1.7c0.1,0.2,0.2,0.4,0.2,0.7c0.3,0.8,0.3,1.6-0.3,2.1
				c-0.3,0.3-1.8-1-2.1-1.5c-0.4-0.9-0.7-2-1.7-2.6c-0.2-0.2-0.5-0.3-0.7-0.5c0-0.6-0.5-0.7-1-0.7c-0.7-0.2-0.5-0.8-0.8-1.3
				c0.1-0.1,0.2-0.3,0.3-0.4c0.2,0,0.3,0,0.5,0c0.3,0.3,0.8,0.3,1,0.7c0.8,1.4,2.1,1.6,3.6,1.2c1-0.3,1.1-0.9,0.4-1.7
				c-0.6-0.6-0.3-1.5-0.7-2.2c0.1-0.2,0.2-0.3,0.3-0.5C50.4,79.9,50.8,81.6,51.4,83.3z"/>
			<path class="st11" d="M55.9,98.4c-0.4,0.2-0.8,0.3-1.2,0.5c-0.5,0.2-0.9,0.3-1.4,0.5c0,0-0.1-0.1-0.1-0.1
				c0.6-0.8,1.6-0.9,2.3-1.5c0.2-0.2,0.7-0.3,0.6-0.6c-0.2-0.5-0.6-0.1-0.9,0.1c-1.5,0.8-3,1.6-4.5,2.4c0.5-1.2,1.1-2.4,1.6-3.6
				c0.1-0.1,0.2-0.2,0.4-0.3c1.7-0.8,2-2.2,2.1-3.9c0.8,1,1,2.3,1.5,3.5c0.2,0.4,0.4,0.8,0.6,1.2C57.1,97.4,56.2,97.7,55.9,98.4z"/>
			<path class="st12" d="M54.7,91.9c-0.1,1.6-0.4,3.1-2.1,3.9c-0.1,0.1-0.3,0.1-0.4,0.3c-0.5,1.2-1.1,2.4-1.6,3.6
				c-0.6,0.3-1.3,0.7-1.9,1c0.1-0.8,0.7-1.3,1-2c0.4-1,1.2-1.9,0.7-3.1c0-0.3,0-0.6,0-1c0.5,0,0.6-0.5,0.9-0.9
				c0.2-0.3,0.4-0.6,0.7-0.5c1.4,0.4,1.2-0.8,1.5-1.5c0.3-0.7-0.2-1.5,0.3-2.2C54.3,90.2,54.5,91.1,54.7,91.9z"/>
			<path class="st11" d="M43.7,71c-1,0.7-1.6,1.6-1.2,2.9c-0.3-0.1-0.6-0.2-1-0.2c0.5-1.9,0.4-2.2-0.7-2.7c0-0.3,0-0.6,0.1-0.8
				c0.7-1.7,0.7-1.7-0.8-2.7c0-0.2,0.1-0.5,0.3-0.4c0.8,0.6,1.5,0.3,2.1-0.1c0.3,0,0.7,0.1,0.5-0.4c-0.1-0.3-0.6-0.6-0.1-1
				c0.3,0.4,0.6,0.8,0.9,1.2c0.3,0.4,0.5,0.8,0.8,1.2c0.2,0.4,0.3,0.8,0.9,0.7c0,0.3-0.2,0.5-0.5,0.5c-0.9-0.3-1-1.4-1.9-1.9
				C43.1,68.6,43.2,69.8,43.7,71z"/>
			<path class="st6" d="M31.9,21.1c1.1,0,2.3,0,3.4,0c0.6,0,1.1,0.2,1.4,0.8c0.1,0.1,0.1,0.3,0.1,0.4c-2,0.4,0.3,1.2-0.1,1.7
				c-0.5,0.4-0.9,0.8-0.8,1.5c-0.4,0.1-0.6,0.3-0.5,0.7c0,0,0,0,0,0c-0.9,0.2-0.3,1-0.5,1.5c-0.2,0-0.5,0-0.7,0
				c-0.5-0.3-0.9,0.1-1.4,0.3c-0.1,0-0.2,0-0.3,0c0-0.9,0.6-1.3,1.4-1.4c0.4-0.3,0.2-0.7,0.2-1c0-0.2,0-0.3,0-0.5
				c0.3-0.7,0.1-1.2-0.4-1.6c0.1-0.1,0.2-0.2,0.3-0.2c0.4-0.2,0.1-0.5,0-0.7c-0.3-0.9-1-0.3-1.5-0.2C32.7,21.5,32.1,21.5,31.9,21.1z
				"/>
			<path class="st13" d="M28.8,28.2c-0.5-0.6-0.5-1.4-0.4-2.1c0.2-1.2,0.4-2.5,0.9-3.6c0.2-0.5,0.6-0.6,1-0.8c0,0.7,0.7,0.5,1,0.8
				c-0.5,1.4-0.5,2.8-0.7,4.3c-0.1,0.8-0.2,1.5-0.4,2.3c0,0,0,0,0,0c-0.1,0.1-0.2,0.2-0.3,0.3c-0.2-0.7-0.8-0.4-1.2-0.5
				c0.1-0.2,0.2-0.3,0.3-0.5C29,28.2,29,28.1,28.8,28.2z"/>
			<path class="st10" d="M44.7,42.7c0.2,0.4,0.5,0.8,0.7,1.2c0,0.3,0,0.5,0,0.8c-0.1,0-0.3,0-0.4-0.1c-0.1,0-0.1-0.1-0.2-0.1
				c0,0.1,0.1,0.1,0.1,0.2c0.2,0.5,0.3,1.1,0.5,1.6c-0.2,0.1-0.5,0.2-0.7,0.2c-0.3-0.2-0.3-0.4-0.3-0.7c0.2-0.2,0.1-0.2-0.1-0.2
				c-0.2-0.3-0.5-0.7-0.7-1c-0.4-0.5-0.6-1.4-1.5-1.4c-0.4-0.7-1.4-0.7-1.5-1.6c0.8-0.1,0.2-0.6,0.2-0.9c-0.1-0.4-0.5-0.8-0.3-1.3
				c0.3,0,0.5,0,0.8,0c0.2,0.5,0.7,0.6,1,1C42.3,41.9,43.7,42.1,44.7,42.7z"/>
			<path class="st14" d="M36.7,107.8c-0.8,0.5-1.2-0.1-1.6-0.6c-1.6-1.7-3.2-3.4-4.9-5.1c-2.3-2.3-4.6-4.6-6.9-6.9
				c-1-1-1-1.7,0.2-2.3c-0.4,1.2,0.1,2,1,2.8c1.3,1.2,2.4,2.4,3.6,3.6c0.4,0.4,0.7,1,1.4,1.1c0.2,0.2,0.5,0.5,0.7,0.7
				c0,0.4,0.3,0.7,0.7,0.7c1.5,1.5,2.9,3,4.4,4.5c0,0.5,0.2,0.7,0.7,0.7l0,0C36,107.6,36.6,107.4,36.7,107.8z"/>
			<path class="st6" d="M29.5,100.3c-0.7-0.1-1-0.7-1.4-1.1c-1.2-1.2-2.4-2.5-3.6-3.6c-0.9-0.8-1.4-1.6-1-2.8
				c1.4-3.4,2.9-6.9,4.3-10.3c0.2-0.4,0.4-0.8,0.5-1.2c0.1,0,0.2,0,0.3,0c-0.1,0.6-0.2,1.1-0.4,1.6c-1.2,3-2.4,5.9-3.6,8.9
				c-0.2,0.6-0.4,1.1-0.1,1.7c-1.3,0.1-0.7,0.7-0.2,1.1c1.5,1.5,3,3,4.5,4.6C29.1,99.6,29.5,99.8,29.5,100.3z"/>
			<path class="st8" d="M37,71.3c0.5-2.7,0.1-5.3-0.6-7.9c-0.1-0.6-0.5-1.2-0.7-1.8c0,0,0,0,0,0c0.6,0,0.6,0.8,1.2,1
				c0.4,0.5,0.2,1.2,0.5,1.7c0.3,1.3,1.4,1.4,2.4,1.7c0,0.7-0.2,1.3-0.5,2c-1.3-0.6-1.4-0.5-1.4,1c0,0.4,0,0.9,0,1.3
				C37.9,70.8,37.6,71.2,37,71.3z"/>
			<path class="st12" d="M44.7,42.7c-1-0.6-2.4-0.8-2.4-2.4c0.4-0.1,0.6,0.2,0.9,0.4c0.2,0.1,0.5,0.4,0.7,0c0.1-0.2,0-0.5-0.3-0.6
				c-0.8-0.4-1.4-1-2.4-0.8c-0.3,0-0.5,0-0.8,0c0,0-0.1,0-0.1,0c-0.2-0.9-0.4-0.9-0.8-0.5c-0.1-0.1-0.3-0.1-0.4-0.2
				c0.4-0.5-0.1-0.8-0.2-1.2c0-0.1,0-0.2,0-0.2c0.3-0.1,0.6-0.2,1-0.2c0.4,0.2,0,0.8,0.7,1c1,0.2,1.9,0.6,2.9,0.7
				C44.6,39.8,44.9,41.2,44.7,42.7z"/>
			<path class="st9" d="M14.7,19c0-0.1,0-0.2,0-0.2c0.5-0.9,0.1-1.8-0.2-2.6c-0.1-0.8-0.1-1.7-0.2-2.5c0-0.3-0.2-0.4-0.5-0.4
				c0.5-1.4,0.1-2.7,0-4.1c0-0.2,0-0.3,0-0.5c0.2,0,0.3,0,0.5,0c0.1,0.2,0.1,0.2,0.3,0.1c0.1,0,0.1,0,0.2-0.1
				c0.4,0.2,0.2,0.6,0.3,0.9c0.3,1.3,0.3,2.6,0.2,3.9c0,1.3-0.2,2.5,0.2,3.8c0.3,0.6,0.1,1.1-0.1,1.7C15.1,19,14.9,19,14.7,19z"/>
			<path class="st10" d="M53.8,89.5c-0.5,0.7,0,1.5-0.3,2.2c-0.3,0.7-0.1,1.9-1.5,1.5c-0.3-0.1-0.5,0.3-0.7,0.5
				c-0.3,0.3-0.4,0.8-0.9,0.9c-0.2-1-0.6-2.1,0.4-2.9c0.3-0.3,0.6-0.5,1-0.1c0.7,0.7,1,0.2,1-0.5c0-0.8,0.1-1.6-0.1-2.5
				c-0.1-0.4-0.4-1,0.4-1.3C53.4,88,53.6,88.8,53.8,89.5z"/>
			<path class="st15" d="M37,71.3c0.6-0.1,0.8-0.5,0.9-1c0.3,0.3,0.6,0.2,0.7-0.2c0.1-0.4,0.1-0.8,0.7-0.8c0.4,0,0.5,0.3,0.8,0.5
				c0,0,0.1,0,0.1,0.1c0,0-0.1,0-0.1-0.1c0-0.8,0-1.6,0-2.4c1.5,1,1.5,1,0.8,2.7c-0.1,0.2-0.1,0.5-0.1,0.8c-0.8,0.1-0.8,1-1.4,1.3
				c-0.5-1.1-1.5-0.3-2.2-0.5C37,71.7,37,71.5,37,71.3z"/>
			<path class="st8" d="M20.2,24.7c0.5,0.5,0.9,1,1.4,1.5c0.4,0.7,1,1.2,1.6,1.7c0.7,1.4,2.1,2.1,3.1,3.2c0.2,0.3,0.5,0.5,0.7,0.8
				c0,0.4,0,0.7,0,1.1c-2.1-2.5-4.9-4.3-6.8-6.9c-0.3-0.4-0.6-0.8-0.6-1.3C19.9,24.7,20.1,24.7,20.2,24.7z"/>
			<path class="st8" d="M39.6,32.9c0.5,0.2,1,0.4,1.5-0.2c0.2-0.2,0.5,0.3,0.7,0.5c0.2,0.2,0,0.4-0.2,0.6c-0.3,0.4-0.6,0.7-0.6,1.2
				c-0.8-0.2-1.7-0.6-2.4,0.2c-0.7,0-1,0.6-1.5,0.8c-0.4-0.1-0.7-0.4-0.8-0.8c0.4,0,0.8,0.1,0.9-0.5c0.8,0,0.5-1.1,1.1-1.2
				C38.8,33.6,39.3,33.4,39.6,32.9z"/>
			<path class="st12" d="M15.4,17.3c-0.4-1.2-0.3-2.5-0.2-3.8c0-1.3,0.1-2.6-0.2-3.9c0.3-0.1,0.6-0.1,0.9-0.2c0,2.7-0.6,5.6,1.5,7.9
				C16.7,18,16,17.4,15.4,17.3z"/>
			<path class="st16" d="M30.1,77.2c1.3-0.8,2.8-1.2,4.2-1.8c0.5,0.5,0.5,1.5,1.4,1.6c0,0.2,0,0.3,0,0.5c-0.3,0-0.6,0-1,0l0,0
				c-0.1-0.1-0.2-0.2-0.2-0.2c-0.8-0.9-0.8-0.8-1.7,0.1c-0.4,0.4-0.5,1-1.1,1.1c-0.6-0.1-0.9-0.5-1.3-0.8
				C30.4,77.5,30.3,77.4,30.1,77.2z"/>
			<path class="st15" d="M47.8,54c0.6,1.3,0,2.7,0.4,3.9c0.1,0.3,0,0.6-0.4,0.7c-0.3-0.4-0.7-1-0.7-1.3c-0.1-1-1.2-1.7-1-2.8
				c0.6,0.1,0.7-0.5,1.2-0.7C47.4,53.9,47.6,53.9,47.8,54z"/>
			<path class="st8" d="M43.4,38.7c-1-0.1-1.9-0.5-2.9-0.7c-0.6-0.1-0.3-0.8-0.7-1c0-1,0.8-0.9,1.2-0.6c0.6,0.4,1.1,0.4,1.7,0.3
				c0,0,0,0,0,0c0,0.4,0.3,0.5,0.6,0.5C43.6,37.7,43.4,38.2,43.4,38.7z"/>
			<path class="st10" d="M42.7,36.7c-0.6,0-1.1,0-1.7-0.3c-0.4-0.3-1.2-0.4-1.2,0.6c-0.3,0.1-0.6,0.2-1,0.2c0-0.7,0.1-1.4-0.3-2
				c0.8-0.8,1.6-0.4,2.4-0.2C41.6,35.6,42.3,36,42.7,36.7z"/>
			<path class="st7" d="M43.7,74.6c1.3,0.7,2.4,1.5,3.6,2.4c0.1,0.4,0.2,0.8-0.1,1.3c-0.3,0.4-0.3,0.9,0.3,1.2
				c-0.3,0.2-0.5,0.4-0.9,0.4c0.1-0.7-0.6-1.1-0.5-1.8c0.2-1.3-0.5-2-1.7-2.3c-0.2-0.2-0.3-0.3-0.5-0.5
				C43.8,75.1,43.6,74.9,43.7,74.6z"/>
			<path class="st12" d="M36,25.5c-0.2-0.7,0.3-1.1,0.8-1.5c0.6,0.5,0.4,1.1,0.2,1.7c-0.4,1.2-1,2.4-1,3.7c-0.2,0-0.4-0.1-0.4-0.3
				c0.1-1-0.4-2,0-2.9c0,0,0,0,0,0C36,26.2,36,25.8,36,25.5z"/>
			<path class="st16" d="M43.7,71c-0.5-1.2-0.6-2.4-0.5-3.7c0.9,0.5,1,1.6,1.9,1.9C45.3,70.2,45,70.7,43.7,71z"/>
			<path class="st10" d="M23.1,25.2c-0.8-2.3-2.6-3.7-4.2-5.3c-0.3-0.3-0.6-0.6-0.7-1.1c2.1,1.8,4.5,3.5,5.4,6.4
				C23.4,25.2,23.2,25.2,23.1,25.2z"/>
			<path class="st17" d="M44.7,67.9c-0.3-0.4-0.5-0.8-0.8-1.2c0.4,0,0.6-0.1,0.9-0.5c0.6-0.6,0.9-1.3,1.4-2c0.1,0,0.3,0,0.4,0
				c0,1.1-0.5,2.1-0.8,3.1C45.4,67.6,45,67.8,44.7,67.9z"/>
			<path class="st12" d="M13.2,5.1c0.2-0.6,0.7-1.4,1-1.2c0.6,0.4,1.8,0.4,1.6,1.7c-0.1,0.7,0,1.4,0,2.1c-0.2,0-0.5,0-0.7,0
				c-0.1-0.4-0.8-0.6-0.5-1.2c0.2-0.4,0.7,0.4,0.8-0.2c0-0.2,0.1-0.3,0-0.4c-0.5-0.7-0.8-1.8-2-0.7C13.4,5.2,13.3,5.1,13.2,5.1z"/>
			<path class="st12" d="M44.6,46.6c0.2-0.1,0.5-0.2,0.7-0.2c0.3,0.4,0.3,1,0.8,1.2c0.6,0.6,0.9,1.4,1.2,2.2c-0.4,0-0.8,0.2-1.1,0.5
				c-0.6-0.2-0.4-0.7-0.4-1.1c0-0.4,0-0.9-0.6-0.9C45,47.7,44.8,47.1,44.6,46.6z"/>
			<path class="st13" d="M13.2,5.1c0.1,0,0.2,0.1,0.2,0.1c1.1-1.1,1.5,0.1,2,0.7c0.1,0.2,0,0.3,0,0.4c-0.1,0.6-0.6-0.2-0.8,0.2
				c-0.2,0-0.3,0-0.5,0c0-0.2-0.1-0.6-0.3-0.5c-0.3,0.1,0,0.3,0.1,0.5c-0.8,0.1,0.3,0.6-0.2,0.7c-0.3,0-0.6,0-0.9,0
				C12.9,6.5,12.9,5.8,13.2,5.1z"/>
			<path class="st15" d="M26.9,38.2c0-0.5,0-1,0-1.5c0.5,0.2,0.9,0.3,1.4,0.5c0.7,0.9,2,0.7,2.7,1.7c0.1,0.1,0.2,0.1,0.3,0.2l0,0
				c-0.1,0.2-0.2,0.4-0.4,0.6c-0.1,0-0.2,0-0.2,0c-0.4-0.5-1.1-0.5-1.7-0.8c-0.8-0.8-1.2-0.9-1.7-0.6C27.2,38.2,27.1,38.2,26.9,38.2
				z"/>
			<path class="st13" d="M27.1,32.9c0-0.4,0-0.7,0-1.1c0-0.4,0-0.7,0-1.1c0-0.3,0-0.6,0-1c0,0,0.1,0,0.1,0l0.1,0
				c0.2,0.1,0.5,0.2,0.7,0.3c0,0.1,0,0.1,0,0.2c0,0.9-0.7,1.9,0.3,2.6c0,0.1,0,0.1-0.1,0.2c-0.8,0.4-0.2,0.8,0,1.2
				c-0.5,0.4-0.7,0-0.7-0.4c-0.1-0.6-0.2-0.3-0.4-0.1C27.2,33.5,27.2,33.2,27.1,32.9z"/>
			<path class="st13" d="M28.3,37.2c-0.5-0.2-0.9-0.3-1.4-0.5c0-0.2,0-0.3,0-0.5c1.2,0.3,1.5-0.6,1.9-1.4c0,0,0,0,0,0
				c0.3,0.4,0.6,0.8,1,1.2C29.9,37.2,29.1,37.2,28.3,37.2z"/>
			<path class="st10" d="M15.4,17.3c0.6,0.1,1.3,0.6,1.9,0c0.2,0.3,0.5,0.6,0.4,1c-0.4,0.1-0.8-0.5-1,0c-0.3,0.5-0.2,1,0.2,1.4
				c0.2,0.2,0.3,0.5,0.4,0.7c-0.9,0.1-1-0.9-1.5-1.3c-0.2-0.1-0.3-0.1-0.5-0.2C15.5,18.4,15.7,17.9,15.4,17.3z"/>
			<path class="st13" d="M46.6,64.3c-0.1,0-0.3,0-0.4,0c-0.3-0.4-0.5-0.8-0.8-1.2c0.6-0.4-0.4-0.7,0-1.1c0.3-0.1,0.8,0.4,1.1-0.1
				c0.1,0,0.3,0,0.4,0c0,0,0,0,0,0c0,0.3,0.2,0.5,0.4,0.5C47.1,63.1,47.2,63.8,46.6,64.3z"/>
			<path class="st13" d="M46.1,54.5c-0.2,1.1,0.9,1.7,1,2.8c0,0.4,0.4,0.9,0.7,1.3c0,0.2,0,0.4,0,0.6c-0.2,0-0.3,0-0.5-0.1
				c-0.1-0.3-0.2-0.7-0.3-1c-0.1-0.1-0.2-0.2-0.2-0.3c-0.1-0.1-0.1-0.1-0.2-0.2c-0.3-0.9-1.3-1.2-1.7-1.9c1.4,0.4,0.8-0.6,0.8-1.1
				C45.8,54.6,45.9,54.5,46.1,54.5L46.1,54.5z"/>
			<path class="st15" d="M14.4,16.1c0.3,0.8,0.7,1.7,0.2,2.6c-0.2-0.7-0.3-1.3-1-1.8c-0.7-0.4-0.2-1.4-0.5-2.1
				c0.1-0.1,0.1-0.3,0.2-0.4c0,0,0,0,0,0c0.6,0,0.5,0.5,0.6,0.8C14,15.6,13.8,16.1,14.4,16.1z"/>
			<path class="st12" d="M37.1,71.8c0.7,0.2,1.7-0.5,2.2,0.5c-0.1,0.5-0.3,0.9-0.7,1.3c-0.2-0.4,0.1-1-0.6-1c-0.6,0-1.1,0.3-1.1,1
				c0,0.2,0,0.4,0,0.6c-0.2,0-0.4,0-0.6-0.1c0-0.2,0-0.5,0-0.7c0-0.2,0.1-0.4,0.1-0.7c0.3-0.1,0.4-0.2,0.3-0.6
				C37,72.1,37.1,71.9,37.1,71.8z"/>
			<path class="st6" d="M28.8,34.8c-0.4,0.8-0.7,1.7-1.9,1.4c-0.1-0.8,0.1-1.6,0.3-2.4c0.2-0.2,0.4-0.5,0.4,0.1
				c0,0.4,0.2,0.8,0.7,0.4C28.6,34.4,28.7,34.6,28.8,34.8z"/>
			<path class="st10" d="M25.2,28.6c-0.1-0.7-1.2-0.7-1-1.6c0.1-0.3,0.2-0.5,0.3-0.8c0.7,0.5,1.1,1.3,1.9,1.7
				c-0.2,0.5,0.3,0.8,0.2,1.2C26.2,28.9,25.7,28.7,25.2,28.6z"/>
			<path class="st14" d="M46.3,50.2c0.3-0.3,0.6-0.5,1.1-0.5c0.1,0.1,0.2,0.2,0.2,0.3c-0.3,1.4,0,2.7,0.3,4
				c-0.2-0.1-0.3-0.1-0.5-0.2c-0.2-0.6-0.5-1.3-0.7-1.9C46.3,51.3,46.6,50.7,46.3,50.2z"/>
			<path class="st10" d="M13.7,9.2c0.2,1.4,0.6,2.7,0,4.1c-0.1,0.3-0.3,0.5-0.6,0.5c-0.1-0.7-0.3-1.4,0.3-2.2
				c0.4-0.5-0.1-1.6-0.1-2.4C13.4,9.2,13.5,9.2,13.7,9.2z"/>
			<path class="st16" d="M47,58.1c0.1,0.3,0.2,0.7,0.3,1c0.1,0.2,0.3,0.2,0.4,0.2c0,0.2,0,0.3-0.1,0.5c-0.8,0.3-0.3,1-0.5,1.5
				c-0.4,0-0.7-0.3-0.8-0.7c-0.2-1-0.5-2,0.1-3c0.1,0.1,0.1,0.1,0.2,0.2C46.9,57.9,47,58,47,58.1z"/>
			<path class="st11" d="M28.4,43c-0.1-0.4-0.3-0.8-0.3-1.2c0.2-0.1,0.2-0.3,0.2-0.5c0.8,0,0.2,0.9,0.8,1.1c0.3-0.1,0.1-0.9,0.7-0.6
				c0.4,0.1,0.2,0.5,0.1,0.8c-0.1,0.5-0.1,1.1-0.1,1.6C28.8,44.4,29.1,43,28.4,43z"/>
			<path class="st15" d="M28.4,43c0.8,0,0.4,1.4,1.4,1.2c0,0.2,0,0.3,0,0.5c-0.2,0-0.4,0-0.4,0.2c0,0.3,0.4,0.3,0.6,0.5
				c-0.4,0.6-0.1,1.1,0,1.7c-0.2,0.2-0.3,0.5-0.5,0.7C29.1,46.2,28.8,44.6,28.4,43z"/>
			<path class="st11" d="M47.5,102.9c-0.5,0.3-1.1,0.5-1.6,0.8c-0.4,0.1-0.9,0.2-1,0.7c-0.1,0-0.3,0-0.4,0.1c-0.1,0-0.2-0.1-0.4-0.1
				c1.7-1.4,3.6-2.3,5.6-3.1c-0.1,0.2-0.1,0.3-0.2,0.5c0,0,0,0,0,0C48.7,102,47.9,102.2,47.5,102.9z"/>
			<path class="st8" d="M31.2,22.4c-0.3-0.3-1-0.1-1-0.8c0.4-0.7,1-0.8,1.7-0.5c0.2,0.4,0.8,0.4,0.7,1c0,0,0,0,0,0
				c-0.2,0.1-0.2,0.2,0,0.3c0,0.1,0,0.1,0,0.2C32.1,22.7,31.7,22.4,31.2,22.4z"/>
			<path class="st18" d="M35.9,30.4c0.3,1.2,1.4,1.7,2,2.5c-0.6,0-1.2-0.2-1.6,0.3c0-1.1-0.9-2-1-3.1C35.5,30.2,35.7,30.3,35.9,30.4
				z"/>
			<path class="st16" d="M47.4,79.5c-0.5-0.3-0.5-0.8-0.3-1.2c0.4-0.5,0.2-0.9,0.1-1.3c0.6,0.2,1,0.6,1.4,1
				c-0.1,0.4-0.2,0.7-0.3,1.1C48.1,79.3,47.8,79.4,47.4,79.5z"/>
			<path class="st6" d="M43.7,74.6c-0.1,0.3,0.2,0.5,0.2,0.7c0,0.1,0,0.2,0,0.3c-0.6-0.2-1.3-0.3-1.9-0.5c0.2-0.7-0.5-0.7-0.8-1
				c0.1-0.1,0.2-0.3,0.3-0.4c0.3,0.1,0.6,0.2,1,0.2c0.2,0.2,0.5,0.3,0.7,0.5C43.3,74.7,43.5,74.7,43.7,74.6L43.7,74.6z"/>
			<path class="st13" d="M36.5,73.4c0,0.2,0,0.5,0,0.7c0,0.4,0,0.8,0,1.3c-0.2,0.2-0.4,0.3-0.5,0.5c-0.1,0-0.3,0-0.4,0
				c0-0.2-0.1-0.4-0.3-0.5c0-0.2,0.1-0.4-0.2-0.5C35.2,74.1,35.8,73.7,36.5,73.4z"/>
			<path class="st12" d="M30.1,77.2c0.1,0.1,0.2,0.3,0.4,0.4c-0.2,0.4-0.4,0.9-0.6,1.3c-0.5,0.8-0.4,1.8-1.2,2.5c-0.1,0-0.2,0-0.3,0
				C28.9,80,29.4,78.5,30.1,77.2z"/>
			<path class="st14" d="M26.6,29.1c0.1-0.4-0.4-0.8-0.2-1.2c0.6,0.4,1.3,0.6,1.7,1.2c0.5,0.4,0.5,0.7-0.1,1
				c-0.2-0.1-0.5-0.2-0.7-0.3C27.4,29.3,26.8,29.4,26.6,29.1z"/>
			<path class="st15" d="M35.5,75.8c0.1,0,0.3,0,0.4,0c0,0.2,0.1,0.5,0.1,0.7c-0.1,0.2-0.2,0.3-0.3,0.5c-1-0.1-0.9-1.1-1.4-1.6
				c0.2-0.3,0.4-0.5,0.7-0.5c0.3,0.1,0.2,0.3,0.2,0.5C35.2,75.6,35.3,75.8,35.5,75.8z"/>
			<path class="st14" d="M43.2,105.1c-1,1.1-2.3,1.5-3.6,1.9c0.1-0.2,0.1-0.3,0.2-0.5c0.5-0.2,0.9-0.5,1.4-0.7
				C42,105.8,42.5,105.2,43.2,105.1L43.2,105.1z"/>
			<path class="st15" d="M36.3,33.2c0.5-0.4,1.1-0.2,1.6-0.3c0.6,0,1.1,0,1.7,0c-0.3,0.5-0.8,0.6-1.3,0.7c-0.6-0.6-1.2,0-1.8,0
				C36.2,33.6,36.2,33.4,36.3,33.2z"/>
			<path class="st19" d="M46.2,47.5c-0.6-0.2-0.5-0.8-0.8-1.2c-0.2-0.5-0.3-1.1-0.5-1.6c0,0,0.1-0.1,0.1-0.1c0.1,0,0.3,0,0.4,0.1
				c0.2,0.2,0.4,0.5,0.6,0.7C46.3,46.1,46,46.8,46.2,47.5z"/>
			<path class="st14" d="M35.9,30.4c-0.2-0.1-0.4-0.2-0.6-0.4c0-0.1,0-0.1-0.1-0.2c-0.1-0.7-0.1-1.5-0.2-2.2
				c0.2-0.5-0.3-1.2,0.5-1.5c-0.3,1,0.1,2,0,2.9c0,0.2,0.1,0.4,0.4,0.3C36,29.8,36,30.1,35.9,30.4z"/>
			<path class="st11" d="M50.6,101.2c-0.1,0-0.3,0-0.4,0.1c-0.1,0-0.2-0.1-0.3-0.1c0.9-1,2.2-1.4,3.4-1.9c0,0,0.1,0.1,0.1,0.1
				c-0.1,0.1-0.2,0.3-0.3,0.5c-0.5,0.2-1,0.5-1.4,0.7C51.1,100.6,50.7,100.7,50.6,101.2z"/>
			<path class="st11" d="M39.8,106.5c-0.1,0.2-0.1,0.3-0.2,0.5c0,0,0,0,0,0c-0.3,0-0.5,0.1-0.5,0.4c-0.2,0-0.4,0.1-0.7,0.1
				c-0.3,0-0.6-0.1-0.7,0.2c-0.3,0-0.6,0-1,0c-0.2-0.3-0.8-0.2-0.7-0.7c0.6,0.1,1.3,0.4,1.9,0.1C38.6,107,39.1,106.5,39.8,106.5z"/>
			<path class="st14" d="M15.2,7.7c0.2,0,0.5,0,0.7,0c0.5,0.6-0.2,1.1,0,1.7c-0.3,0.1-0.6,0.1-0.9,0.2c-0.1-0.3,0.1-0.7-0.3-0.9
				C14.9,8.4,15.2,8.2,15.2,7.7z"/>
			<path class="st15" d="M28.3,41.3c0,0.2,0,0.4-0.2,0.5c-0.3-0.7-0.8-1.3-1-2.1c0.3-0.6,0.7,0.4,1,0c0,0.1,0,0.2,0,0.2
				c0.1,0.1,0.2,0.2,0.2,0.2c0.1,0,0.2,0,0.2,0C28.5,40.5,28.4,40.9,28.3,41.3z"/>
			<path class="st12" d="M13.7,9.2c-0.2,0-0.3,0-0.5,0c0,0,0,0,0,0C13.1,9.1,13.1,9,13,8.9c-0.4-0.5-0.1-1.1-0.1-1.7
				c0.3,0,0.6,0,0.9,0c0,0.5,0,1,0,1.5C13.7,8.8,13.7,9,13.7,9.2z"/>
			<path class="st18" d="M13.1,13.7c0.3-0.1,0.5-0.3,0.6-0.5c0.2,0,0.4,0.1,0.5,0.4c0.1,0.8,0.1,1.7,0.2,2.5
				c-0.6-0.1-0.4-0.6-0.5-0.9c-0.1-0.3,0-0.9-0.6-0.8C13.2,14.2,13.1,14,13.1,13.7z"/>
			<path class="st10" d="M28.1,39.6c-0.3,0.5-0.7-0.6-1,0c-0.4-0.4-0.2-1-0.2-1.5c0.1,0,0.3,0,0.4,0c0.2,0.4,0.7,0.1,1,0.4
				C28.2,38.9,28,39.3,28.1,39.6z"/>
			<path class="st13" d="M24.5,26.2c-0.1,0.3-0.2,0.5-0.3,0.8c-0.9-0.2-0.9-1.1-1.2-1.7c0.2,0,0.4,0,0.5,0
				C23.9,25.5,24.2,25.9,24.5,26.2z"/>
			<path class="st8" d="M28,30.1c0.5-0.3,0.6-0.7,0.1-1c0.2-0.1,0.3-0.2,0.5-0.3c0.4,0.1,1-0.2,1.2,0.5c0,0-0.1,0-0.1,0
				c-0.4,0-0.7,0-0.7,0.5c0,0.1,0,0.2,0,0.3c-0.3,0.1-0.6,0.1-1,0.2C28.1,30.2,28.1,30.2,28,30.1z"/>
			<path class="st15" d="M15.4,19c0.2,0.1,0.3,0.1,0.5,0.2c0,0-0.1,0.1-0.1,0.1c-0.3,0.3,0,1.2-0.7,1.1c-0.7-0.1-0.3-0.8-0.5-1.3
				C14.9,19,15.1,19,15.4,19z"/>
			<path class="st13" d="M20.2,24.7c-0.2,0-0.3,0-0.5,0.1c-0.4-0.5-0.8-1-1-1.7c0.2,0,0.4,0,0.5,0c0,0,0,0,0,0
				c0.1,0.1,0.2,0.2,0.3,0.3C20,23.7,20,24.2,20.2,24.7z"/>
			<path class="st11" d="M19.2,23.1c-0.2,0-0.4,0-0.5,0c-0.2-0.5-1.3-0.7-0.5-1.5C18.7,22,19.2,22.3,19.2,23.1z"/>
			<path class="st14" d="M55.9,98.4c0.3-0.6,1.3-0.9,1-1.9c0.6,0.1,0.5,0.5,0.4,0.9C57.1,98,56.5,98.3,55.9,98.4z"/>
			<path class="st7" d="M44.7,67.9c0.4-0.2,0.7-0.3,1.1-0.5c-0.1,0.4-0.1,0.8-0.2,1.2C45,68.7,44.9,68.3,44.7,67.9z"/>
			<path class="st14" d="M47.5,102.9c0.4-0.8,1.2-0.9,1.9-1.2C49,102.6,48.2,102.7,47.5,102.9z"/>
			<path class="st12" d="M45.9,45.4c-0.2-0.2-0.4-0.5-0.6-0.7c0-0.3,0-0.5,0-0.8C45.7,44.3,46.5,44.6,45.9,45.4z"/>
			<path class="st14" d="M53,99.8c0.1-0.2,0.2-0.3,0.3-0.5c0.5-0.2,0.9-0.3,1.4-0.5C54.4,99.6,53.7,99.8,53,99.8z"/>
			<path class="st20" d="M48.5,79.1c0.1-0.4,0.2-0.7,0.3-1.1c0.2,0.2,0.5,0.3,0.7,0.5c-0.1,0.2-0.2,0.3-0.3,0.5
				C48.9,79,48.7,79.1,48.5,79.1z"/>
			<path class="st18" d="M47.2,61.2c0.2-0.5-0.3-1.2,0.5-1.5c0.1,0.5,0.1,1-0.2,1.4c0,0-0.1,0-0.1,0L47.2,61.2z"/>
			<path class="st14" d="M44.1,104.3c0.1,0,0.2,0.1,0.4,0.1c-0.1,0.7-0.7,0.7-1.2,0.7c0,0,0,0,0,0c0.1-0.2,0.2-0.3,0.2-0.5
				C43.6,104.5,43.8,104.4,44.1,104.3z"/>
			<path class="st14" d="M44.8,104.4c0.1-0.5,0.6-0.6,1-0.7C45.7,104.2,45.3,104.3,44.8,104.4z"/>
			<path class="st14" d="M50.6,101.2c0.2-0.5,0.6-0.6,1-0.7C51.5,101.1,51.1,101.2,50.6,101.2z"/>
			<path class="st14" d="M37.7,107.8c0.2-0.3,0.5-0.3,0.7-0.2C38.3,108,38.1,108.1,37.7,107.8z"/>
			<path class="st11" d="M47.2,62.4c-0.3,0-0.5-0.2-0.4-0.5c0.1,0,0.2,0,0.2,0c0,0,0.1,0,0.1,0l0.1-0.1c0.1,0,0.1,0,0.2,0
				C47.5,62.1,47.4,62.3,47.2,62.4z"/>
			<path class="st14" d="M49.8,101.2c0.1,0,0.2,0.1,0.3,0.1c-0.1,0.5-0.4,0.5-0.7,0.5c0.1-0.2,0.1-0.3,0.2-0.5
				C49.7,101.2,49.8,101.2,49.8,101.2z"/>
			<path class="st14" d="M39.1,107.5c0.1-0.3,0.2-0.4,0.5-0.4C39.6,107.4,39.4,107.5,39.1,107.5z"/>
			<path class="st10" d="M43.3,37.2c-0.3,0-0.6-0.1-0.6-0.5C43.1,36.7,43.3,36.9,43.3,37.2z"/>
			<path class="st8" d="M36.9,72.2c0.1,0.3,0,0.5-0.3,0.6C36.5,72.5,36.6,72.3,36.9,72.2z"/>
			<path class="st15" d="M47.8,59.3c-0.2,0-0.3,0-0.4-0.2C47.5,59.1,47.7,59.2,47.8,59.3C47.8,59.2,47.8,59.3,47.8,59.3z"/>
			<path class="st7" d="M43.7,74.6c-0.2,0-0.4,0-0.5-0.2C43.4,74.4,43.6,74.4,43.7,74.6z"/>
			<path class="st10" d="M13.2,14.4c-0.1,0.1-0.1,0.3-0.2,0.4C13,14.7,13,14.5,13.2,14.4z"/>
			<path class="st15" d="M28.8,28.2c0.2,0,0.3,0.1,0.1,0.2C28.9,28.3,28.8,28.2,28.8,28.2z"/>
			<path class="st10" d="M13,8.9c0.1,0.1,0.2,0.2,0.2,0.3C13.1,9.1,13.1,9,13,8.9z"/>
			<path class="st18" d="M44.1,81.3c0.2,0.4,0.1,1.1,0.8,1.3c0,0.8,0.5,0.7,1,0.7c0.2,0.2,0.5,0.3,0.7,0.5c0,0.7-0.8,1.4-0.2,2.2
				c-0.1,1.3,0.7,2.4,1.1,3.6c0.4,1.4,0.9,2.9,0.7,4.2c-0.4,2.3-1.8,4.4-3.5,6.1c-1.6,1.7-3,3.6-5.1,4.9c-0.5,0.3-0.6,0.9-0.6,1.5
				c-1.4,1-1.8,0.9-3-0.2c-1.9-2-3.8-3.9-5.7-5.9c-0.2-0.2-0.5-0.4-0.4-0.8c0.6,0,0.8,0.5,1.1,0.8c1.7,1.7,3.4,3.5,5.1,5.2
				c0.2,0.2,0.4,0.9,1,0.4c0.5,0.1,0.7-0.2,0.9-0.6c0.8-1.2,1.8-2.1,2.8-3.1c2.6-2.6,6.1-4.5,6.4-8.7c0.1-1.3,0.2-2.7-0.5-3.9
				c0-0.9-0.6-1.6-0.7-2.5c-0.2-1.2-0.4-2.4-1.4-3.3c-0.1-0.1-0.2-0.2-0.2-0.2c0-1.1-1.1-0.5-1.4-1c0-0.1,0-0.2,0-0.2
				C43.2,82,43.5,81.3,44.1,81.3z"/>
			<path class="st19" d="M29.8,99.1c0,0.4,0.2,0.6,0.4,0.8c1.9,2,3.8,4,5.7,5.9c1.1,1.2,1.6,1.2,3,0.2c1.9-0.9,3.7-1.9,5.5-3.1
				c0.9-0.2,1.6-0.8,2.4-1.2c0.7-0.3,1.3-0.6,1.9-1.1c0.6-0.3,1.3-0.7,1.9-1c1.5-0.8,3-1.6,4.5-2.4c0.3-0.1,0.7-0.5,0.9-0.1
				c0.2,0.3-0.3,0.4-0.6,0.6c-0.7,0.6-1.7,0.7-2.3,1.5c-1.2,0.5-2.5,0.9-3.4,1.9c-0.1,0-0.1,0-0.2,0.1c-2,0.7-3.9,1.7-5.6,3.1
				c-0.2,0.1-0.4,0.2-0.6,0.3c-0.9,0.2-1.6,0.5-2.2,1.2c-0.5,0.2-0.9,0.5-1.4,0.7c-0.7,0-1.2,0.5-1.9,0.7c-0.7,0.2-1.3,0-1.9-0.1
				c0,0,0,0,0,0c-0.1-0.4-0.3-0.7-0.7-0.7c-1.5-1.5-2.9-3-4.4-4.5c0-0.5-0.2-0.7-0.7-0.7c-0.2-0.2-0.5-0.5-0.7-0.7
				c0-0.5-0.4-0.8-0.7-1.1c-1.5-1.5-3-3-4.5-4.6c-0.4-0.4-1-1,0.2-1.1c0.5,0.2,0.5,0.8,0.7,1.1c0.1,0.4,0.3,0.5,0.7,0.6
				c0.2,0.2,0.5,0.5,0.7,0.7c0,0.3,0.2,0.5,0.5,0.5C28.1,97.3,29,98.2,29.8,99.1z"/>
			<path class="st13" d="M44.4,103c-1.8,1.1-3.6,2.2-5.5,3.1c0-0.6,0.1-1.2,0.6-1.5c2.1-1.2,3.5-3.2,5.1-4.9
				c1.7-1.7,3.1-3.7,3.5-6.1c0.2-1.3-0.2-2.8-0.7-4.2c-0.4-1.2-1.1-2.3-1.1-3.6c1.1,0.4,1.2,1.6,1.3,2.2c0.2,1.6,1.5,2.8,1.5,4.4
				c-0.1,2.1-0.2,4.1-1.6,5.9C46.3,99.8,44.9,101.1,44.4,103z"/>
			<path class="st10" d="M48.7,100.6c-0.6,0.5-1.2,0.8-1.9,1.1c-0.2-0.9,0.4-1.5,0.9-1.9c1.4-1.2,2-2.7,2.7-4.3
				c0.5,1.2-0.3,2.1-0.7,3.1C49.4,99.3,48.8,99.8,48.7,100.6z"/>
			<path class="st13" d="M40.4,56.2c0.5,0.4,0.9,0.7,1.4,1.1c0,0.2,0,0.4,0,0.6c-1.2-0.2-0.5,0.6-0.5,1c-0.5,0-0.7-0.4-0.9-0.6
				c-0.3-0.3-0.6-0.5-1.1-0.2c-0.4,0.3-0.6,0.6-0.5,1.1c0.2,0.6,0.3,1.2,0.4,1.8c-0.2,0.9,0.1,1.6,1.2,1.7c0,0.3,0.1,0.6-0.3,0.7
				c-0.5-0.6-1.3-0.1-1.9-0.5c0-0.2,0-0.5,0-0.7c0.1,0,0.3,0,0.4,0c-0.1-0.2-0.1-0.4-0.2-0.5c0-0.5,0-1-0.3-1.4c0-0.2,0-0.5,0-0.7
				c0.1-0.7,0.2-1.5,0.3-2.2c0.1-0.9,0-1.8-0.7-2.4c0-0.2,0.1-0.4,0.3-0.4c0.1,0,0.3,0,0.4,0c0.1,0.1,0.2,0.1,0.3,0.2
				c0.1,0.1,0.1,0.1,0.2,0.2C38.9,55.8,39.6,56,40.4,56.2z"/>
			<path class="st12" d="M38,54.5c-0.2,0.1-0.3,0.2-0.3,0.4c-0.4,1-1.1,0.9-1.9,0.4c-0.5-0.3-1-0.7-1.5-1.1c0.2-0.6-0.5-0.9-0.4-1.5
				c1-0.1,2.1-0.2,3.1,0C37.6,53.2,37.7,53.9,38,54.5z"/>
			<path class="st13" d="M37,52.8c-1-0.2-2.1-0.1-3.1,0c-0.2-0.2-0.3-0.4-0.2-0.7c1.5,0.4,1.8,0.2,2.8-1.9c0-0.1,0-0.3,0-0.4
				c0.5,0,0.7-0.3,0.7-0.8c1,0.5,1.8,1.3,2.9,1.7c0,0.2,0,0.4,0,0.6c-0.6-0.2-1-0.9-1.8-0.9C37,50.6,36.9,50.8,37,52.8z"/>
			<path class="st8" d="M45.7,54.6c-0.1,0.5,0.6,1.5-0.8,1.1c-1.1-0.9-2.3-1.7-3.1-2.9c0-0.3,0-0.6,0-0.9c0.1,0.1,0.3,0.1,0.4,0.2
				l0,0c0.4,0.5,0.9,0.7,1.5,1c0.4,0.3,0.8,0.5,1.2,0.8c0.1,0.5,0.5,0.3,0.7,0.3C45.6,54.3,45.6,54.5,45.7,54.6z"/>
			<path class="st10" d="M41.8,52c0,0.3,0,0.6,0,0.9c-0.8-0.2-1-1.1-1.7-1.5c0-0.2,0-0.4,0-0.6c0.4,0.2,0.7,0.7,1.2,0.7
				c0.1,0.1,0.2,0.1,0.3,0.2C41.6,51.7,41.7,51.9,41.8,52z"/>
			<path class="st15" d="M41.7,57.9c0-0.2,0-0.4,0-0.6c0.8,0.5,1.4,1,1.9,1.8c0,0-0.1,0.1-0.1,0.1C42.8,59,42.4,58.2,41.7,57.9z"/>
			<path class="st10" d="M40.4,56.2c-0.7-0.1-1.4-0.4-1.5-1.3C39.5,55.2,40.1,55.5,40.4,56.2z"/>
			<path class="st15" d="M44.2,59.5c0.4,0.1,0.7,0.3,0.7,0.7c0,0,0,0,0,0C44.5,60.2,44.1,60,44.2,59.5L44.2,59.5z"/>
			<path class="st20" d="M40.3,52.8c0.1,0.1,0.3,0.1,0.4,0.2c0,0-0.1,0.1-0.1,0.1C40.5,53,40.4,52.9,40.3,52.8L40.3,52.8z"/>
			<path class="st11" d="M46.8,61.9c-0.1,0-0.3,0-0.4,0c0-0.1,0-0.3-0.1-0.4l0,0C46.6,61.5,46.7,61.7,46.8,61.9z"/>
			<path class="st11" d="M45.1,60.3c0.1,0.1,0.2,0.2,0.3,0.4c0,0-0.1,0.1-0.1,0.1c-0.1-0.1-0.2-0.1-0.2-0.2
				C45.1,60.5,45.1,60.4,45.1,60.3z"/>
			<path class="st11" d="M45.5,60.6c0.1,0.1,0.3,0.2,0.4,0.3c0,0-0.1,0.1-0.1,0.1c-0.2,0-0.4-0.1-0.5-0.3
				C45.4,60.7,45.4,60.7,45.5,60.6z"/>
			<path class="st16" d="M47.2,61.8L47.2,61.8c-0.1,0.1-0.2,0.1-0.2,0.1C47.1,61.9,47.2,61.8,47.2,61.8z"/>
			<path class="st11" d="M46.1,61.2c0.1,0.1,0.2,0.2,0.2,0.2c0,0,0,0,0,0C46.1,61.5,46.1,61.4,46.1,61.2L46.1,61.2z"/>
			<path class="st11" d="M45.9,61c0.1,0.1,0.2,0.2,0.2,0.2c0,0,0,0,0,0C46,61.2,45.9,61.1,45.9,61L45.9,61z"/>
			<path class="st15" d="M45.1,60.3c0,0.1,0,0.2,0,0.3c-0.1-0.1-0.1-0.2-0.2-0.3c0,0,0,0,0,0C45,60.2,45,60.2,45.1,60.3z"/>
			<path class="st15" d="M43.9,59.3c0.1,0.1,0.2,0.2,0.2,0.2c0,0,0,0,0,0C44,59.6,43.9,59.5,43.9,59.3L43.9,59.3z"/>
			<path class="st15" d="M43.7,59c0.1,0.1,0.2,0.2,0.2,0.2c0,0-0.1,0.1-0.1,0.1c-0.1-0.1-0.2-0.1-0.3-0.2
				C43.6,59.1,43.7,59.1,43.7,59z"/>
			<path class="st10" d="M38.7,54.7c-0.1-0.1-0.2-0.1-0.3-0.2C38.5,54.6,38.6,54.7,38.7,54.7z"/>
			<path class="st20" d="M41.5,53.8c0,0,0.1,0.1,0.1,0.1C41.6,53.9,41.5,53.8,41.5,53.8L41.5,53.8z"/>
			<path class="st20" d="M41.5,53.8c-0.1-0.1-0.2-0.2-0.2-0.2l0,0C41.4,53.6,41.4,53.7,41.5,53.8C41.5,53.8,41.5,53.8,41.5,53.8z"/>
			<path class="st20" d="M41.3,53.6c0,0-0.1-0.1-0.1-0.1C41.2,53.5,41.2,53.5,41.3,53.6C41.3,53.5,41.3,53.6,41.3,53.6z"/>
			<path class="st20" d="M40.3,52.8c-0.1-0.1-0.2-0.2-0.2-0.2l0,0C40.2,52.7,40.2,52.7,40.3,52.8C40.3,52.8,40.3,52.8,40.3,52.8z"/>
			<path class="st20" d="M40.1,52.6c0,0-0.1-0.1-0.1-0.1C40,52.5,40,52.5,40.1,52.6C40.1,52.6,40.1,52.6,40.1,52.6z"/>
			<path class="st17" d="M41.3,51.4c-0.5,0-0.7-0.5-1.2-0.7c-1.1-0.4-1.9-1.2-2.9-1.7c-1.1-0.5-0.6,0.4-0.7,0.8c0,0.1,0,0.3,0,0.4
				c-0.7,0.4-2.2-0.5-2.1,1.3c0,0.2-0.5,0.1-0.7,0.2c-0.3-1-1.3-1.8-1.5-2.9c0.4,0,0.5,0.5,0.8,0.7c0.3,0.3,0.7,0.3,0.8,0
				c0.5-1.2,1.7-1.1,2.7-1.4c0.2-0.1,0.3,0.8,0.5,0c0.1,0,0.2,0,0.2,0c0.1-0.1,0.3-0.2,0.4-0.3c1.4,0.5,2.7,1,4.1,1.5
				c0.4,0.1,0.7,0.8,1.2,0.2c0.2,0.4,0.7,0.4,0.7,1c0,0.5,0.4,0.5,0.7,0.5c0.3,0.3,0.5,0.6,0.4,1c-1-0.2-2-0.2-3-0.7
				C41.7,51.1,41.4,51.2,41.3,51.4z"/>
			<path class="st9" d="M36.5,48c-1,0.3-2.1,0.2-2.7,1.4c-0.1,0.3-0.5,0.3-0.8,0c-0.3-0.2-0.3-0.7-0.8-0.7c-0.1,0-0.1-0.1-0.2-0.1
				c-0.2-0.8,0-1.7-0.3-2.5c0-0.2-0.1-0.3-0.1-0.5c0-0.4,0-0.8,0.1-1.2l0,0c0.6,0.1,1.3-0.3,1.9,0.2c0.4,1.5,1.6,2.2,2.8,2.9
				C36.4,47.7,36.5,47.9,36.5,48z"/>
			<path class="st15" d="M34.3,54.3c0.5,0.4,1,0.8,1.5,1.1c0.8,0.5,1.5,0.6,1.9-0.4c0.8,0.6,0.8,1.5,0.7,2.4
				c-0.1,0.7-0.2,1.5-0.3,2.2c-0.8,0.4-1.7,0.6-2.6,0.7c0-0.5,0.5-0.6,0.8-0.9c1.3-1.3,1.1-2.4-0.6-3.2
				C34.9,55.8,34.2,55.4,34.3,54.3z"/>
			<path class="st14" d="M31.6,45.6c0,0.2,0.1,0.3,0.1,0.5c-0.4,0.5-0.5,1.1-0.5,1.8c0,0.5-0.3,0.7-0.7,0.6c0-0.5,0-1-0.5-1.4
				c-0.1-0.6-0.4-1.1,0-1.7C30.6,45.5,31.1,45.6,31.6,45.6z"/>
			<path class="st7" d="M33.7,51.6c0.3,0,0.7,0.1,0.7-0.2c-0.1-1.8,1.4-0.9,2.1-1.3c-1.1,2.1-1.3,2.3-2.8,1.9
				C33.7,51.9,33.7,51.8,33.7,51.6z"/>
			<path class="st11" d="M35.5,60.3c0.9-0.1,1.8-0.3,2.6-0.7c0,0.2,0,0.5,0,0.7c-1,0.1-1.6,0.5-1.2,1.7c0.1,0.2,0,0.5,0,0.7
				c-0.5-0.2-0.5-1-1.2-1C35.7,61.2,35.6,60.7,35.5,60.3z"/>
			<path class="st10" d="M30.5,48.5c0.5,0.1,0.7-0.1,0.7-0.6c0-0.6,0.1-1.2,0.5-1.8c0.3,0.8,0.1,1.7,0.3,2.5
				c-0.6,0.2-0.1,1.2-0.7,1.2C30.8,49.7,30.8,48.9,30.5,48.5z"/>
			<path class="st21" d="M26.6,29.1c0.2,0.3,0.8,0.2,0.7,0.7c0,0-0.1,0-0.1,0s-0.1,0-0.1,0c-1.2,0.5-1.6-0.4-1.9-1.2
				C25.7,28.7,26.2,28.9,26.6,29.1z"/>
			<path class="st17" d="M23.2,27.9c-0.6-0.5-1.2-1-1.6-1.7C23,26.4,23.5,26.9,23.2,27.9z"/>
			<path class="st21" d="M27.1,30.8c0,0.4,0,0.7,0,1.1c-0.2-0.3-0.5-0.5-0.7-0.8C26.5,30.7,26.9,30.8,27.1,30.8z"/>
			<path class="st11" d="M19.6,23.3c-0.1-0.1-0.2-0.2-0.3-0.3C19.5,23,19.5,23.2,19.6,23.3z"/>
			<path class="st14" d="M48.5,79.1c0.2-0.1,0.5-0.1,0.7-0.2c0.4,0.7,0.1,1.6,0.7,2.2c-0.1,0.4,0.1,0.9-0.4,0.9
				c-0.7,0-1.6,0.6-2.2-0.2c-0.5-0.5-0.9-1-1.4-1.4c0.2-0.2,0.5-0.4,0.7-0.5c0.4,0,0.6-0.2,0.9-0.4C47.8,79.4,48.1,79.3,48.5,79.1z"
				/>
			<path class="st9" d="M44.1,81.3c-0.6,0-0.9,0.7-1.4,0.8c0-0.2,0-0.4-0.2-0.5c0.3-0.8-0.2-1.5-0.5-2.2c0-0.1,0-0.2,0-0.2
				c0.5-0.5,1.3,0.2,1.7-0.5c1.3,0.4,0.4,1.4,0.7,2.2C44.3,81,44.2,81.2,44.1,81.3z"/>
			<path class="st8" d="M45.8,80.5c0.5,0.5,0.9,1,1.4,1.4c0.7,0.7,1.5,0.2,2.2,0.2c0.6,0,0.4-0.6,0.4-0.9c0.7,0.8,0.5,1.4-0.4,1.7
				c-1.5,0.4-2.7,0.2-3.6-1.2c-0.2-0.4-0.8-0.4-1-0.7c0.2-0.2,0.5-0.3,0.7-0.5C45.7,80.4,45.8,80.4,45.8,80.5z"/>
			<path class="st17" d="M45.6,80.4c-0.2,0.2-0.5,0.3-0.7,0.5c-0.2,0-0.3,0-0.5,0c-0.2-0.7,0.6-1.8-0.7-2.2c0-0.3,0-0.6,0-0.9l0,0
				c0.3,0.1,0.3,0,0.2-0.2l0,0c0.3,0.1,0.2-0.1,0.3-0.3c0.1,0,0.1,0,0.2,0C44.9,78.3,45.7,79.2,45.6,80.4z"/>
			<path class="st6" d="M45.8,83.3c-0.5,0-1,0-1-0.7C45.4,82.5,45.8,82.7,45.8,83.3z"/>
			<path class="st9" d="M39.1,60.9c-0.1-0.6-0.2-1.2-0.4-1.8c-0.1-0.5,0.1-0.8,0.5-1.1c0.4-0.3,0.7-0.1,1.1,0.2
				c0.3,0.3,0.5,0.7,0.9,0.6c0,0,0,0,0,0c0,0.1,0,0.2,0,0.2c0.9,0.9,1.8,1.9,2.7,2.8c0.4,0.4,0.5,1.2,1.3,1.2
				c0.3,0.4,0.5,0.8,0.8,1.2c-0.5,0.7-0.8,1.4-1.4,2c-0.3,0.3-0.5,0.5-0.9,0.5c-0.3-0.4-0.6-0.8-0.9-1.2c-0.3-0.6-0.6-1.1-1.2-1.5
				c0.1-0.7-0.8-0.9-1-1.4C40.2,62.2,40.1,61.1,39.1,60.9z"/>
			<path class="st21" d="M41.5,73.7c-0.1,0.1-0.2,0.3-0.3,0.4c-1.2,0-1.6,1.2-2.6,1.5c-0.1,0-0.1,0-0.2,0c0-0.2,0-0.3,0-0.5
				c0-0.2,0.1-0.5-0.2-0.6c-0.3-0.1-0.4,0.2-0.5,0.4c-0.1,0.1-0.2,0.2-0.2,0.3c-0.1,0-0.2,0-0.2,0c0-0.3-0.1-0.6-0.1-0.9
				c0-0.2-0.1-0.4,0-0.6c0.1-0.7,0.5-1,1.1-1c0.7-0.1,0.4,0.6,0.6,1c0.4-0.4,0.5-0.8,0.7-1.3C40,72,40,71.1,40.8,71
				C41.9,71.5,42,71.8,41.5,73.7z"/>
			<path class="st12" d="M37,62.7c0-0.2,0.1-0.5,0-0.7c-0.5-1.2,0.2-1.5,1.2-1.7c0.3,0.4,0.3,0.9,0.3,1.4c-0.4-0.1-0.1-0.7-0.7-0.8
				c0,0.5-0.1,1,0.4,1.2c0,0.2,0,0.5,0,0.7c-0.1,1.2,0.6,1.8,1.7,1.4c0.2,0,0.5,0,0.7,0c0,0,0.1,0,0.1,0l0.1,0
				c0.2,0.3,0.3,0.6,0.5,1c-0.9,0.2-0.4,0.7-0.2,1c0.5,0.7,0.4-0.7,0.9-0.3c0.2,0.3,0.5,0.5,0.5,0.9c-0.7,0.4-1.3,0.8-2.1,0.1
				c-0.2-0.2-0.3,0.2-0.3,0.4c0,0.8,0,1.6,0,2.4l0,0c-0.3-0.2-0.4-0.5-0.8-0.5c0-0.4,0-0.9,0.1-1.3c0.2-0.6,0.5-1.3,0.5-2
				c0.2-0.3,0.6-0.4,0.3-0.9c-0.3-0.5-0.5-0.1-0.7,0c-0.4,0.2-0.7-0.1-1-0.3c-0.3-0.2-0.5-0.6-1-0.6C37.2,63.8,37.3,63.1,37,62.7z"
				/>
			<path class="st16" d="M41.3,65.3c-0.2-0.3-0.3-0.6-0.5-1c0.3-0.1,0.9,0.6,1-0.3c0.5,0.4,0.9,0.9,1.2,1.5c-0.5,0.4-0.1,0.6,0.1,1
				c0.2,0.6-0.2,0.4-0.5,0.4c0-0.4-0.4-0.6-0.5-0.9C41.9,65.7,41.5,65.6,41.3,65.3z"/>
			<path class="st9" d="M31.2,22.4c0.5,0,0.9,0.3,1.4,0.2c0.5-0.1,0.5,0.6,1,0.5l0,0c0.1,0.1,0.2,0.2,0.2,0.2c0.5,0.5,0.7,1,0.4,1.6
				c-0.5,0.4-1.4,0-1.7,1.2c-0.2,0.8-1,1.4-0.8,2.4c-0.5,0.3-1,0.7-1.6,1c0-0.2,0-0.4-0.1-0.7l0,0c0.3-0.7,0.3-1.5,0.4-2.3
				C30.8,25.3,30.7,23.8,31.2,22.4z M32.5,24.8C32.4,24.8,32.4,24.8,32.5,24.8C32.4,24.9,32.4,24.9,32.5,24.8
				C32.4,24.9,32.4,24.9,32.5,24.8C32.5,24.9,32.5,24.9,32.5,24.8z"/>
			<path class="st12" d="M30.1,29.7c0.5-0.3,1-0.7,1.6-1c0.2-0.1,0.3-0.2,0.5-0.3c0.1-0.1,0.2-0.2,0.2-0.2c0.1-0.1,0.2-0.1,0.3-0.2
				c0.1,0,0.2,0,0.3,0c0,0.9,0.6,0.6,1.1,0.6c0.1,0.6-0.2,1.2,0.2,1.8c0.2,0.2-0.2,0.4-0.4,0.4c-0.1,0-0.3,0-0.4,0
				c-0.5-0.7-0.7-0.2-0.8,0.3c-0.3,0-0.6,0-0.7-0.4c0.1-0.1,0.3-0.2,0.4-0.4c0.2-0.2,0.7-0.3,0.5-0.7c-0.2-0.4-0.6-0.2-0.9-0.1
				c-0.6,0.2-1.1,0.5-1.7,0.8c-0.1,0-0.2,0-0.2,0C30,30.1,30,29.9,30.1,29.7L30.1,29.7z"/>
			<path class="st21" d="M32.2,28.3c-0.2,0.1-0.3,0.2-0.5,0.3c-0.2-1,0.6-1.7,0.8-2.4c0.3-1.2,1.2-0.8,1.7-1.2c0,0.2,0,0.3,0,0.5
				c-0.8,0.2-0.3,0.6-0.2,1c-0.8,0.1-1.4,0.5-1.4,1.4c-0.1,0.1-0.2,0.1-0.3,0.2C32.3,28.2,32.2,28.3,32.2,28.3z"/>
			<path class="st18" d="M33.8,30.8c0.2,0,0.6-0.2,0.4-0.4c-0.4-0.6-0.1-1.2-0.2-1.8c0-0.3,0.1-0.6,0.3-0.9c0.2,0,0.5,0,0.7,0
				c0.1,0.7,0.1,1.5,0.2,2.2c-0.6,0-0.4,0.4-0.4,0.8c0,0.3,0,0.6-0.4,0.6C34,31.2,33.9,31.1,33.8,30.8z"/>
			<path class="st22" d="M34.3,27.6c-0.1,0.3-0.3,0.6-0.3,0.9c-0.5,0-1.1,0.2-1.1-0.6C33.4,27.8,33.8,27.3,34.3,27.6z"/>
			<path class="st10" d="M33.6,23.1c-0.5,0.1-0.5-0.7-1-0.5c0-0.1,0-0.1,0-0.2c0-0.1,0-0.2,0-0.3c0,0,0,0,0,0c0.5,0,1.1-0.7,1.5,0.2
				C33.4,22.3,33.3,22.6,33.6,23.1z"/>
			<path class="st18" d="M33.6,23.1c-0.3-0.5-0.2-0.8,0.5-0.8c0.1,0.2,0.4,0.5,0,0.7C33.9,23.1,33.7,23.1,33.6,23.1L33.6,23.1z"/>
			<path class="st7" d="M34.1,26.5c-0.1-0.4-0.6-0.8,0.2-1C34.3,25.8,34.5,26.2,34.1,26.5z"/>
			<path class="st14" d="M36,25.5c0,0.3,0,0.7-0.5,0.7C35.4,25.8,35.6,25.5,36,25.5z"/>
			<path class="st10" d="M33.6,23.1c0.2,0,0.3,0,0.5,0c-0.1,0.1-0.2,0.2-0.3,0.2C33.7,23.2,33.7,23.2,33.6,23.1z"/>
			<path class="st18" d="M30.1,29.7C30.1,29.7,30,29.7,30.1,29.7c-0.2,0.1-0.3,0.1-0.4,0.1c0-0.2,0-0.3,0-0.5c0,0,0.1,0,0.1,0
				c0.1-0.1,0.2-0.2,0.3-0.3c0,0,0,0,0,0C30.1,29.2,30.1,29.4,30.1,29.7z"/>
			<polygon class="st12" points="30.1,29 30.1,29 30.1,29 			"/>
			<path class="st21" d="M44.6,46.6c0.2,0.5,0.4,1.1,0.6,1.6c-0.1,0.2-0.1,0.5-0.4,0.6c-0.2-0.4-0.5-0.8-0.7-1.2
				c0-0.3-0.2-0.6-0.5-0.7l0,0c0-0.3-0.1-0.6-0.5-0.7l0,0c-0.5-0.8-0.5-1.7-1.2-2.4c0-0.1,0-0.3,0-0.4c0.9,0,1.1,0.8,1.5,1.4
				c0.3,0.3,0.5,0.7,0.7,1c0,0.1,0,0.2,0.1,0.2C44.4,46.1,44.4,46.4,44.6,46.6z"/>
			<path class="st15" d="M42,43.2c0,0.1,0,0.3,0,0.4c-0.1,0.3,0.1,0.7-0.3,1c-0.2-0.3-0.3-0.8-0.7-1c-0.5-0.6-1-1.1-1.4-1.7
				c-0.1-0.3-0.1-0.6-0.2-1c0.2,0,0.4,0,0.6,0c0.2,0.2,0.3,0.3,0.5,0.5C40.6,42.6,41.7,42.6,42,43.2z"/>
			<path class="st7" d="M40.5,41.6c-0.2-0.2-0.3-0.3-0.5-0.5c0-0.4-0.4-0.5-0.6-0.8c-0.2-0.3-0.5-0.6-0.6-1
				c-0.2-0.4-0.2-0.7,0.4-0.7c0.1,0.1,0.3,0.1,0.4,0.2c0.3,0.1,0.4,0.6,0.8,0.5c0,0,0.1,0,0.1,0c-0.2,0.5,0.2,0.9,0.3,1.3
				C40.8,41,41.3,41.5,40.5,41.6z"/>
			<path class="st19" d="M41.2,39.4c1-0.2,1.6,0.5,2.4,0.8c0.2,0.1,0.4,0.4,0.3,0.6c-0.2,0.4-0.5,0.1-0.7,0
				c-0.3-0.2-0.5-0.5-0.9-0.4C41.9,40,41.4,39.9,41.2,39.4z"/>
			<path class="st12" d="M44.3,45.9c0-0.1,0-0.2-0.1-0.2C44.5,45.7,44.6,45.7,44.3,45.9z"/>
			<path class="st19" d="M44.8,44.7c0-0.1-0.1-0.1-0.1-0.2C44.8,44.6,44.9,44.6,44.8,44.7C44.9,44.7,44.8,44.7,44.8,44.7z"/>
			<path class="st6" d="M35.3,106.3c0.4,0,0.7,0.3,0.7,0.7C35.5,107,35.3,106.8,35.3,106.3z"/>
			<path class="st6" d="M30.2,101.1c0.5,0,0.7,0.3,0.7,0.7C30.5,101.7,30.3,101.5,30.2,101.1z"/>
			<path class="st5" d="M29.8,99.1c-0.8-1-1.7-1.8-2.6-2.6c0-0.3-0.2-0.5-0.5-0.5c-0.2-0.2-0.5-0.5-0.7-0.7c0-0.5-0.4-0.5-0.7-0.6
				c-0.3-0.4-0.2-0.9-0.7-1.1c-0.3-0.6-0.1-1.1,0.1-1.7c1.2-3,2.4-6,3.6-8.9c0.2-0.5,0.4-1,0.4-1.6c0.8-0.6,0.7-1.7,1.2-2.5
				c0.3-0.4,0.4-0.8,0.6-1.3c0.4,0.3,0.7,0.8,1.3,0.8c1.1,1.1,2.1,2.3,3.5,3c0.2,0.2,0.4,0.4,0.6,0.5c0.1,0.3,0.3,0.4,0.6,0.5
				c0.2,0.4,0.6,0.6,0.9,0.8c0.7,1.1,0,2.4,0.3,3.6c0,0.6,0,1.1,0,1.7c-0.4,1-0.2,2.1-0.1,3.1c-0.1,1.7-0.1,3.5-0.2,5.2
				c-0.2,1.2-0.1,2.4-0.1,3.6c-0.3,0.3-0.2,0.6-0.1,1c-0.1,0.5-0.1,0.9-0.1,1.4c0,0.1,0,0.2,0,0.3c0,0.8-0.1,1.6-0.1,2.4
				c-0.6,0.5-0.8-0.2-1-0.4c-1.7-1.7-3.4-3.5-5.1-5.2C30.6,99.6,30.3,99.1,29.8,99.1z M32.6,95c0.1-0.2,0.2-0.5,0.2-0.7
				c0.3-1.3-0.7-1.7-1.4-2.3c-0.6,0-0.6-0.9-1.2-0.8c-0.3-0.5-0.4-1.3-1.3-0.7c-0.1,0-0.1,0-0.2,0c-0.1-0.3,0.2-0.7-0.2-1
				c-0.9,1-0.9,1-0.8,1.7c0.1,0,0.3,0,0.4,0c0.1,0.2,0,0.4,0.3,0.5c0.1,0,0.1,0,0.2,0c0.3,0.4,0.5,0.8,1,1c0.8,0.8,1.4,1.6,2.4,2.2
				c0,0.1,0,0.2,0,0.2c0.3,0.6,0.7,0.9,1.5,1.1C33.4,95.6,33,95.3,32.6,95z M30.5,88.1c0.2,0,0.5,0.1,0.6-0.2c0-0.3-0.3-0.2-0.5-0.3
				c-0.2-0.4-0.4-0.2-0.6,0.1c-0.3,0.3-0.4,0.8-1,0.7c-0.1-0.5,0.2-0.9,0.4-1.4c0.3-0.6-0.3-0.8-0.5-1.2c-0.1-0.2-0.4-0.1-0.5,0.1
				c-0.2,0.4-0.4,0.8,0.2,1.1c0.4,0.2,0.2,0.6,0.1,0.8c-0.2,0.4,0,0.5,0.3,0.5c0.1,0.6,0.6,0.8,1.1,1.2C30.3,89,30.4,88.5,30.5,88.1
				z M32.1,91c0,0.2,0.1,0.4,0.3,0.4c0.4,0.4,0.8,1,1.4,1.2c0.3,0.1,0.7,0.8,1,0c0.2-0.4,0.6-1.1-0.4-1.2c-0.2-0.3,0.1-0.7-0.3-1
				c-0.7-0.2-0.8-1.1-1.6-1.2c0-0.4-0.3-0.7-0.7-0.7c-0.5,0-0.1,0.6-0.3,0.8c-0.1,0.1,0,0.4,0,0.6C31.4,90.5,31.4,91,32.1,91z
				 M33.8,88.6c0.1,0.2-0.2,0.8,0.5,0.5c0.3-0.1,1,0.3,0.9-0.3c0-0.7-0.5-1.4-1.1-1.8c-0.3-0.2-0.4,0.5-0.5,0.8
				c-0.3,0-0.7-0.1-0.8,0.3c0,0.2,0.2,0.8,0.7,0.4C33.7,88.6,33.8,88.6,33.8,88.6z M32.1,86.6c-0.2-1.4-1.2-2.3-2.2-3.2
				c-0.2,0.8-1,1.4,0.1,2.2c0.6,0.4,1.4,0.7,1.7,1.5c0,0.4,0.4,0.6,0.6,0.4C32.9,87.2,32,87,32.1,86.6z M33.6,83.3
				c-0.1-0.3-0.1-0.7-0.5-0.7c-0.6,0.1-0.6,0.8-0.7,1.2c-0.1,0.3,0,0.6,0.4,0.6C33.5,84.4,33.5,83.8,33.6,83.3z M34.9,84.1
				c-0.5,0.4-0.2,1.1-0.6,1.4c-0.1,0.1-0.2,0.3,0,0.4c0.1,0.1,0.3,0.1,0.4-0.1C35,85.2,35.2,84.7,34.9,84.1z M32.8,86.7
				c0-0.1,0-0.2-0.1-0.2c0,0-0.1,0-0.2,0c0,0.1,0,0.1,0.1,0.2C32.7,86.7,32.8,86.7,32.8,86.7z M31,88.6c-0.1,0-0.1,0-0.2,0.1
				c0,0,0,0.1,0,0.2c0.1,0,0.1,0,0.2-0.1C31,88.8,31,88.7,31,88.6z"/>
			<path class="st7" d="M39.3,68c0,0.4,0,0.9-0.1,1.3c-0.6,0-0.5,0.4-0.7,0.8c-0.1,0.4-0.4,0.5-0.7,0.2c0-0.4,0-0.9,0-1.3
				C37.9,67.5,38.1,67.4,39.3,68z"/>
			<path class="st11" d="M37.5,64.3c0.4,0,0.6,0.4,1,0.6c0.3,0.2,0.6,0.4,1,0.3c0.2-0.1,0.4-0.5,0.7,0c0.3,0.5-0.1,0.6-0.3,0.9
				C38.9,65.7,37.7,65.6,37.5,64.3z"/>
			<path class="st8" d="M39.1,38.7c-0.5,0-0.6,0.3-0.4,0.7c0.2,0.3,0.4,0.6,0.6,1c0,0.2,0,0.3,0,0.5c-1,0-0.8-1.1-1.4-1.5
				c-0.2-0.5-0.2-1-0.8-1.2c-1.5-0.3-0.2,0.7-0.6,1.1c-0.1,0.5-0.7-1-0.8,0c-0.1,0-0.2,0-0.3,0c0-0.1-0.1-0.1-0.1-0.2
				c0,0.1-0.1,0.1-0.1,0.2c-0.1,0.1-0.2,0.1-0.3,0.2c-0.7-0.1-1.3,0.2-2,0.3c-0.7,0.2-1.4,0.4-2.1,0c0.1-0.2,0.2-0.4,0.4-0.6
				c0.3,0.2,0.5,0.2,0.8,0c1.4-0.6,2.9-1.2,4.2-1.9c0.6-0.3,1.2-0.5,1.8-0.2c0.1,0.3,0.4,0.4,0.7,0.4C39.1,37.8,39.5,38.2,39.1,38.7
				z"/>
			<path class="st13" d="M38.9,37.5c-0.3,0-0.6-0.1-0.7-0.4c0.1-0.8-0.7-0.6-1-1c0.5-0.3,0.8-0.9,1.5-0.8c0.4,0.6,0.2,1.3,0.3,2
				C38.9,37.3,38.9,37.4,38.9,37.5z"/>
			<path class="st16" d="M40.3,39.4c-0.4,0.1-0.5-0.4-0.8-0.5C40,38.4,40.1,38.5,40.3,39.4z"/>
			<path class="st19" d="M13.7,8.7c0-0.5,0-1,0-1.5c0.5-0.1-0.6-0.7,0.2-0.7c0,0,0.1,0,0.1,0l0.1,0c0.2,0,0.3,0,0.5,0
				c-0.3,0.6,0.4,0.8,0.5,1.2c0.1,0.5-0.2,0.7-0.5,0.9c-0.1,0-0.1,0.1-0.2,0.1c0-0.2-0.1-0.4-0.1-0.6c-0.3,0.1-0.2,0.4-0.2,0.5
				C14,8.7,13.9,8.7,13.7,8.7z"/>
			<path class="st20" d="M14.2,8.7c0-0.2-0.1-0.4,0.2-0.5c0,0.2,0.1,0.4,0.1,0.6C14.3,8.9,14.2,8.8,14.2,8.7z"/>
			<path class="st12" d="M40.1,69.9c0,0,0.1,0,0.1,0.1C40.1,69.9,40.1,69.9,40.1,69.9C40.1,69.9,40.1,69.9,40.1,69.9z"/>
			<path class="st9" d="M37.2,36.1c0.3,0.3,1.1,0.2,1,1c-0.6-0.3-1.2-0.1-1.8,0.2c-1.4,0.7-2.8,1.3-4.2,1.9c-0.3,0.1-0.5,0.1-0.8,0
				c0,0,0,0,0,0c0-0.1,0-0.1-0.1-0.2c-0.1-0.4,0.3-0.6,0.4-1c0.6-0.4,1.1-0.9,1.9-1c0.6-0.1,0.7-0.4,0.1-0.7
				c-0.1-0.3,0.1-0.4,0.2-0.6c0.2-0.1,0.5-0.1,0.7-0.2c0.6,0.2,1.2-0.3,1.8-0.2C36.5,35.7,36.7,36,37.2,36.1z"/>
			<path class="st7" d="M36.5,33.7c0.6,0,1.2-0.6,1.8,0c-0.6,0.1-0.3,1.2-1.1,1.2c-0.3-0.2-0.6-0.3-1-0.3c0-0.1,0-0.1,0-0.2l0,0
				C36.5,34.2,36.5,33.9,36.5,33.7z"/>
			<path class="st6" d="M36.2,34.6c0.4,0,0.7,0.1,1,0.3c0,0.6-0.5,0.5-0.9,0.5c-0.6-0.1-1.2,0.4-1.8,0.2c0.1-0.1,0.2-0.3,0.2-0.4
				c0.2-0.1,0.3-0.2,0.5-0.3c0.4,0.4,0.4,0,0.5-0.3C35.9,34.6,36.1,34.6,36.2,34.6z"/>
			<path class="st21" d="M35.3,81.5c-1.4-0.7-2.4-1.9-3.5-3c0.6-0.1,0.7-0.8,1.1-1.1c0.9-0.9,0.9-0.9,1.7-0.1
				c0.1,0.1,0.2,0.2,0.2,0.2c0,0,0,0,0,0c-0.1,0.9,0.7,1.1,1.2,1.6c0,0.3,0,0.5-0.1,0.9c-0.2-0.1-0.3-0.3-0.3-0.2
				c-0.5,0.2-0.4-0.9-0.9-0.5c-0.4,0.4-0.3,1,0.1,1.4c0.1,0.2,0.3,0.2,0.5,0.4C35.3,81.3,35.3,81.4,35.3,81.5z"/>
			<path class="st10" d="M36,79.2c-0.5-0.5-1.3-0.7-1.2-1.6c0.3,0,0.6,0,1,0c0,0,0,0,0,0c-0.3,0.9,0.7,1.1,1,1.7
				c-0.1,0.1-0.2,0.2-0.2,0.2C36.3,79.3,36.2,79.2,36,79.2z"/>
			<path class="st18" d="M35.8,77c0.1-0.2,0.2-0.3,0.3-0.5c0.1,0,0.2,0,0.2,0c0,0.3,0,0.6,0,0.9c-0.2,0-0.3,0-0.5,0c0,0,0,0,0,0
				C35.8,77.4,35.8,77.2,35.8,77z"/>
			<path class="st10" d="M34.8,77.5c-0.1-0.1-0.2-0.2-0.2-0.2C34.7,77.4,34.7,77.5,34.8,77.5z"/>
			<path class="st7" d="M45.6,54.2c-0.3,0-0.7,0.2-0.7-0.3c0.1-0.2,0.2-0.4,0.3-0.6c0.3,0,0.7,0.2,0.7-0.3c0.4-0.3,0.2-0.7,0.2-1.1
				c0.2,0,0.3,0,0.5,0c0.2,0.6,0.5,1.3,0.7,1.9c-0.4,0.2-0.6,0.8-1.2,0.7c0,0,0,0,0,0C46,54.2,46,53.8,45.6,54.2z"/>
			<path class="st21" d="M45.6,80.4c0.1-1.2-0.7-2.2-1.2-3.2c0.3-0.5,0-0.9,0-1.4c1.2,0.3,1.8,1,1.7,2.3c-0.1,0.7,0.6,1.1,0.5,1.8
				c-0.2,0.2-0.5,0.4-0.7,0.5C45.8,80.4,45.7,80.4,45.6,80.4z"/>
			<path class="st13" d="M44.4,75.9c0,0.5,0.2,1,0,1.4c-0.1,0-0.1,0-0.2,0c-0.2,0-0.2,0.1-0.3,0.3c0,0,0,0,0,0
				c-0.2,0-0.2,0.1-0.2,0.2c0,0,0,0,0,0c-0.4,0.1-0.7,0.5-1.2,0.5c0.4-1,0-1.3-1-1.2c-0.1,0-0.2,0-0.3,0c-0.3-0.1-0.1-0.2,0-0.3
				c0.4-0.6,1-0.4,1.5-0.2c0.9,0.4,1.3,0,1.3-0.9c0-0.1,0-0.2,0-0.3C44.1,75.5,44.2,75.7,44.4,75.9z"/>
			<path class="st18" d="M46.6,51.9c-0.2,0-0.3,0-0.5,0c-0.4-1-0.8-2.1-1.2-3.1c0.3-0.1,0.3-0.4,0.4-0.6c0.6,0.1,0.6,0.5,0.6,0.9
				c0,0.4-0.2,0.9,0.4,1.1C46.6,50.7,46.3,51.3,46.6,51.9z"/>
			<path class="st12" d="M14.2,6.5l-0.1,0c0,0-0.1,0-0.1,0c0-0.2-0.4-0.4-0.1-0.5C14.1,5.9,14.2,6.3,14.2,6.5z"/>
			<path class="st9" d="M31,39.6c0.7,0.4,1.4,0.2,2.1,0c0.7-0.1,1.3-0.4,2-0.3c0,0.5,0.1,1,0.1,1.5c0,0.2-0.1,0.3-0.1,0.5
				c-1,0.8-2.3,0.9-3.4,1.5c-0.6-0.7-1.2-1.3-1.8-2c0.5-0.3,0.5-0.8,0.8-1.2C30.8,39.6,30.9,39.6,31,39.6z"/>
			<path class="st18" d="M31.7,37.9c-0.1,0.3-0.5,0.5-0.4,1c-0.1,0-0.2,0-0.3,0c-0.7-0.9-2-0.8-2.7-1.7c0.8,0,1.6-0.1,1.5-1.2
				c0.2,0,0.5,0,0.7,0.1C30.5,36.9,31.6,37.1,31.7,37.9z"/>
			<path class="st13" d="M30.7,39.6c-0.3,0.4-0.3,0.9-0.8,1.2c-0.4-0.2-0.9-0.5-1.3-0.7c-0.1,0-0.2,0-0.2,0
				c-0.1-0.1-0.2-0.2-0.2-0.2c0-0.1,0-0.2,0-0.2c0-0.4,0.1-0.7,0.2-1c0.2,0.1,0.5,0.1,0.7,0.2C29.6,39.1,30.3,39.1,30.7,39.6z"/>
			<path class="st22" d="M29,38.8c-0.2-0.1-0.5-0.1-0.7-0.2c-0.2-0.3-0.7-0.1-1-0.4C27.9,37.8,28.2,38,29,38.8z"/>
			<path class="st8" d="M31,38.9c0.1,0,0.2,0,0.3,0c0.1,0.1,0.1,0.1,0.1,0.2C31.2,39,31.1,39,31,38.9z"/>
			<path class="st18" d="M28.1,30.3c0.3-0.1,0.6-0.1,1-0.2c0.2,0.4,0.5,0.9,0.5,1.4c0,0.2,0,0.5,0,0.7c0,0.1-0.1,0.1-0.1,0.2
				c-0.1,0.1-0.3,0.1-0.4,0.2c-0.2,0.1-0.5,0.2-0.7,0.3C27.4,32.1,28.1,31.2,28.1,30.3z"/>
			<path class="st14" d="M28.4,32.9c0.2-0.1,0.5-0.2,0.7-0.3c0,0.7,0.4,0.8,1,0.8l0,0c0,0.2,0,0.3,0,0.5c0,0.2,0,0.4,0,0.5
				c-1.2,0.4-1.1-0.9-1.7-1.3C28.3,33.1,28.3,33,28.4,32.9z"/>
			<path class="st11" d="M28.3,33.1c0.6,0.4,0.5,1.7,1.7,1.3c0,0.3,0.3,0.8-0.4,0.6c-0.3-0.1-0.5-0.1-0.8-0.2c0,0,0,0,0,0
				c-0.1-0.2-0.2-0.4-0.5-0.5C28.1,33.9,27.5,33.6,28.3,33.1z"/>
			<path class="st10" d="M28.8,34.8c0.3,0.1,0.5,0.1,0.8,0.2c0.7,0.2,0.4-0.3,0.4-0.6c0-0.2,0-0.4,0-0.5c0.1,0,0.2,0,0.2-0.1
				c0.5,0.1,0.9,0,1.1-0.5c0.2,0,0.4,0,0.6,0c0,0.4-0.2,0.8,0.1,1.2c-0.4,0.6-1.4-0.3-1.6,0.7c0,0.3,0,0.5,0,0.8l0,0.1
				c-0.2,0-0.5,0-0.7-0.1C29.4,35.6,29.1,35.2,28.8,34.8z"/>
			<path class="st20" d="M45.3,63.1c-0.8,0-0.9-0.8-1.3-1.2c-0.9-0.9-1.8-1.9-2.7-2.8c0.2-0.1,0.2-0.2,0-0.2c0,0,0,0,0,0
				c0.1-0.4-0.7-1.2,0.5-1c0.7,0.4,1.1,1.1,1.8,1.3c0.1,0.1,0.2,0.1,0.3,0.2c0,0.1,0.1,0.2,0.3,0.2c0,0.5,0.3,0.6,0.7,0.7
				c0.1,0.1,0.1,0.2,0.2,0.3c0.1,0.1,0.2,0.1,0.2,0.2c0.1,0.2,0.3,0.3,0.5,0.3c0.1,0.1,0.2,0.1,0.3,0.2c0,0.2,0.1,0.2,0.2,0.2
				c0,0.1,0,0.3,0.1,0.4c-0.3,0.5-0.7,0.1-1.1,0.1C44.9,62.4,45.9,62.8,45.3,63.1z"/>
			<path class="st15" d="M45.6,54.2c0.4-0.4,0.4,0,0.5,0.3c-0.1,0-0.3,0.1-0.4,0.1C45.6,54.5,45.6,54.3,45.6,54.2z"/>
			<path class="st7" d="M47,58.1c-0.1-0.1-0.2-0.2-0.2-0.3C46.9,57.9,47,58,47,58.1z"/>
			<path class="st18" d="M37.1,74.2c0,0.3,0.1,0.6,0.1,0.9c0,0,0,0,0,0c-0.2,0-0.4,0-0.5,0.2c-0.1,0-0.2,0-0.2,0c0-0.4,0-0.8,0-1.3
				C36.7,74.1,36.9,74.2,37.1,74.2z"/>
			<path class="st8" d="M28.6,40.1c0.4,0.2,0.9,0.5,1.3,0.7c0.6,0.7,1.2,1.3,1.8,2c0,0.5,0,1.1,0,1.6c0,0,0,0,0,0
				c-0.7-0.4-1.3,0.1-1.9,0.3c0-0.2,0-0.3,0-0.5c0-0.5,0-1.1,0.1-1.6c0.1-0.3,0.2-0.7-0.1-0.8c-0.5-0.2-0.3,0.5-0.7,0.6
				c-0.6-0.1,0-1.1-0.8-1.1C28.4,40.9,28.5,40.5,28.6,40.1z"/>
			<path class="st10" d="M29.8,44.7c0.6-0.2,1.2-0.7,1.9-0.3c0,0.4,0,0.8-0.1,1.2c-0.5-0.1-1.1-0.2-1.6-0.3
				c-0.2-0.2-0.6-0.2-0.6-0.5C29.4,44.7,29.6,44.7,29.8,44.7z"/>
			<path class="st6" d="M32.6,22.1c0,0.1,0,0.2,0,0.3C32.5,22.3,32.4,22.2,32.6,22.1z"/>
			<path class="st9" d="M32.1,34.6c-0.3-0.4-0.1-0.8-0.1-1.2c0.8-0.5,0.7-1.2,0.6-2c0-0.2,0-0.3,0-0.5c0.2-0.5,0.3-1,0.8-0.3
				c0,0.5-0.3,1.1,0.2,1.3c0.5,0.2,0.6-0.4,0.7-0.8c0.5,0,0.5-0.3,0.4-0.6c0-0.3-0.2-0.7,0.4-0.8c0,0.1,0.1,0.1,0.1,0.2
				c0.1,1.1,1,2,1,3.1c-0.1,0.2,0,0.4,0.2,0.5c0,0.2,0.1,0.5-0.2,0.7c0,0-0.1,0-0.1-0.1c0,0,0.1,0,0.1,0.1c0,0.1,0,0.1,0,0.2
				c-0.2,0-0.3,0-0.5,0c-0.1-0.2-0.3-0.3-0.5-0.2c-0.3,0.1,0,0.3,0,0.5c-0.2,0.1-0.3,0.2-0.5,0.3c-0.1,0-0.3,0-0.4,0
				c-0.1,0-0.2,0-0.3,0c-0.1,0-0.2,0-0.4,0c-0.1,0-0.2-0.1-0.3-0.1c0-0.1,0-0.1,0-0.2C33.1,33.9,32.5,34.8,32.1,34.6z"/>
			<path class="st20" d="M43.9,75.6c0,0.9-0.3,1.3-1.3,0.9c-0.5-0.2-1-0.4-1.5,0.2c-0.1,0.1-0.3,0.2,0,0.3c0.1,0,0.2,0,0.3,0
				c0,0.4-0.5,0.8,0,1.2c0,0.2,0.1,0.4,0.3,0.5c0,0.1,0,0.2,0,0.2c0,0-0.1,0.1-0.1,0.1c0.1,0,0.1,0,0.2,0.1c0.1,0,0.1,0,0.2,0.1
				c0,0.1,0,0.2,0,0.2c-0.8,0-1.6-0.3-2.4-0.3c-0.8,0-1.3-0.6-1.3-1.4c0.5,0.3,1.1,0.5,1.5,1.1c0-0.3,0-0.6,0-0.8
				c0.2,0,0.5,0.1,0.6-0.2c0,0-0.1-0.2-0.1-0.2c-0.3-0.1-0.4,0.2-0.5,0.4c-0.7,0-0.9-0.9-1.6-0.7c-0.2-0.1-0.4-0.3-0.7-0.2
				c0-0.3,0-0.5,0-0.8c0.5,0.1,0.4-0.5,0.8-0.7c0.1,0.2,0.3,0.2,0.5,0.2c0,0.2-0.5,0.2-0.2,0.5c0.2,0.2,0.4,0.4,0.7,0.2
				c0.9-0.6,1.8-1,2.8-1.2c0,0,0-0.1,0.1-0.2C42.6,75.3,43.3,75.5,43.9,75.6z"/>
			<path class="st13" d="M42,75.1c0,0.1,0,0.2-0.1,0.2c-1,0.2-1.9,0.7-2.8,1.2c-0.3,0.2-0.5,0-0.7-0.2c-0.3-0.3,0.2-0.3,0.2-0.5
				c0-0.1,0-0.2,0-0.2c1-0.3,1.4-1.5,2.6-1.5C41.5,74.5,42.2,74.5,42,75.1z"/>
			<path class="st16" d="M36.5,75.4c0.1,0,0.2,0,0.2,0c0.1,0,0.2,0,0.3,0.1c0.1,0.6-0.6,0.7-0.8,1.2c-0.1,0-0.2,0-0.2,0
				c0-0.2-0.1-0.5-0.1-0.7C36.1,75.7,36.3,75.6,36.5,75.4z"/>
			<path class="st18" d="M35.5,75.8c-0.3-0.1-0.3-0.3-0.3-0.5C35.4,75.4,35.5,75.6,35.5,75.8z"/>
			<path class="st11" d="M41.2,105.8c0.5-0.7,1.3-1,2.2-1.2c-0.1,0.2-0.2,0.3-0.2,0.5C42.5,105.2,42,105.8,41.2,105.8z"/>
			<path class="st10" d="M28.1,39.9c0.1,0.1,0.2,0.2,0.2,0.2C28.3,40,28.2,39.9,28.1,39.9z"/>
			<path class="st10" d="M29.6,31.5c0-0.5-0.3-1-0.5-1.4c0-0.1,0-0.2,0-0.3c0.2,0,0.4,0,0.5,0.1c-0.1,0.4,0.1,0.5,0.4,0.4
				c0.1,0,0.2,0,0.2,0c0.4,0.2,0.8,0.5,1.2,0.7c-0.1,0.2-0.2,0.3-0.2,0.5C30.7,31.5,30.1,31.5,29.6,31.5z"/>
			<path class="st14" d="M29.6,29.9c-0.2,0-0.4,0-0.5-0.1c0-0.5,0.3-0.5,0.7-0.5c0,0.2,0,0.3,0,0.5C29.7,29.8,29.6,29.8,29.6,29.9z"
				/>
			<path class="st20" d="M37,105.6c0-0.8,0.1-1.6,0.1-2.4c0.1-0.1,0.3-0.2,0.4-0.3c0.2-0.4,0.3-0.8,0.5-1.2c1.1,0.1,1.5-1.1,2.5-1.4
				c0.6-0.2,1.2-0.7,1.7-1.1c1.1-0.8,1.6-2,2.5-2.8c1.3-1.3,2.2-2.9,1.9-4.8c-0.2-0.8-0.1-1.6,0.1-2.4c0.7,1.2,0.6,2.6,0.5,3.9
				c-0.3,4.2-3.8,6.2-6.4,8.7c-1,1-2,1.9-2.8,3.1C37.6,105.4,37.5,105.7,37,105.6z"/>
			<path class="st19" d="M46.5,89.3c-0.2,0.8-0.2,1.5-0.1,2.4c0.4,1.9-0.5,3.5-1.9,4.8c-0.9,0.9-1.4,2.1-2.5,2.8
				c-0.5,0.4-1.1,0.9-1.7,1.1c-1,0.3-1.4,1.5-2.5,1.4c0-0.2,0-0.3,0-0.5c0.1-0.2,0.2-0.5,0.2-0.7c1.3-1,2.5-2.2,4.1-2.8
				c0.9-0.3,1.2-1.2,1.5-2l0,0c1.8-1.1,2.7-3.8,1.9-6c-0.1-1.7-0.9-3.1-1-4.8c0-0.6-0.5-0.6-0.9-0.7l0,0c-0.3-0.7,0.4-0.6,0.7-0.7
				c1,0.9,1.3,2.1,1.4,3.3C46,87.7,46.6,88.4,46.5,89.3z"/>
			<path class="st7" d="M44.4,83.5c-0.3,0.1-1,0-0.7,0.7c-1.2-0.1-1.5-1.1-1.9-1.9c0-0.1,0-0.3,0-0.4c0.3,0,0.5,0,0.7-0.3
				c0.2,0.1,0.2,0.3,0.2,0.5c0,0.1,0,0.2,0,0.2c-0.2,0-0.5,0.1-0.2,0.3c0.5,0.4,1,0.8,1.7,0.6C44.2,83.4,44.3,83.4,44.4,83.5z"/>
			<path class="st19" d="M44.2,83.3c-0.7,0.2-1.2-0.2-1.7-0.6c-0.3-0.2,0-0.3,0.2-0.3C43.1,82.8,44.2,82.2,44.2,83.3z"/>
			<path class="st18" d="M25.2,94.7c0.3,0.1,0.7,0.1,0.7,0.6C25.6,95.3,25.3,95.1,25.2,94.7z"/>
			<path class="st18" d="M26.7,96c0.3,0,0.5,0.2,0.5,0.5C26.8,96.5,26.7,96.3,26.7,96z"/>
			<path class="st6" d="M39.8,64.3c-1.1,0.3-1.8-0.2-1.7-1.4c0.6,0.4,1.4-0.1,1.9,0.5c0,0.1,0,0.2,0,0.3
				C39.8,63.8,39.9,64.1,39.8,64.3z"/>
			<path class="st19" d="M40,63.7c0-0.1,0-0.2,0-0.3c0.3-0.2,0.3-0.4,0.3-0.7c0.2,0,0.3,0,0.5,0c0.2,0.6,1,0.7,1,1.4
				c-0.1,0.8-0.7,0.2-1,0.3c0,0-0.1,0-0.1,0s-0.1,0-0.1,0C40.4,64.1,40.2,63.9,40,63.7z"/>
			<path class="st20" d="M40.8,62.7c-0.2,0-0.3,0-0.5,0c-1.1-0.1-1.3-0.8-1.2-1.7C40.1,61.1,40.2,62.2,40.8,62.7z"/>
			<path class="st6" d="M38.1,62.2c-0.6-0.3-0.5-0.8-0.4-1.2c0.6,0,0.3,0.6,0.7,0.8c0.1,0.2,0.1,0.4,0.2,0.5
				C38.4,62.2,38.3,62.2,38.1,62.2z"/>
			<path class="st7" d="M36.5,49.8c0.1-0.4-0.4-1.3,0.7-0.8C37.3,49.5,37,49.7,36.5,49.8z"/>
			<path class="st21" d="M45.1,53.3c-0.1,0.2-0.2,0.4-0.3,0.6c-0.4-0.3-0.8-0.5-1.2-0.8c-0.1-0.9-0.8-1-1.5-1c0,0,0,0,0,0
				c0-0.5-0.3-0.5-0.7-0.5c-0.1-0.1-0.2-0.1-0.3-0.2c0.1-0.2,0.4-0.3,0.6-0.2c0.9,0.5,2,0.5,3,0.7C45,52.3,45.2,52.8,45.1,53.3z"/>
			<path class="st7" d="M42.2,52.1c0.7,0,1.3,0.1,1.5,1C43.1,52.9,42.6,52.6,42.2,52.1z"/>
			<path class="st7" d="M41.5,51.6c0.4,0,0.7,0,0.7,0.5c-0.1-0.1-0.3-0.1-0.4-0.2C41.7,51.9,41.6,51.7,41.5,51.6z"/>
			<path class="st21" d="M44.4,50.9c-0.4,0-0.7,0-0.7-0.5c0-0.5-0.5-0.6-0.7-1c0-0.2,0-0.4-0.2-0.4c-0.2-0.4-0.3-0.8-0.5-1.2
				c0.1-0.6-0.3-1.1,0-1.6c0.2,0,0.3,0,0.5,0.1c0.1,1.6,1.3,2.8,1.9,4.2C44.5,50.6,44.5,50.7,44.4,50.9z"/>
			<path class="st18" d="M42.7,49c0.2,0.1,0.2,0.3,0.2,0.4c-0.5,0.5-0.9-0.1-1.2-0.2c-1.4-0.4-2.7-1-4.1-1.5
				c0.2-0.5,0.6-0.4,0.9-0.3c0.4,0.2,0.8,0.1,1.3,0.1C40.8,47.9,41.5,49,42.7,49z"/>
			<path class="st12" d="M39.8,47.5c-0.4,0-0.8,0.1-1.3-0.1c-0.4-0.1-0.8-0.2-0.9,0.3c-0.1,0.1-0.3,0.2-0.4,0.3
				c0-0.1-0.1-0.2-0.2-0.2c0,0,0,0,0,0c-0.1-0.6,0.1-1.2,0.4-1.7c0.3-0.3,0.5-0.3,0.8-0.1c-0.3,0.2-0.3,0.4,0.1,0.6
				C38.8,46.9,39.5,47,39.8,47.5z"/>
			<path class="st10" d="M44.4,50.9c0-0.2,0.1-0.3,0.1-0.5c1,0.6,0.7,1.8,1.3,2.6c0,0.6-0.4,0.3-0.7,0.3c0.1-0.5-0.1-1-0.3-1.4
				C44.9,51.5,44.7,51.1,44.4,50.9z"/>
			<path class="st18" d="M36.5,48c0-0.1,0-0.3-0.1-0.4c0,0,0-0.1,0-0.1c0.2,0.1,0.3,0.2,0.5,0.2c0,0,0,0,0,0c0,0.1,0,0.2,0,0.3
				C36.8,48.8,36.6,47.9,36.5,48z"/>
			<path class="st16" d="M37,48c0-0.1,0-0.2,0-0.3c0.2,0,0.2,0.1,0.2,0.2C37.1,48,37,48,37,48z"/>
			<path class="st11" d="M31.7,44.4c0-0.5,0-1.1,0-1.6c1.1-0.6,2.4-0.7,3.4-1.5c1,0.3-0.2,0.6,0,1c-0.1,0.7-0.6,1.1-1,1.7
				c-0.4,0.1,0.2,0.8-0.5,0.7C33,44.1,32.3,44.5,31.7,44.4z"/>
			<path class="st18" d="M33.6,44.7c0.7,0.1,0-0.7,0.5-0.7c0.5,1.1,1.1,2.2,2.1,2.9c0.1,0.2,0.2,0.4,0.2,0.7c0,0,0,0.1,0,0.1
				C35.2,46.9,34,46.2,33.6,44.7z"/>
			<path class="st23" d="M42.5,81.6c-0.2,0.3-0.4,0.3-0.7,0.3c-1.1,0.1-1.4,0.9-1.7,1.8c-0.2,0.7-0.3,1.6-1.1,2
				c-0.3,0.2-0.3,0.4-0.3,0.7c0.1,2-0.3,4-0.5,6c0.3,1.5-0.4,2.8-0.3,4.3c0,0.2-0.3,0.2-0.5,0.2c0.1-1.7,0.1-3.5,0.2-5.2
				c0.6-1,0.4-2.1,0.1-3.1c0-0.6,0-1.1,0-1.7c0.5-0.6,0.6-3.3,0.2-3.8c-0.4-0.4-0.4-0.1-0.5,0.2c-0.4-0.2-0.7-0.4-0.9-0.8
				c0-0.4-0.3-0.5-0.6-0.5c-0.2-0.2-0.4-0.4-0.6-0.5c0-0.1,0-0.3,0-0.4c1.3,0.1,0.9-1.1,1.2-1.7c0.1-0.1,0.2-0.2,0.2-0.2
				c0.2-0.1,0.3-0.1,0.5-0.2c0.3-0.2,0.3-0.4,0-0.5c0,0,0,0,0,0c0-0.1,0-0.2,0-0.2l0,0c0.1,0,0.2-0.1,0.2-0.2c0-0.3,0-0.7,0-1
				c0.3-0.1,0.5,0.1,0.7,0.2c0,0.2,0.1,0.3,0.1,0.5c0,0.8,0.5,1.4,1.3,1.4c0.8,0,1.6,0.3,2.4,0.3C42.3,80.2,42.8,80.8,42.5,81.6z"/>
			<path class="st15" d="M42,79.2c0-0.1-0.1-0.1-0.2-0.1c0-0.1,0-0.1,0-0.2c0-0.1,0-0.2,0-0.2c0.3,0,0.6-0.2,0.7-0.5l0,0
				c0.5,0.1,0.8-0.4,1.2-0.5c0,0.3,0,0.6,0,0.9C43.3,79.4,42.5,78.7,42,79.2z"/>
			<path class="st15" d="M43.9,77.5c0-0.2,0.1-0.2,0.3-0.3C44.1,77.4,44.2,77.6,43.9,77.5z"/>
			<path class="st15" d="M43.7,77.8c0-0.2,0.1-0.2,0.2-0.2C44,77.8,44,77.9,43.7,77.8z"/>
			<path class="st13" d="M41.3,58.8c0.2,0.1,0.2,0.2,0,0.2C41.3,59,41.3,58.9,41.3,58.8z"/>
			<path class="st13" d="M38.2,75.6c-0.3,0.1-0.2,0.8-0.8,0.7c-0.1-0.2-0.1-0.4-0.2-0.7c0.1-0.1,0.2-0.2,0.3-0.2
				c0.3,0,0.6,0,0.7-0.3c0.1,0,0.1,0,0.2,0c0,0.2,0,0.3,0,0.5C38.3,75.6,38.2,75.6,38.2,75.6z"/>
			<path class="st18" d="M38.4,75.1c-0.1,0-0.1,0-0.2,0c-0.2,0-0.4,0-0.5-0.2c0.1-0.2,0.2-0.5,0.5-0.4
				C38.5,74.6,38.4,74.9,38.4,75.1z"/>
			<path class="st20" d="M37.7,74.9c0.1,0.2,0.3,0.2,0.5,0.2c-0.2,0.3-0.5,0.2-0.7,0.3c0-0.1,0-0.2,0-0.2
				C37.5,75.1,37.6,75,37.7,74.9z"/>
			<path class="st18" d="M38.2,75.6c0.1,0,0.2,0,0.3,0c0.1,0,0.1,0,0.2,0c0,0.1,0,0.2,0,0.2C38.4,75.8,38.3,75.8,38.2,75.6z"/>
			<path class="st18" d="M37.4,75.2c0,0.1,0,0.2,0,0.2c-0.1,0.1-0.2,0.2-0.3,0.2c0-0.1,0-0.1,0-0.2c0-0.1,0-0.2,0-0.3c0,0,0,0,0,0
				C37.3,75.1,37.4,75.2,37.4,75.2z"/>
			<path class="st6" d="M41.3,65.3c0.2,0.3,0.6,0.3,0.7,0.7c-0.5-0.4-0.4,1-0.9,0.3C40.9,66,40.4,65.5,41.3,65.3z"/>
			<path class="st11" d="M40,63.7c0.2,0.2,0.4,0.5,0.5,0.7c-0.2,0-0.5,0-0.7,0C39.9,64.1,39.8,63.8,40,63.7z"/>
			<path class="st21" d="M32.5,24.8C32.5,24.9,32.5,24.9,32.5,24.8C32.4,24.9,32.4,24.9,32.5,24.8C32.4,24.9,32.4,24.9,32.5,24.8
				C32.4,24.8,32.4,24.8,32.5,24.8z"/>
			<path class="st21" d="M31.4,31c-0.4-0.2-0.8-0.5-1.2-0.7c0.6-0.3,1.1-0.5,1.7-0.8c0.3-0.1,0.7-0.3,0.9,0.1
				c0.2,0.4-0.3,0.5-0.5,0.7c-0.1,0.1-0.3,0.2-0.4,0.4c-0.1,0.1-0.2,0.2-0.2,0.3C31.6,30.9,31.5,30.9,31.4,31z"/>
			<path class="st13" d="M34.3,31.2c-0.1,0.4-0.2,1-0.7,0.8c-0.6-0.2-0.2-0.9-0.2-1.3c0.1,0,0.3,0,0.4,0
				C33.9,31.1,34,31.2,34.3,31.2z"/>
			<path class="st11" d="M31.6,30.9c0.1-0.1,0.2-0.2,0.2-0.3C32,31,32.3,31,32.6,31c0,0.2,0,0.3,0,0.5
				C32.2,31.5,31.7,31.5,31.6,30.9z"/>
			<path class="st7" d="M29.6,29.9c0.1,0,0.1-0.1,0.2-0.1c0.1,0,0.2-0.1,0.3-0.1c0,0.2,0,0.4,0,0.6C29.7,30.3,29.5,30.2,29.6,29.9z"
				/>
			<path class="st6" d="M32.2,28.3c0.1-0.1,0.2-0.2,0.2-0.2C32.3,28.2,32.2,28.3,32.2,28.3z"/>
			<path class="st15" d="M45.8,52.9c-0.6-0.8-0.3-2-1.3-2.6c-0.6-1.4-1.8-2.6-1.9-4.2c0.2,0,0.4-0.1,0.5-0.1c0,0,0,0,0,0
				c0,0.4,0,0.7,0.5,0.7c0,0,0,0,0,0c0,0.4,0,0.7,0.5,0.7c0.2,0.4,0.5,0.8,0.7,1.2c0.4,1,0.8,2.1,1.2,3.1
				C46.1,52.2,46.2,52.6,45.8,52.9z"/>
			<path class="st6" d="M43.2,46.1c-0.2,0-0.4,0.1-0.5,0.1c-0.2,0-0.3,0-0.5-0.1c0-0.5-0.1-0.9-0.4-1.2c0-0.1,0-0.2,0-0.2
				c0.4-0.2,0.2-0.7,0.3-1C42.7,44.3,42.7,45.3,43.2,46.1z"/>
			<path class="st6" d="M43.7,46.8c-0.5,0-0.5-0.4-0.5-0.7C43.5,46.2,43.7,46.5,43.7,46.8z"/>
			<path class="st6" d="M44.1,47.6c-0.5,0-0.5-0.4-0.5-0.7C44,47,44.1,47.2,44.1,47.6z"/>
			<path class="st17" d="M41.7,44.9c0.4,0.3,0.5,0.7,0.4,1.2c-0.2,0.6,0.2,1.1,0,1.6c-1.5-0.3-2.6-1.3-4-1.7
				c-0.3-0.2-0.6-0.2-0.8,0.1c-0.6-0.1-1,0.2-1.2,0.8c-1.1-0.7-1.6-1.8-2.1-2.9c0.3-0.6,0.8-1,1-1.7c2,0.3,3.3,1.9,5.4,2.5
				c-0.4-1.2-1.4-1.8-2-2.7c0-0.4-0.1-0.7-0.4-1c0.1-0.2,0.3-0.2,0.5-0.2c0.4,0.4,0.6,1,1.2,1.2c0.5,0.6,1,1.1,1.4,1.7
				C41.1,44.2,40.8,44.9,41.7,44.9z"/>
			<path class="st7" d="M39.6,42c-0.6-0.2-0.8-0.8-1.2-1.2c-0.7-0.3-0.6-0.9-0.5-1.4l0,0c0.6,0.4,0.4,1.5,1.4,1.5c0,0.1,0,0.2,0,0.3
				C39.5,41.4,39.5,41.7,39.6,42z"/>
			<path class="st7" d="M41.7,44.9c-1,0-0.6-0.7-0.7-1.2c0.4,0.2,0.5,0.6,0.7,1C41.8,44.7,41.8,44.8,41.7,44.9z"/>
			<path class="st12" d="M39.4,41.1c0-0.1,0-0.2,0-0.3c0-0.2,0-0.3,0-0.5c0.2,0.2,0.6,0.4,0.6,0.8C39.8,41.1,39.6,41.1,39.4,41.1z"
				/>
			<path class="st21" d="M37.4,96.9c0.2,0,0.5,0,0.5-0.2c-0.1-1.5,0.6-2.8,0.3-4.3c0.5,0,1-0.1,0.9-0.7c-0.2-1.9,1.1-3.7,0.8-5.6
				c-0.1-0.6,0.2-0.9,0.8-0.9c0.5-0.1,1.2-1.5,0.8-1.9c-0.7-0.6-0.1-0.7,0.3-1c0.4,0.9,0.7,1.8,1.9,1.9c0,0,0,0,0,0
				c0.1,0.6,0.5,1,0.4,1.7c-0.1,0.6-0.1,1.6,0.3,1.9c0.7,0.7,0.6,1.4,0.2,2c-0.4,0.7-0.1,1.6-0.7,2.1c-0.8,0.8-2.1,0.9-2.6,2.1
				c-0.1,0.4-0.7-0.2-1.1,0.2c-1.2,1.6-2.1,3.3-2.3,5.3c0.1,0.3-0.6,0.8,0.2,1c-0.1,0.2-0.2,0.5-0.2,0.7c-0.2,0-0.3,0-0.5,0
				c0-0.3,0.1-0.5-0.2-0.7C37.2,99.4,37.2,98.1,37.4,96.9z"/>
			<path class="st19" d="M31.7,87.1c-0.3-0.8-1.1-1.1-1.7-1.5c-1.1-0.8-0.3-1.5-0.1-2.2c1.1,0.9,2,1.8,2.2,3.2
				C31.8,86.7,31.7,86.8,31.7,87.1z"/>
			<path class="st15" d="M32.5,89.3c0.8,0.1,0.9,1,1.6,1.2c-0.2,0.2-0.4,0.5-0.4,0.8c-0.1,0-0.4,0-0.4,0.1c-0.1,0.3,0.2,0.3,0.3,0.3
				c0.5,0.6,0.5-0.2,0.8-0.3c1,0.2,0.5,0.8,0.4,1.2c-0.3,0.8-0.7,0.1-1,0c-0.6-0.3-0.9-0.8-1.4-1.2C33.4,90.7,32.5,90,32.5,89.3z"/>
			<path class="st19" d="M32.2,94.8c-1-0.6-1.6-1.4-2.4-2.2c0,0,0,0,0,0c0.2-0.1,0.2-0.3,0.2-0.4c0.2-0.3,0.3-0.7,0.3-1
				c0.6-0.1,0.6,0.8,1.2,0.8c-0.1,0.6,0,1.1,0.2,1.6C31.9,94,32.3,94.3,32.2,94.8z"/>
			<path class="st16" d="M30.3,91.2c0,0.4-0.1,0.7-0.3,1c-0.2,0.1-0.3,0.2-0.2,0.4c0,0,0,0,0,0c-0.5-0.2-0.7-0.6-1-1
				c0-0.3,0-0.6,0.1-0.9c0,0,0,0,0,0c0.1-0.1,0.1-0.3,0.2-0.4C29.9,89.8,30,90.7,30.3,91.2z"/>
			<path class="st13" d="M33.6,87.8c0.1-0.3,0.2-1,0.5-0.8c0.6,0.4,1.1,1.1,1.1,1.8c0,0.6-0.6,0.2-0.9,0.3c-0.2-0.2-0.3-0.3-0.5-0.5
				c-0.1,0-0.2,0-0.2,0C33.6,88.3,33.6,88.1,33.6,87.8z"/>
			<path class="st16" d="M32.5,89.3c0,0.7,0.9,1.4-0.1,2.1c-0.2-0.1-0.2-0.2-0.3-0.4c0.2-0.6-0.3-0.8-0.6-1c0-0.2-0.1-0.5,0-0.6
				c0.3-0.3-0.2-0.8,0.3-0.8C32.2,88.6,32.4,88.9,32.5,89.3z"/>
			<path class="st21" d="M37.4,83.3c0.1-0.3,0.1-0.6,0.5-0.2c0.5,0.5,0.3,3.2-0.2,3.8C37.5,85.7,38.1,84.5,37.4,83.3z"/>
			<path class="st19" d="M29,88.3c-0.4,0-0.5-0.2-0.3-0.5c0.1-0.3,0.3-0.6-0.1-0.8c-0.6-0.3-0.4-0.7-0.2-1.1
				c0.1-0.2,0.4-0.3,0.5-0.1c0.2,0.4,0.8,0.5,0.5,1.2C29.2,87.4,29,87.8,29,88.3L29,88.3z"/>
			<path class="st19" d="M29,88.3c0.6,0.1,0.7-0.4,1-0.7c0.2-0.2,0.3-0.5,0.6-0.1c0,0.2,0,0.3-0.1,0.5c-0.1,0.5-0.2,0.9-0.4,1.5
				C29.6,89.2,29.1,88.9,29,88.3C29,88.3,29,88.3,29,88.3z"/>
			<path class="st18" d="M33.6,83.3c-0.2,0.5-0.2,1.1-0.8,1.1c-0.4,0-0.5-0.3-0.4-0.6c0.1-0.5,0.1-1.1,0.7-1.2
				C33.5,82.6,33.6,83,33.6,83.3z"/>
			<path class="st7" d="M31.7,93.6c-0.2-0.5-0.3-1.1-0.2-1.6c0.8,0.6,1.8,1.1,1.4,2.3C32.7,93.7,32.5,93.1,31.7,93.6z"/>
			<path class="st21" d="M37.7,88.6c0.3,1.1,0.5,2.1-0.1,3.1C37.5,90.7,37.3,89.6,37.7,88.6z"/>
			<path class="st19" d="M28.8,90.9C28.8,90.9,28.8,90.8,28.8,90.9c-0.3,0.2-0.2,0.5-0.2,0.8c-0.3,0-0.3-0.3-0.3-0.5
				c-0.1-0.4-0.3-0.2-0.4,0c0-0.7,0-0.7,0.8-1.7c0.3,0.3,0.1,0.7,0.2,1C28.8,90.6,28.8,90.7,28.8,90.9z"/>
			<path class="st16" d="M37.4,101.3c0.2,0,0.3,0,0.5,0c0,0.2,0,0.3,0,0.5c-0.2,0.4-0.3,0.8-0.5,1.2c-0.1,0-0.2,0-0.4,0
				c-0.1-0.5-0.1-0.9,0.1-1.4C37.2,101.5,37.3,101.4,37.4,101.3z"/>
			<path class="st11" d="M31.7,93.6c0.8-0.5,1,0.1,1.2,0.7c-0.1,0.2-0.2,0.5-0.2,0.7c-0.2,0-0.3,0-0.5,0c0-0.1,0-0.2,0-0.2
				C32.3,94.3,31.9,94,31.7,93.6z"/>
			<path class="st16" d="M33.7,91.3c0-0.4,0.2-0.6,0.4-0.8c0.4,0.2,0.1,0.7,0.3,1c-0.3,0.1-0.3,0.8-0.8,0.3
				C33.6,91.6,33.6,91.4,33.7,91.3z"/>
			<path class="st20" d="M34.9,84.1c0.3,0.6,0,1.2-0.2,1.7c-0.1,0.2-0.3,0.2-0.4,0.1c-0.2-0.1-0.1-0.3,0-0.4
				C34.8,85.1,34.4,84.5,34.9,84.1z"/>
			<path class="st14" d="M32.2,95.1c0.2,0,0.3,0,0.5,0c0.4,0.2,0.7,0.5,1,1.2C32.9,96,32.4,95.7,32.2,95.1z"/>
			<path class="st15" d="M31.7,87.1c0-0.3,0.2-0.5,0.4-0.5c-0.2,0.4,0.7,0.6,0.2,0.9C32,87.7,31.7,87.6,31.7,87.1z"/>
			<path class="st15" d="M33.6,87.8c0,0.2,0,0.5,0,0.7c-0.5,0.4-0.8-0.3-0.7-0.4C32.9,87.8,33.3,87.9,33.6,87.8z"/>
			<path class="st12" d="M31.5,90c0.4,0.2,0.9,0.4,0.6,1C31.4,91,31.4,90.5,31.5,90z"/>
			<path class="st20" d="M37.4,101.3c-0.1,0.1-0.2,0.2-0.3,0.3c-0.1-0.3-0.2-0.7,0.1-1C37.5,100.7,37.4,101,37.4,101.3z"/>
			<path class="st15" d="M30.5,88.1c0-0.2,0-0.3,0.1-0.5c0.2,0.1,0.5-0.1,0.5,0.3C31.1,88.2,30.7,88.1,30.5,88.1z"/>
			<path class="st21" d="M35.9,82.1c0.3,0,0.6,0.1,0.6,0.5C36.2,82.5,35.9,82.4,35.9,82.1z"/>
			<path class="st15" d="M33.8,88.6c0.2,0.2,0.3,0.3,0.5,0.5C33.6,89.4,33.9,88.8,33.8,88.6z"/>
			<path class="st15" d="M32.8,86.7c-0.1,0-0.1,0.1-0.2,0c-0.1,0-0.1-0.1-0.1-0.2c0.1,0,0.1-0.1,0.2,0
				C32.8,86.5,32.8,86.6,32.8,86.7z"/>
			<path class="st15" d="M31,88.6c0,0.1,0.1,0.1,0,0.2c0,0-0.1,0.1-0.2,0.1c0-0.1-0.1-0.1,0-0.2C30.8,88.7,30.9,88.7,31,88.6z"/>
			<path class="st15" d="M28.6,91.7c0-0.3,0-0.6,0.2-0.8c0,0.3,0,0.6-0.1,0.9C28.7,91.7,28.6,91.7,28.6,91.7z"/>
			<path class="st18" d="M37.1,102.9c0.1,0,0.2,0,0.4,0c-0.1,0.1-0.3,0.2-0.4,0.3C37.1,103.1,37.1,103,37.1,102.9z"/>
			<path class="st15" d="M27.8,91.2c0.2-0.2,0.3-0.3,0.4,0C28.1,91.2,28,91.2,27.8,91.2z"/>
			<path class="st15" d="M28.8,90.9c0-0.1,0-0.2,0-0.4c0.1,0,0.1,0,0.2,0C28.9,90.6,28.9,90.7,28.8,90.9z"/>
			<path class="st13" d="M35.2,40.8c0-0.5-0.1-1-0.1-1.5c0.1-0.1,0.2-0.1,0.3-0.2c0,0,0.1,0,0.1,0l0.1,0c0.1,0,0.2,0,0.3,0
				c0.2,0.3,0.7,0.2,0.7,0.7C35.7,39.7,35.9,41,35.2,40.8z"/>
			<path class="st12" d="M36.5,39.9c0-0.5-0.5-0.4-0.7-0.7c0.2-1,0.7,0.5,0.8,0c0.3-0.4-0.9-1.4,0.6-1.1c0,0.4,0,0.8,0.1,1.3
				c-0.1,0.3-0.3,0.4-0.5,0.5C36.6,39.9,36.6,39.9,36.5,39.9z"/>
			<path class="st7" d="M37.2,39.4c0-0.4,0-0.8-0.1-1.3c0.6,0.2,0.6,0.8,0.8,1.2c0,0,0,0,0,0C37.7,39.4,37.5,39.4,37.2,39.4z"/>
			<path class="st12" d="M35.5,39.2L35.5,39.2c-0.1,0-0.2,0-0.2,0c0-0.1,0.1-0.1,0.1-0.2C35.4,39.1,35.5,39.1,35.5,39.2z"/>
			<path class="st13" d="M31.7,37.9c-0.1-0.8-1.1-1-1.2-1.8c0,0,0-0.1,0-0.1c0.8,0,1.6,0.7,2.2-0.3c0,0,0.1,0,0.1,0
				c0.1,0.4,0.2,0.8,0.8,0.5c0.6,0.3,0.5,0.6-0.1,0.7C32.8,37.1,32.2,37.5,31.7,37.9z"/>
			<path class="st6" d="M33.6,36.3c-0.6,0.3-0.7-0.1-0.8-0.5c0.3-0.2,0.7-0.1,0.9-0.5c0,0.1,0.1,0.3,0.1,0.4
				C33.7,35.9,33.5,36,33.6,36.3z"/>
			<path class="st14" d="M33.8,35.7c0-0.1-0.1-0.3-0.1-0.4c0,0,0-0.1,0-0.1c0.1,0,0.2,0,0.4,0c0.1,0.1,0.2,0.1,0.3,0
				c0.1,0,0.3,0,0.4,0c-0.1,0.1-0.2,0.3-0.2,0.4C34.3,35.6,34.1,35.6,33.8,35.7z"/>
			<path class="st7" d="M35.3,34.8c0-0.2-0.2-0.4,0-0.5c0.2-0.1,0.4,0,0.5,0.2C35.7,34.9,35.7,35.2,35.3,34.8z"/>
			<path class="st9" d="M36.5,79.4c-0.3,0.6,0.1,1.8-1.2,1.7c-0.2-0.1-0.3-0.2-0.5-0.4c-0.4-0.4-0.4-1-0.1-1.4
				c0.5-0.5,0.4,0.6,0.9,0.5c0.1,0,0.2,0.1,0.3,0.2c0-0.3,0-0.6,0.1-0.9C36.2,79.2,36.3,79.3,36.5,79.4z"/>
			<path class="st16" d="M37.2,79c-0.2,0.1-0.3,0.1-0.5,0.2c-0.2-0.6-1.3-0.7-1-1.7c0.2,0,0.3,0,0.5,0c0.2,0.2,0.4,0.5,0.7,0.7
				c0.1,0.1,0.2,0.2,0.3,0.2c0,0,0,0,0,0C37.2,78.7,37.2,78.8,37.2,79z"/>
			<path class="st12" d="M36.9,78.3c-0.2-0.2-0.4-0.5-0.7-0.7c0-0.3,0-0.6,0-0.9c0.1-0.5,0.9-0.5,0.8-1.2c0.1,0,0.1,0,0.2,0
				c0,0.1,0,0.1,0,0.2c0.1,0.2,0.1,0.4,0.2,0.7c0,0.3,0,0.5,0,0.8c0,0.3,0,0.7,0,1c-0.1,0.1-0.1,0.2-0.2,0.2c0,0,0,0,0,0
				C37.1,78.3,37,78.3,36.9,78.3z"/>
			<path class="st15" d="M41.5,78.3c-0.5-0.4,0-0.8,0-1.2c1-0.1,1.3,0.3,1,1.2c0,0,0,0,0,0C42.2,78.3,41.8,78.5,41.5,78.3z"/>
			<path class="st10" d="M36.5,39.9c0.1,0,0.2,0,0.2,0c0,0.2,0,0.4,0,0.6c-0.6,0.3-0.6,0.6-0.1,0.9c0.4,0.2,0.9,0.4,1.3,0.5
				c0.1,0.1,0.3,0.1,0.4,0.2c0.7,0.8,1.7,1.4,2,2.7c-2-0.6-3.4-2.1-5.4-2.5c-0.1-0.3,1-0.6,0-1c0-0.2,0.1-0.3,0.1-0.5
				C35.9,41,35.7,39.7,36.5,39.9z"/>
			<path class="st14" d="M31.4,33.4c-0.3,0.4-0.7,0.6-1.1,0.5c-0.1-0.1-0.2-0.3-0.3-0.4c0,0,0,0,0,0c0-0.4-0.4-0.7-0.5-1
				c0-0.1,0-0.1,0.1-0.2c0.5,0,0.9,0,1.4,0C31.1,32.6,31.6,32.9,31.4,33.4z"/>
			<path class="st15" d="M31,32.2c-0.5,0-0.9,0-1.4,0c0-0.2,0-0.5,0-0.7c0.5,0,1.1,0,1.6,0C31.1,31.7,31,31.9,31,32.2z"/>
			<path class="st11" d="M29.5,32.4c0.2,0.3,0.6,0.6,0.5,1c-0.6,0-1-0.2-1-0.8C29.2,32.5,29.3,32.5,29.5,32.4z"/>
			<path class="st11" d="M30,33.4c0.1,0.1,0.2,0.3,0.3,0.4c-0.1,0-0.2,0-0.2,0.1C30,33.7,30,33.6,30,33.4z"/>
			<path class="st12" d="M31,32.2c0.1-0.2,0.2-0.5,0.2-0.7c0.1-0.2,0.2-0.3,0.2-0.5c0.1,0,0.1,0,0.2,0c0.1,0.6,0.5,0.6,0.9,0.5
				c0.1,0.7,0.2,1.5-0.6,2c-0.2,0-0.4,0-0.6,0C31.6,32.9,31.1,32.6,31,32.2z"/>
			<path class="st14" d="M32.7,35.8c-0.6,1-1.5,0.2-2.2,0.3c0-0.3,0-0.5,0-0.8c0.4,0,0.9-0.1,1.3-0.1C32,35.6,32.3,35.8,32.7,35.8z"
				/>
			<path class="st7" d="M31.8,35.2c-0.4,0-0.9,0.1-1.3,0.1c0.2-0.9,1.2-0.1,1.6-0.7c0.4,0.2,1-0.7,1.3,0.2c-0.2,0-0.5-0.1-0.7,0.2
				C32.4,35.1,32.1,35.1,31.8,35.2z"/>
			<path class="st21" d="M37.2,75.5c-0.1,0-0.1,0-0.2,0c-0.1,0-0.2,0-0.3-0.1c0.1-0.2,0.3-0.3,0.5-0.2
				C37.2,75.2,37.2,75.4,37.2,75.5z"/>
			<path class="st20" d="M31.8,35.2c0.3,0,0.6-0.1,0.9-0.1c0.2,0,0.5,0,0.7,0c0.1,0,0.2,0.1,0.3,0.1c0,0,0,0.1,0,0.1
				c-0.2,0.4-0.6,0.3-0.9,0.5c0,0-0.1,0-0.1,0C32.3,35.8,32,35.6,31.8,35.2z"/>
			<path class="st17" d="M33.4,35c-0.2,0-0.5,0-0.7,0c0.2-0.3,0.4-0.2,0.7-0.2C33.4,34.9,33.4,35,33.4,35z"/>
			<path class="st7" d="M36.2,34.3c0,0-0.1,0-0.1-0.1C36.2,34.3,36.2,34.3,36.2,34.3C36.2,34.4,36.2,34.3,36.2,34.3z"/>
			<path class="st20" d="M34.3,35.1c-0.1,0.1-0.2,0.2-0.3,0C34.1,35.1,34.2,35.1,34.3,35.1z"/>
			<path class="st13" d="M38.3,77.8c0-0.2-0.1-0.3-0.1-0.5c0.7-0.2,1,0.7,1.6,0.7l0,0c0,0.2,0,0.5,0,0.8
				C39.4,78.2,38.8,78,38.3,77.8z"/>
			<path class="st13" d="M41.5,78.3c0.3,0.2,0.6,0,1,0c-0.1,0.3-0.3,0.5-0.7,0.5C41.6,78.7,41.5,78.5,41.5,78.3z"/>
			<path class="st13" d="M39.8,78c0.1-0.2,0.2-0.4,0.5-0.4c0,0,0.1,0.1,0.1,0.2C40.3,78.1,40.1,78,39.8,78C39.8,78,39.8,78,39.8,78z
				"/>
			<path class="st13" d="M41.8,79c0,0.1,0,0.1,0,0.2c-0.1,0-0.1,0-0.2-0.1C41.7,79.1,41.7,79,41.8,79z"/>
			<path class="st7" d="M37.9,99.6c0.2-2,1.1-3.7,2.3-5.3c0.3-0.4,0.9,0.2,1.1-0.2c0.5-1.2,1.8-1.3,2.6-2.1c0.6-0.6,0.2-1.4,0.7-2.1
				c0.4-0.6,0.5-1.3-0.2-2c-0.4-0.4-0.3-1.3-0.3-1.9c0.1-0.6-0.3-1.1-0.4-1.7c0.4,0.1,0.9,0.2,0.9,0.7c0,1.7,0.9,3.2,1,4.8
				c-0.3,2.1-1.1,4.1-1.9,6c0,0,0,0,0,0c-0.5,0.2-1,0.1-1.4,0.5c-1.1,1.1-2.8,1.6-3.6,3.1C38.5,99.6,38.2,99.6,37.9,99.6z"/>
			<path class="st16" d="M37.9,99.6c0.3,0,0.6,0,0.8-0.2c0.8-1.5,2.4-2,3.6-3.1c0.4-0.4,0.9-0.3,1.4-0.5c-0.3,0.8-0.6,1.7-1.5,2
				c-1.6,0.6-2.8,1.8-4.1,2.8C37.3,100.4,38,99.9,37.9,99.6z"/>
			<path class="st16" d="M43.7,95.8c0.8-1.9,1.6-3.9,1.9-6C46.4,92,45.5,94.7,43.7,95.8z"/>
			<path class="st9" d="M41.8,82.3c-0.4,0.2-1,0.3-0.3,1c0.4,0.3-0.3,1.8-0.8,1.9c-0.6,0.1-0.9,0.4-0.8,0.9c0.3,2-1,3.7-0.8,5.6
				c0.1,0.6-0.4,0.7-0.9,0.7c0.2-2,0.5-4,0.5-6c0-0.3,0-0.6,0.3-0.7c0.8-0.4,0.9-1.2,1.1-2c0.3-0.9,0.6-1.7,1.7-1.8
				C41.8,82,41.8,82.2,41.8,82.3z"/>
			<path class="st8" d="M38.2,46c1.4,0.4,2.5,1.5,4,1.7c0.2,0.4,0.3,0.8,0.5,1.2c-1.2,0-1.9-1.1-2.9-1.5c-0.4-0.6-1-0.6-1.6-0.9
				C37.9,46.4,38,46.2,38.2,46z"/>
			<path class="st16" d="M36.2,46.9c0.2-0.6,0.6-0.9,1.2-0.8c-0.4,0.5-0.5,1.1-0.4,1.7c-0.2-0.1-0.3-0.2-0.5-0.2
				C36.4,47.3,36.3,47.1,36.2,46.9z"/>
			<path class="st6" d="M37.2,79c0-0.2,0-0.4,0-0.5C37.5,78.7,37.5,78.8,37.2,79z"/>
			<path class="st8" d="M37.2,78.3c0.1-0.1,0.1-0.2,0.2-0.2C37.4,78.2,37.3,78.2,37.2,78.3z"/>
			<path class="st8" d="M36.9,78.3c0.1,0,0.2,0,0.3,0c0,0.1,0,0.2,0,0.2C37.1,78.4,37,78.3,36.9,78.3z"/>
			<path class="st20" d="M36.7,40.5c0-0.2,0-0.4,0-0.6c0.2-0.1,0.5-0.2,0.5-0.5c0.2,0,0.4,0,0.7,0c-0.1,0.6-0.2,1.1,0.5,1.4
				c-0.2,0-0.4,0-0.5,0.2c0,0,0,0,0,0C37.4,41.1,37.1,40.6,36.7,40.5z"/>
			<path class="st20" d="M38.4,42.1c-0.1-0.1-0.3-0.1-0.4-0.2c0-0.3,0-0.5,0-0.8c0,0,0,0,0,0C38.2,41.3,38.4,41.7,38.4,42.1z"/>
			<path class="st6" d="M33.7,91.3c0,0.1-0.1,0.3-0.1,0.4c-0.2-0.1-0.4-0.1-0.3-0.3C33.3,91.3,33.5,91.3,33.7,91.3z"/>
			<path class="st5" d="M29.8,92.7c-0.1-0.2,0-0.4,0.2-0.4C30,92.4,30,92.6,29.8,92.7z"/>
			<path class="st21" d="M37.9,41.1c0,0.3,0,0.5,0,0.8c-0.4-0.2-0.9-0.3-1.3-0.5c-0.5-0.3-0.5-0.6,0.1-0.9
				C37.1,40.6,37.4,41.1,37.9,41.1z"/>
		</g>
	</g>
	<linearGradient id="SVGID_7_" gradientUnits="userSpaceOnUse" x1="11.4234" y1="86.8643" x2="60.253" y2="86.8643">
		<stop  offset="0" style="stop-color:#86C440"/>
		<stop  offset="0.5031" style="stop-color:#B2D235"/>
		<stop  offset="1" style="stop-color:#86C440"/>
	</linearGradient>
	<path class="st24" d="M60.3,88.1L11.4,99.7V85.6L60.3,74V88.1z"/>
	<linearGradient id="SVGID_8_" gradientUnits="userSpaceOnUse" x1="1.7698" y1="61.357" x2="69.9513" y2="61.357">
		<stop  offset="0" style="stop-color:#86C440"/>
		<stop  offset="0.5031" style="stop-color:#B2D235"/>
		<stop  offset="1" style="stop-color:#86C440"/>
	</linearGradient>
	<path class="st25" d="M70,60.3L1.8,76.5V62.4L70,46.2V60.3z"/>
	<linearGradient id="SVGID_9_" gradientUnits="userSpaceOnUse" x1="11.4458" y1="35.8032" x2="60.2755" y2="35.8032">
		<stop  offset="0" style="stop-color:#86C440"/>
		<stop  offset="0.5031" style="stop-color:#B2D235"/>
		<stop  offset="1" style="stop-color:#86C440"/>
	</linearGradient>
	<path class="st26" d="M60.3,37.1L11.4,48.7V34.5L60.3,23V37.1z"/>
	<g>
		<path class="st27" d="M13.2,62.7l2.9-0.7c1.7-0.4,2.2,0.6,2.2,1.8c0,1.6-1,2.6-2.6,2.9L14.8,67V70l-1.6,0.4L13.2,62.7z M14.8,65.8
			l0.7-0.2c0.6-0.2,1.1-0.6,1.1-1.4c0-0.8-0.3-1.1-1.1-0.9l-0.7,0.2V65.8z"/>
		<path class="st27" d="M19.1,69v-7.7l1.6-0.4v6.4l2.9-0.7V68L19.1,69z"/>
		<path class="st27" d="M25.9,59.7l2-0.5l2.1,7.2l-1.7,0.4L28,65.3l-2.2,0.5l-0.4,1.7l-1.7,0.4L25.9,59.7z M26.1,64.5l1.6-0.4
			l-0.8-3.3l0,0L26.1,64.5z"/>
		<path class="st27" d="M34.8,57.6l0,1.3L33,59.3l0,6.4l-1.6,0.4l0-6.4l-1.8,0.4v-1.3L34.8,57.6z"/>
		<path class="st27" d="M35.6,65.1v-7.7l1.6-0.4v7.7L35.6,65.1z"/>
		<path class="st27" d="M40.3,56.3l2,4.8l0,0l0-5.3l1.5-0.4l0,7.7l-1.9,0.4l-2-4.9l0,0v5.4l-1.5,0.4v-7.7L40.3,56.3z"/>
		<path class="st27" d="M46.5,54.9l0,5.4c0,0.8,0.2,1.3,1,1.1c0.8-0.2,1-0.8,1-1.6l0-5.4L50,54l0,5.4c0,2-1.3,2.8-2.6,3.1
			c-1.3,0.3-2.6,0.2-2.6-1.9l0-5.4L46.5,54.9z"/>
		<path class="st27" d="M51.1,53.8l2.4-0.6l1.2,5.2l0,0l1.2-5.7l2.4-0.6v7.7l-1.5,0.4l0-6.1l0,0l-1.4,6.5L54,60.8L52.6,55l0,0l0,6.1
			l-1.5,0.4L51.1,53.8z"/>
		<path class="st27" d="M19.9,87.3l1.4-0.3l0.8,4.8l0,0l0.8-5.2l1.4-0.3l0.8,4.8l0,0l0.8-5.2l1.4-0.3l-1.3,7l-1.6,0.4l-0.8-4.7l0,0
			l-0.8,5.1l-1.6,0.4L19.9,87.3z"/>
		<path class="st27" d="M28,92.1v-6.7l1.4-0.3l0,6.7L28,92.1z"/>
		<path class="st27" d="M32.1,84.4l1.7,4.2l0,0l0-4.6l1.3-0.3l0,6.7l-1.6,0.4l-1.7-4.3l0,0l0,4.7l-1.3,0.3l0-6.7L32.1,84.4z"/>
		<path class="st27" d="M37.8,83l1.7,4.2l0,0v-4.6l1.3-0.3l0,6.7l-1.6,0.4l-1.7-4.3l0,0v4.7l-1.3,0.3l0-6.7L37.8,83z"/>
		<path class="st27" d="M45.8,81.1v1.1l-2.5,0.6v1.6l2.4-0.6l0,1.1l-2.4,0.6l0,1.8l2.6-0.6l0,1.1l-4.1,1l0-6.7L45.8,81.1z"/>
		<path class="st27" d="M46.6,80.9l2.6-0.6c1.2-0.3,1.9,0.1,1.9,1.3c0,0.9-0.4,1.6-1.2,1.9l0,0c1-0.1,1.1,0.4,1.1,1.8
			c0,0.7,0,1.1,0.3,1.1v0.1l-1.6,0.4c-0.1-0.2-0.2-0.4-0.2-0.7l0-1.3c0-0.5-0.3-0.8-0.8-0.6l-0.8,0.2l0,2.8l-1.4,0.3L46.6,80.9z
			 M48.1,83.5l0.6-0.1c0.7-0.2,1.1-0.5,1.1-1.3c0-0.6-0.3-0.9-1-0.7l-0.7,0.2L48.1,83.5z"/>
		<g>
			<path class="st27" d="M15.4,43.7c0-0.7,0.3-1.3,0.9-1.9L17,41c0.5-0.5,0.8-0.9,0.8-1.5c0-0.6-0.4-1-1-0.8
				c-0.8,0.2-1.1,0.9-1.1,1.5l-0.3,0.1c0-0.8,0.5-1.6,1.4-1.8c0.5-0.1,1.3,0,1.3,1c0,0.7-0.4,1.2-0.9,1.7l-0.7,0.7
				c-0.5,0.5-0.8,1.1-0.8,1.5l2.5-0.6V43L15.4,43.7z"/>
			<path class="st27" d="M20.3,37.6c1.1-0.3,1.4,0.4,1.4,2.1c0,1.8-0.5,2.6-1.4,2.8c-1,0.2-1.4-0.4-1.4-2.1
				C18.8,38.7,19.3,37.8,20.3,37.6z M20.3,42.3c0.7-0.2,1.1-0.7,1.1-2.5c0-0.9,0-2.2-1.1-2c-1.1,0.3-1.1,1.8-1.1,2.5
				C19.1,42.2,19.6,42.5,20.3,42.3z"/>
			<path class="st27" d="M22.3,42c0-0.7,0.3-1.3,0.9-1.9l0.7-0.7c0.5-0.5,0.8-0.9,0.8-1.5c0-0.6-0.4-1-1-0.8
				c-0.8,0.2-1.1,0.9-1.1,1.5l-0.3,0.1c0-0.8,0.5-1.6,1.4-1.8c0.5-0.1,1.3,0,1.3,1c0,0.7-0.4,1.2-0.9,1.7l-0.7,0.7
				c-0.5,0.5-0.8,1.1-0.8,1.5l2.5-0.6v0.3L22.3,42z"/>
			<path class="st27" d="M27.2,36c1.1-0.3,1.4,0.4,1.4,2.1c0,1.8-0.5,2.6-1.4,2.8c-1,0.2-1.4-0.4-1.4-2.1
				C25.8,37.1,26.3,36.2,27.2,36z M27.2,40.7c0.7-0.2,1.1-0.7,1.1-2.5c0-0.9,0-2.2-1.1-2c-1.1,0.3-1.1,1.8-1.1,2.5
				C26.1,40.6,26.5,40.9,27.2,40.7z"/>
			<path class="st27" d="M31.1,35l1.6-0.4l0.7,3.3l0,0l0.7-3.7l1.5-0.4l0,4.9l-1,0.2l0-3.9l0,0l-0.9,4.1L33,39.5l-0.9-3.7l0,0v3.9
				l-1,0.2L31.1,35z"/>
			<path class="st27" d="M37.5,33.5l1.3-0.3l1.4,4.6l-1.1,0.3l-0.2-1l-1.4,0.3l-0.2,1.1l-1.1,0.3L37.5,33.5z M37.6,36.5l1-0.2
				l-0.5-2.1l0,0L37.6,36.5z"/>
			<path class="st27" d="M40.5,32.8l1.9-0.5c0.9-0.2,1.4,0.1,1.4,0.9c0,0.7-0.3,1.2-0.9,1.4l0,0c0.7-0.1,0.8,0.3,0.8,1.3
				c0,0.5,0,0.8,0.2,0.8l0,0l-1.1,0.3c-0.1-0.1-0.1-0.3-0.1-0.5l0-0.9c0-0.4-0.2-0.6-0.6-0.5l-0.6,0.1l0,2.1l-1,0.2L40.5,32.8z
				 M41.6,34.7l0.4-0.1c0.5-0.1,0.8-0.4,0.8-0.9c0-0.5-0.3-0.6-0.7-0.5l-0.5,0.1V34.7z"/>
			<path class="st27" d="M47.3,32.6c0-0.7-0.4-1.2-1.1-1c-1,0.2-1.4,1.2-1.4,2.6c0,1.3,0.3,2.2,1.3,2c1-0.2,1.2-1.4,1.2-1.8l0.3-0.1
				c0,0.6-0.3,1.8-1.6,2.1c-1.1,0.3-1.6-0.6-1.6-2.2c0-1.5,0.5-2.7,1.7-2.9c1.2-0.3,1.5,0.7,1.5,1.2L47.3,32.6z"/>
			<path class="st27" d="M51.4,32.7c0,2.2-0.9,2.8-1.7,2.9c-1,0.2-1.7-0.2-1.7-2.1c0-1.9,0.7-2.7,1.7-2.9
				C50.8,30.3,51.4,30.8,51.4,32.7z M48.4,33.4c0,1.4,0.3,2.2,1.4,2c1-0.2,1.4-1.1,1.4-2.6c0-1.3-0.3-2.2-1.4-2
				C48.8,31,48.4,32,48.4,33.4z"/>
			<path class="st27" d="M55.7,29.6L55.7,29.6l-1.5,4.9l-0.3,0.1l-1.5-4.2l0,0l0,4.5L52.1,35l0-4.9l0.5-0.1l1.5,4.1l0,0l1.4-4.8
				l0.5-0.1V34l-0.3,0.1V29.6z"/>
		</g>
	</g>
</g>
</svg>
