<?xml version="1.0" encoding="utf-8"?>
<!-- Generator: Adobe Illustrator 25.3.1, SVG Export Plug-In . SVG Version: 6.00 Build 0)  -->
<svg version="1.1" id="Layer_1" xmlns="http://www.w3.org/2000/svg" xmlns:xlink="http://www.w3.org/1999/xlink" x="0px" y="0px"
	 viewBox="0 0 154 38" style="enable-background:new 0 0 154 38;" xml:space="preserve">
<style type="text/css">
	.st0{fill:#FFFFFF;}
</style>
<g id="layer1" transform="translate(-137.8498,-390.54123)">
	<g id="g23944" transform="matrix(1.5421564,0,0,1.5421564,148.7686,-598.51789)">
		<g id="g13605" transform="matrix(0,2.7249422,2.7249422,0,129.07155,656.47605)">
			<path id="path13607" class="st0" d="M-3.6-34.7c0-0.7,0.3-1.4,0.9-1.9l0,0l0,0l-0.8,0v-1.6h5.8v1.6h-3.3c-0.6,0-1.2,0.5-1.2,1.3
				c0,0.7,0.5,1.3,1.2,1.3h3.3v1.6h-3.6C-2.7-32.3-3.6-33.3-3.6-34.7"/>
		</g>
		<g id="g13609" transform="matrix(0,2.7249422,2.7249422,0,247.76404,657.32296)">
			<path id="path13611" class="st0" d="M-3.9-64.6l3.9-1.4l-3.9-1.4v-1.8l5.8,2.4v1.7l-5.8,2.4V-64.6z"/>
		</g>
		<g id="g13613" transform="matrix(0,2.7249422,2.7249422,0,57.56743,672.48808)">
			<path id="path13615" class="st0" d="M-7.7-16.6c-0.4,0.3-0.6,0.7-0.6,1.2c0,0.6,0.3,1,0.8,1.2l1.1-2.8C-6.9-17-7.4-16.9-7.7-16.6
				 M-5.4-13.6c0.5-0.7,0.6-1,0.6-1.7c0-0.5-0.2-1-0.5-1.3l-1.7,4c-0.6-0.1-1.2-0.3-1.6-0.7c-0.6-0.5-0.9-1.3-0.9-2.3
				c0-1.7,1.3-3.1,3-3.1c1.7,0,3,1.3,3,3.2c0,1.1-0.5,2.2-1.1,2.7L-5.4-13.6z"/>
		</g>
		<g id="g13617" transform="matrix(0,2.7249422,2.7249422,0,39.971116,694.96858)">
			<path id="path13619" class="st0" d="M-13.4-12.2v-3.6h-6v-1.6h7.5v5.2H-13.4z"/>
		</g>
		<g id="g13621" transform="matrix(0,2.7249422,2.7249422,0,288.37412,668.31919)">
			<path id="path13623" class="st0" d="M-6.6-74.9c0-0.9,0.7-1.5,1.6-1.5c0.9,0,1.6,0.7,1.6,1.5c0,0.9-0.7,1.5-1.6,1.5
				C-5.9-73.3-6.6-74-6.6-74.9 M-2-74.9c0-1.7-1.3-3.1-3-3.1c-1.7,0-3,1.4-3,3.1c0,1.7,1.3,3.1,3,3.1C-3.3-71.8-2-73.1-2-74.9"/>
		</g>
		<g id="g13625" transform="matrix(0,2.7249422,2.7249422,0,181.94605,668.31919)">
			<path id="path13627" class="st0" d="M-6.6-48c0-0.9,0.7-1.5,1.6-1.5c0.9,0,1.6,0.7,1.6,1.5c0,0.9-0.7,1.5-1.6,1.5
				C-5.9-46.5-6.6-47.1-6.6-48 M-2-48c0-1.7-1.3-3.1-3-3.1c-1.7,0-3,1.4-3,3.1c0,1.7,1.3,3.1,3,3.1C-3.3-44.9-2-46.3-2-48"/>
		</g>
	</g>
</g>
</svg>
