<?xml version="1.0" encoding="utf-8"?>
<!-- Generator: Adobe Illustrator 25.2.3, SVG Export Plug-In . SVG Version: 6.00 Build 0)  -->
<svg version="1.1" id="svg2320" xmlns:svg="http://www.w3.org/2000/svg"
	 xmlns="http://www.w3.org/2000/svg" xmlns:xlink="http://www.w3.org/1999/xlink" x="0px" y="0px" viewBox="0 0 57.5 57.5"
	 style="enable-background:new 0 0 57.5 57.5;" xml:space="preserve">
<style type="text/css">
	.st0{fill:#FFFFFF;}
</style>
<g>
	<path class="st0" d="M28.9,0.3C13.1,0.3,0.3,13.1,0.3,28.9s12.8,28.6,28.6,28.6s28.6-12.8,28.6-28.6S44.7,0.3,28.9,0.3z M28.9,56.1
		c-15,0-27.2-12.2-27.2-27.2S13.9,1.7,28.9,1.7s27.2,12.2,27.2,27.2S43.9,56.1,28.9,56.1z"/>
	<path class="st0" d="M15.5,46.7c0,0.4,0.3,0.6,0.6,0.6c1.1,0,1.4-0.5,1.4-1.6C16.8,46,15.5,45.8,15.5,46.7z"/>
	<path class="st0" d="M28.6,43.9h-0.2c-0.6,0-0.9,0.6-1,1.1h2.3C29.7,44.4,29.3,43.9,28.6,43.9z"/>
	<path class="st0" d="M33.5,46.7c0,0.3,0.3,0.6,0.6,0.6c1.2,0,1.4-0.5,1.4-1.6C34.9,46,33.5,45.8,33.5,46.7z"/>
	<path class="st0" d="M28.9,3C14.6,3,3,14.6,3,28.9s11.6,25.9,25.9,25.9s25.9-11.6,25.9-25.9S43.2,3,28.9,3z M34.7,16.1
		c0.2-1.1,0.2-2.7,0.2-3.9v-1.3h2.3c0,3.1-0.6,6.1-1.3,8.5c-0.4,1.3-0.8,2.5-1.3,3.6C34.1,24,33.5,25,32.9,26c1.1,2.1,2.3,3.8,3,6.4
		c0.7,2.5,1.4,4.9,1.4,8v0.9h-2.3v-0.9c0-2.5-0.3-5.9-0.8-7.9c-0.3-1.3-0.6-2.2-1-3.4C33.1,28.6,32,26.1,32,26c0-0.1,1.1-2.6,1.2-3
		c0.3-1,0.7-2.2,0.9-3.3c0.1-0.5,0.3-1.2,0.4-1.7C34.6,17.3,34.6,16.7,34.7,16.1z M26.2,10.8h2.3l-0.1,15.4l0,15.1h-2.3v-1.8
		c0-4,0.5-10.2,1.4-13.4c0,0-0.8-5.6-0.9-6.4c-0.2-2.3-0.4-4.5-0.4-7L26.2,10.8L26.2,10.8z M20.2,10.8h2.3V12c0,1.4,0.1,2.8,0.2,4.1
		c0.2,1.3,0.5,2.5,0.6,3.6c0.2,1.2,0.6,2.3,0.9,3.4c0.1,0.4,1.2,3,1.2,3c0,0-0.6,1.3-0.7,1.5c-0.2,0.5-0.4,1-0.6,1.5
		c-0.4,1.1-0.6,2.1-0.9,3.3c-0.5,1.7-0.8,5.4-0.8,7.6v1.3h-2.3v-1.6c0-2.4,0.9-5.8,1.5-7.6c0.9-2.6,1.8-3.9,2.9-6.1
		c-0.5-1-1.1-1.9-1.7-3.1c-0.5-1.1-0.9-2.2-1.3-3.4c-0.7-2-1.4-5.5-1.4-8.1L20.2,10.8L20.2,10.8z M13.8,40.3c0-3.5,1-6.4,2.3-8.7
		c0.6-1.2,1.5-2.3,2.4-3.2c0.5-0.5,0.9-0.9,1.5-1.3c0.3-0.2,1.5-1,1.6-1.1c-0.7-0.2-2.5-1.7-3-2.3c-0.9-0.9-1.6-1.9-2.3-3
		c-1-1.7-2.4-5.3-2.4-8v-1.9h2.4v1c0,3,0.9,6.3,1.9,8.3c0.6,1.1,1.1,2.2,1.9,3.2c0.4,0.5,0.7,1,1.1,1.4c0.4,0.5,0.9,0.8,1.2,1.3
		c-1.5,1-3.4,4.1-4.3,5.9c-0.9,1.9-2,5.3-2,8.1v1.3h-2.4V40.3z M17.7,48.2l-0.1-0.5c-0.5,0.1-0.7,0.7-1.8,0.7h-0.1
		c-1.1,0-1.8-0.6-1.8-1.7c0-2.1,3.6-1.2,3.6-2.1c0-0.3-0.3-0.5-0.6-0.5h-0.5c-0.4,0-0.7,0.3-0.7,0.7h-1.5v-0.2
		c0-1.1,1.4-1.6,2.6-1.6c1.2,0,2.3,0.4,2.3,1.7c0,0.7,0,1.4,0,2c0,0.2,0,0.8,0,1c0.1,0.4,0.3,0.2,0.3,0.6L17.7,48.2L17.7,48.2z
		 M19.5,41.4H17c0-0.2-0.1-0.3-0.1-0.5V40c0-3.2,1.1-5.8,2-8.1c0.4-1.1,1.3-2.2,1.9-3.1c0.7-1,1.7-1.9,2.3-2.8
		c-1.1-0.7-3.5-4.4-4.1-5.8c-0.9-2.2-1.9-5-1.9-8v-1.3h2.5c0,3.3,0.5,6.1,1.2,8.7c0.3,1.1,0.9,2.6,1.4,3.5c0.2,0.4,1.9,3,1.9,3
		c0,0.1-1,1.2-1.1,1.4c-0.3,0.5-0.6,1-0.9,1.5c-0.5,1-1.1,2.3-1.4,3.4c-0.7,2.7-1.3,5.1-1.3,8.5L19.5,41.4L19.5,41.4z M25.3,46.4
		c0,1.3-1.2,1.9-2.5,1.9c-1.4,0-2.8-0.5-2.8-1.9h1.4c0.4,0,0,0.8,1.2,0.8h0.2c0.4,0,0.9-0.1,0.9-0.5v-0.1c0-0.7-3.5-0.3-3.5-2v-0.3
		c0-1.1,1.2-1.6,2.3-1.6c1.7,0,2.3,0.4,2.7,1.8h-1.6c0-0.4-0.3-0.7-0.7-0.7h-0.4c-0.4,0-0.8,0.2-0.8,0.5
		C21.7,45.1,25.3,44.7,25.3,46.4L25.3,46.4L25.3,46.4z M25.5,41.4h-2.3c0-4.9,1.2-12.2,2.9-15.3c-1.6-3.1-2.8-10.4-2.8-15.2h2.3v3.8
		c0,1.8,0.2,4.3,0.5,6c0.1,0.8,0.9,5.2,0.7,5.5c-0.3,0.9-0.8,4.5-0.8,5.7c-0.1,1.9-0.5,3.9-0.5,6L25.5,41.4L25.5,41.4z M31.4,46
		h-3.9c0,0.7,0.5,1.2,1.2,1.2h0.3c0.6,0,0.7-0.5,0.9-0.5h1.4c-0.2,1.1-1.3,1.7-2.6,1.7h-0.1c-1.6,0-2.7-1-2.7-2.6v-0.2
		c0-1.7,1-2.8,2.7-2.8c1.8,0,2.7,1.1,2.7,3V46z M29,41.4l0-15.1l-0.1-15.4h2.4v1.7c0,1.3-0.1,2.6-0.2,3.8c0,1.1-0.1,2.6-0.2,3.7
		c-0.2,1.1-0.2,2.4-0.5,3.5c-0.3,1.3-0.5,2-0.2,3.2c0.9,4,1.2,9.7,1.2,14.5H29z M31.1,28.9c0-0.2-0.5-2.9-0.5-2.9
		c0-0.4,0.4-2.3,0.5-3c0.1-0.9,0.2-2,0.4-3c0.3-1.9,0.4-4.3,0.4-6.4v-2.7h2.3c0,4.8-1.2,12.1-2.8,15.2c1.7,3.2,2.9,10.4,2.9,15.3H32
		v-2.9c0-2.4-0.2-4.4-0.5-6.5C31.4,31.2,31.3,29.5,31.1,28.9z M35.7,48.2l-0.1-0.5c-0.3,0.1-0.9,0.7-1.5,0.7h-0.4
		c-0.8,0-1.6-0.6-1.6-1.4v-0.3c0-2.1,3.5-1.3,3.5-2v-0.2c0-0.3-0.3-0.5-0.6-0.5h-0.4c-0.5,0-0.8,0.2-0.9,0.7h-1.5
		c0.1-1.3,1.1-1.9,2.5-1.9c1.3,0,2.3,0.4,2.3,1.7c0,0.7,0,1.4,0,2c0,1.3,0.4,1.2,0.4,1.6L35.7,48.2L35.7,48.2z M36.8,32.6
		c-0.3-1.2-0.9-2.5-1.4-3.6c-0.3-0.6-0.6-1.1-0.9-1.6c-0.1-0.2-1-1.3-1-1.4c0-0.1,0.9-1.2,1.1-1.4c0.3-0.5,0.7-1.1,0.9-1.5
		c0.5-0.9,1.1-2.4,1.4-3.5c0.7-2.5,1.2-5.3,1.2-8.5v-0.2h2.4c0,0.2,0.1,0.2,0.1,0.4v0.1c0,3.7-0.7,6-1.8,8.6c-0.7,1.6-3,5.3-4.2,6.1
		c0.6,0.9,1.6,1.8,2.3,2.8c0.6,0.9,1.5,2.1,1.9,3.2c0.9,2.4,2,4.8,2,8v1.3H38C38,37.7,37.5,35.4,36.8,32.6z M43.6,48.2H42v-3.4
		c0-0.4-0.3-0.7-0.7-0.7h-0.5c-0.6,0-0.9,0.6-0.9,1.3v2.9h-1.6v-5.2h1.5v0.7c0.6-0.4,0.7-0.9,1.8-0.9c1.1,0,2,0.7,2,1.8L43.6,48.2
		L43.6,48.2z M43.7,41.4h-2.4v-1.2c0-2.9-1-6.3-2-8.2c-0.9-1.7-2.8-4.9-4.3-5.9c0.3-0.5,0.9-0.8,1.3-1.3c0.4-0.5,0.7-0.9,1.1-1.4
		c0.7-1,1.3-2.1,1.9-3.2c1-2,1.9-5.3,1.9-8.2v-1.1h2.4V12c0,3.1-1.1,6.7-2.3,8.6c-0.8,1.2-1.3,2.1-2.3,3.1c-0.5,0.5-2.3,2.1-3.1,2.3
		c0.1,0.1,2.5,1.8,3,2.4c0.8,0.8,1.8,2,2.3,3.1c1.1,2.2,2.4,5.1,2.4,8.4L43.7,41.4L43.7,41.4z"/>
</g>
</svg>
