<?xml version="1.0" encoding="utf-8"?>
<!-- Generator: Adobe Illustrator 25.3.1, SVG Export Plug-In . SVG Version: 6.00 Build 0)  -->
<svg version="1.1" id="svg2320" xmlns:svg="http://www.w3.org/2000/svg"
	 xmlns="http://www.w3.org/2000/svg" xmlns:xlink="http://www.w3.org/1999/xlink" x="0px" y="0px" viewBox="0 0 57.5 57.5"
	 style="enable-background:new 0 0 57.5 57.5;" xml:space="preserve">
<style type="text/css">
	.st0{fill:#FFFFFF;}
</style>
<g id="Fn8MZ2_1_">
	<g>
		<path class="st0" d="M9,14.8c0.2,0.2,0.4,0.3,0.5,0.4c-0.9,1.6-0.9,2.9,0.1,4c2-3.3,4.5-6.1,7.6-8.4c-0.4-0.9-0.5-1.7-0.1-2.7
			c0.2,0.1,0.4,0.2,0.6,0.2c-0.1,0.2-0.1,0.5-0.2,0.7c-0.1,0.8,0.2,1.4,0.6,2c0.7,0.8,1.6,1.4,2.6,1.9c1.1-1.3,2.4-2.5,3.7-3.6
			c1.3-1.1,2.8-2,4.4-2.7c0.1,0.1,0.1,0.2,0.1,0.3C29,6.9,29,7,29.1,7.2c-1.5,0.7-2.9,1.6-4.2,2.6c-1.3,1-2.5,2.1-3.6,3.4
			c0.6,0.2,1.1,0.4,1.6,0.5c3.9,1,7.9,1.1,11.8-0.1c1.3-0.4,2.5-0.9,3.6-1.8c0.4-0.3,0.8-0.7,1.1-1.2c0.4-0.6,0.4-1.3-0.1-1.8
			C39,8.4,38.6,8,38.1,7.7c-0.8-0.5-1.8-0.8-2.6-1.2c-0.1,0-0.2-0.1-0.3-0.1c0.1-0.2,0.1-0.4,0.2-0.6C35.6,5.9,35.8,6,36.1,6
			C37,6.4,38,6.8,38.8,7.4c0.4,0.3,0.9,0.7,1.2,1.2c0.5,0.7,0.5,1.5,0.1,2.3c-0.3,0.6-0.8,1.1-1.4,1.4c-1.6,1.1-3.3,1.8-5.2,2.3
			c-2.4,0.6-4.9,0.7-7.3,0.4c-0.2,0-0.3,0-0.5-0.1c-0.8,3.3-1.3,6.6-1.8,10c0.5,0.1,1.1,0.1,1.6,0.2c0,0.2,0,0.4-0.1,0.6
			c-0.5-0.1-1.1-0.1-1.6-0.2c0,0.4-0.1,0.7-0.1,1.1c-0.4,3.9-0.6,7.8-0.5,11.7c0,1.1,0.1,2.2,0.2,3.4c0,0.3,0.1,0.4,0.4,0.4
			c0.4,0,0.7,0,1.1,0.1c0,0.2,0,0.4,0,0.6c-0.5,0-0.9-0.1-1.4-0.1c0.3,2.7,0.8,5.4,1.7,8c-0.2,0.1-0.4,0.1-0.6,0.2
			c-1-2.7-1.5-5.5-1.8-8.3c-3.1-0.4-6.2-1.1-9.3-2.1c1,3.8,3,6.8,6.5,8.7c-0.1,0.2-0.2,0.4-0.3,0.6c-0.2-0.1-0.3-0.2-0.4-0.2
			c-2.9-1.6-4.8-4.1-5.9-7.2c-0.2-0.6-0.4-1.2-0.6-1.9c0-0.2-0.1-0.3-0.3-0.3c-0.5-0.2-1-0.4-1.5-0.6c-0.1-0.1-0.2-0.1-0.4-0.2
			c0.1-0.2,0.3-0.3,0.4-0.5c0.5,0.2,1,0.4,1.6,0.7c-0.5-2.8-0.5-5.5-0.1-8.3c0.4-2.7,1.1-5.4,2.1-8c-1.8-0.7-3.5-1.6-4.9-3
			c-3.6,6.6-3.7,13.2-0.4,19.9c-0.2,0.1-0.4,0.2-0.6,0.3c-0.2-0.4-0.4-0.7-0.5-1.1c-1.4-3.1-2.1-6.4-1.9-9.8
			c0.2-3.4,1.2-6.5,2.8-9.5c0.1-0.2,0.1-0.4,0-0.6c-0.8-1.1-1.1-2.3-0.6-3.7C8.5,15.5,8.8,15.2,9,14.8z M23.1,25.5
			c-2.7-0.4-5.4-1-8-1.9c0,0.1-0.1,0.2-0.1,0.3c-0.7,1.9-1.3,3.9-1.7,6c-0.6,3.2-0.7,6.4-0.2,9.6c0.1,0.3,0.2,0.4,0.4,0.5
			c2.4,0.8,4.9,1.4,7.5,1.8c0.5,0.1,1,0.1,1.5,0.2C22.2,36.4,22.5,31,23.1,25.5z M25,14.8c-0.1,0-0.2,0-0.2-0.1
			c-1.2-0.2-2.4-0.5-3.6-1c-0.2-0.1-0.3-0.1-0.5,0.1c-1.6,2-3,4.2-4.2,6.5c-0.4,0.8-0.8,1.7-1.1,2.5c1.1,0.6,6.8,1.9,7.8,1.9
			C23.7,21.5,24.2,18.1,25,14.8z M17.5,11.3c-3.1,2.3-5.5,5.2-7.5,8.4c1.4,1.4,3,2.2,4.8,2.9c1.4-3.4,3.2-6.5,5.5-9.3
			C19.2,12.9,18.3,12.3,17.5,11.3z"/>
		<path class="st0" d="M26.8,49.3c0.6,0.4,1.2,0.7,1.9,0.8c0.4,0.1,0.9,0.1,1.3,0c0.6-0.2,0.8-0.8,0.3-1.2c-0.2-0.2-0.4-0.3-0.6-0.4
			c-0.5-0.3-1-0.5-1.5-0.8c-0.7-0.4-1.1-1-1.1-1.9c0-0.8,0.5-1.4,1.2-1.7c1.2-0.5,2.3-0.4,3.5-0.1c0.1,0,0.1,0.1,0.1,0.2
			c0,0.4,0,0.8,0,1.1c-0.4-0.1-0.8-0.3-1.2-0.4c-0.3-0.1-0.7,0-1,0.1c-0.5,0.2-0.6,0.8-0.1,1.1c0.2,0.1,0.4,0.2,0.7,0.3
			c0.5,0.2,1,0.4,1.4,0.7c0.7,0.4,1.2,1,1.2,1.9c0,1-0.8,1.9-1.9,2.2c-1.1,0.2-2.3,0.2-3.4-0.2c-0.1,0-0.2-0.1-0.2-0.2
			C27.1,50.3,27,49.8,26.8,49.3z"/>
		<path class="st0" d="M27.1,34.6c1.5,0,3,0,4.5,0c0,0.5,0,0.9,0,1.5c-0.5-0.6-1.2-0.4-1.9-0.4c0,0.6,0,1.2,0,1.8c0.5,0,1,0,1.5,0
			c0,0.5,0,1,0,1.5c-0.4-0.6-1-0.3-1.6-0.4c0,0.7,0,1.3,0,2c0,0.1,0.1,0.1,0.2,0.2c1,0.2,1.9,0.3,2.8-0.5c-0.1,0.3-0.2,0.6-0.2,0.9
			c-0.1,0.3-0.2,0.5-0.2,0.8c-1.7,0-3.4,0-5.1,0c0.5-0.5,0.4-1.2,0.4-1.8c0-1.4,0-2.8,0-4.3C27.4,35.4,27.4,34.9,27.1,34.6
			C27.1,34.6,27.1,34.6,27.1,34.6z"/>
		<path class="st0" d="M27.5,25.3c1.6,0,3.1,0,4.6,0c0,0.4,0,0.9,0,1.4c-0.5-0.5-1.2-0.3-1.9-0.4c0,0.6,0,1.2,0,1.8
			c0.4,0,0.9,0,1.3,0c0,0.5,0,1,0,1.6c-0.3-0.6-0.8-0.4-1.3-0.5c0,0.2,0,0.3,0,0.5c0,0.5,0,1,0,1.5c0,0.5,0.1,0.9,0.5,1.3
			c-1.1,0-2.1,0-3.1,0c0.5-0.4,0.4-1,0.4-1.5c0-1.5,0-3,0-4.5C28,26.1,28,25.7,27.5,25.3z"/>
		<path class="st0" d="M28.3,16c1,0,2,0,3,0c-0.4,0.3-0.4,0.7-0.4,1.1c0,1.7,0,3.3,0,5c0,0.4,0.1,0.8,0.5,1.1c-1.1,0-2.1,0-3.1,0
			c0.4-0.4,0.4-0.8,0.4-1.3c0-1.6,0-3.1,0-4.7C28.7,16.8,28.6,16.4,28.3,16z"/>
		<path class="st0" d="M47.5,14.8c0.2-0.1,0.4-0.2,0.6-0.3c0.3,0.6,0.5,1.2,0.6,1.9c0.4,2.3-0.5,4-2.2,5.4c-1.3,1-2.8,1.7-4.3,2.2
			c-2.6,0.9-5.3,1.4-8,1.7c0-0.2-0.1-0.4-0.1-0.6c0.6-0.1,1.2-0.2,1.8-0.3c2.6-0.4,5.2-1,7.7-2.1c1-0.5,2-1,2.8-1.8
			c1.7-1.5,2.2-3.4,1.5-5.5C47.7,15.3,47.6,15.1,47.5,14.8z"/>
		<path class="st0" d="M50.6,34.1c0.2,0.1,0.4,0.1,0.6,0.2c-0.2,0.6-0.4,1.2-0.8,1.7c-0.9,1.3-2.1,2.2-3.4,3c-2.4,1.4-5,2.3-7.7,3
			c-1.6,0.4-3.2,0.8-4.8,0.9c0-0.2,0-0.4,0-0.6c1.4-0.3,2.8-0.5,4.2-0.8c2.7-0.6,5.3-1.5,7.8-2.9c0.5-0.3,1-0.6,1.5-1
			C49.1,36.8,50.1,35.7,50.6,34.1z"/>
		<path class="st0" d="M0.6,35.6c0.3,0.2,0.6,0,0.9,0c0.6-0.2,1.3-0.4,1.9-0.5c0.1,0,0.1,0,0.3-0.1c-0.1,0.3-0.2,0.6-0.4,0.8
			c-0.3,0.5-0.7,1-1.1,1.5c-0.1,0.1-0.1,0.2-0.1,0.3c0.6-0.2,1.3-0.2,1.8-0.7c0.2,0.5,0.3,0.9,0.5,1.4c0,0.1,0,0.3-0.1,0.5
			c-0.2,0.4-0.4,0.8-0.7,1.2c0.4-0.3,1-0.3,1.2-0.8c0.1,0.3,0.3,0.6,0.4,1c-0.6-0.2-1,0.2-1.4,0.4c-0.4,0.2-1,0.2-1.3,0.8
			c-0.2-0.6-0.5-1-0.5-1.6c0-0.5,0.5-0.8,1-0.6c0.1,0.1,0.3,0.2,0.5,0.3c0.2-0.5,0.4-0.9,0.6-1.4c0.1-0.2,0-0.4-0.3-0.3
			c-0.7,0.2-1.4,0.4-2,0.6c-0.1,0-0.2,0.2-0.3,0.2c-0.2-0.2-0.2-0.6,0-0.9c0.4-0.6,0.9-1.2,1.3-1.9c-0.6,0.2-1.3,0.2-1.8,0.7
			C0.8,36.1,0.7,35.8,0.6,35.6z M3.6,40c-0.3-0.5-0.6-0.6-0.8-0.4c-0.2,0.2-0.2,0.4,0,0.8C3,40.2,3.3,40.1,3.6,40z"/>
		<path class="st0" d="M55.4,22.5c-0.3,0.5-0.6,0.9-1,1.4c0.2,0.1,0.4,0.2,0.5,0.2c0.6,0.2,1.2,0.4,1.9,0.5c0.2,0,0.3,0,0.5,0
			c0,0.2,0.1,0.4,0.1,0.6c0,0.1-0.1,0.1-0.2,0.2c-0.5,0.3-1.1,0.6-1.6,0.9c-0.3,0.2-0.6,0.4-0.9,0.6c0-0.3-0.1-0.6-0.1-1
			c0.2,0.1,1-0.1,1-0.3c0-0.3,0-0.7-0.1-1c-0.1-0.2-0.8-0.2-1,0c0-0.3,0-0.5-0.1-0.7c-0.2-0.6,0-1.2,0.4-1.6
			c0.2-0.2,0.3-0.4,0.5-0.6c-0.4,0.1-0.9,0-1.3,0.5c-0.1-0.4-0.2-0.7-0.2-0.9c0.3,0,0.5,0,0.8-0.1c0.5-0.1,1-0.2,1.5-0.3
			c0.2-0.1,0.4-0.2,0.6-0.3c0.1,0.5,0.4,1,0.2,1.6c-0.1,0.5-0.6,0.7-1.1,0.4C55.6,22.8,55.5,22.6,55.4,22.5z M55.4,21.8
			c0.1,0.2,0.2,0.3,0.3,0.4c0.2,0.2,0.4,0.3,0.6,0.1c0.2-0.1,0.2-0.4,0.1-0.6c0-0.1-0.1-0.1-0.2-0.1C56,21.7,55.7,21.7,55.4,21.8z
			 M56.8,25.1c-0.3-0.1-0.6-0.2-0.9-0.2c0,0.2,0,0.4,0.1,0.7C56.2,25.4,56.5,25.3,56.8,25.1z"/>
		<path class="st0" d="M48.5,44.5c0.3,0,0.6,0,0.8,0.1c0.6,0.1,1.1,0.3,1.7,0.5c-0.4-0.7-1.2-1.4-1.6-1.4c0.2-0.3,0.4-0.5,0.6-0.7
			c0.4,0.8,1.6,2.1,2.1,2.1c-0.2,0.2-0.4,0.5-0.5,0.7c0,0-0.1,0-0.2,0c-0.6-0.2-1.2-0.3-1.9-0.5c0.2,0.3,0.4,0.6,0.5,0.9
			c0.2,0.3,0.3,0.6,0.5,0.9c-0.2,0.2-0.3,0.4-0.5,0.6c-0.2-0.2-0.3-0.3-0.5-0.4c-0.4-0.3-0.9-0.6-1.3-0.8c-0.2-0.1-0.5-0.2-0.7-0.3
			c0.2-0.2,0.4-0.5,0.5-0.7c0.2,0.2,0.3,0.3,0.5,0.5c0.4,0.3,0.8,0.5,1.3,0.7C49.3,46,48.9,45.3,48.5,44.5z"/>
		<path class="st0" d="M38,3.5C38,2.6,38.7,2,39.6,2c1,0,1.8,0.7,1.8,1.6c0,0.8-0.7,1.5-1.6,1.5C38.8,5.1,38,4.4,38,3.5z M40.7,3.5
			c0-0.6-0.4-1.1-1-1.1c-0.6,0-1,0.5-1,1.1c0,0.6,0.5,1.1,1.1,1.1C40.3,4.7,40.7,4.2,40.7,3.5z"/>
		<path class="st0" d="M56,19c0,0.9-0.6,1.5-1.5,1.5c-0.9,0-1.7-0.8-1.7-1.8c0-0.9,0.7-1.5,1.5-1.5C55.3,17.3,56,18.1,56,19z
			 M54.6,17.9c-0.6,0-1.2,0.5-1.2,1.1c0,0.6,0.4,1,1,1c0.6,0,1.2-0.5,1.2-1.1C55.6,18.3,55.1,17.9,54.6,17.9z"/>
		<path class="st0" d="M28.6,3.1c-1,0-1.7-0.7-1.6-1.7c0.1-0.9,1-1.6,2-1.4c0.8,0.1,1.4,0.8,1.4,1.6C30.2,2.5,29.5,3.1,28.6,3.1z
			 M29.6,1.6c0-0.7-0.5-1.2-1-1.2c-0.6,0-1,0.4-1,1.1c0,0.6,0.5,1.2,1.1,1.1C29.2,2.7,29.6,2.2,29.6,1.6z"/>
		<path class="st0" d="M9.4,8.5c0.8,0,1.5,0.6,1.5,1.5c0,0.9-0.8,1.8-1.7,1.8c-0.8,0-1.5-0.7-1.5-1.5C7.7,9.3,8.5,8.5,9.4,8.5z
			 M9.4,11.2c0.6,0,1-0.5,1-1C10.4,9.6,9.8,9,9.2,9c-0.5,0-1,0.5-1,1C8.2,10.6,8.8,11.2,9.4,11.2z"/>
		<path class="st0" d="M0.2,25.7c0-1,0.7-1.7,1.5-1.7c0.9,0,1.5,0.7,1.5,1.6c0,1-0.7,1.7-1.6,1.7C0.8,27.4,0.2,26.6,0.2,25.7z
			 M1.7,26.7c0.7,0,1.2-0.5,1.1-1.1c0-0.6-0.5-1-1.1-1c-0.7,0-1.1,0.4-1.1,1C0.6,26.3,1.1,26.7,1.7,26.7z"/>
		<path class="st0" d="M8.3,44.6c0.2,0.3,0.2,0.6,0.1,0.9c-0.1,0.7-0.3,1.4-0.4,2.2c0.4-0.5,1.2-0.7,1.4-1.5
			c0.2,0.2,0.4,0.4,0.6,0.7c0,0,0,0.1,0,0.1c-0.4-0.1-0.6,0.2-0.8,0.4c-0.3,0.3-0.7,0.6-1,0.9c-0.2,0.2-0.3,0.4-0.4,0.6
			c-0.3-0.1-0.4-0.4-0.4-0.8c0.1-0.7,0.3-1.5,0.4-2.2c-0.4,0.5-1.2,0.7-1.3,1.5c-0.2-0.2-0.4-0.5-0.5-0.6c0.3-0.2,0.5-0.3,0.7-0.5
			C7.2,45.6,7.7,45.1,8.3,44.6z"/>
		<path class="st0" d="M16.8,6.4c-0.3,0-0.6,0-0.8-0.1c-0.7-0.2-1.4-0.5-2.1-0.7c0.4,0.5,0.5,1.3,1.2,1.6c-0.3,0.2-0.5,0.3-0.8,0.5
			c0-0.6-1-2.3-1.5-2.5c0.3-0.3,0.5-0.4,0.9-0.3c0.7,0.2,1.3,0.5,2,0.7c0,0,0,0,0.1,0c-0.4-0.5-0.5-1.2-1.2-1.6
			c0.2-0.2,0.5-0.3,0.8-0.5c-0.2,0.5,0.2,0.8,0.4,1.2C16.2,5.3,16.5,5.8,16.8,6.4C16.9,6.3,16.8,6.4,16.8,6.4z"/>
		<path class="st0" d="M1.2,21.1c0.1-0.3,0.2-0.6,0.3-1c0.2,0.5,0.7,0.5,1.1,0.6c0.6,0.2,1.2,0.3,1.8,0.5c0,0,0,0.1,0,0.1
			c-0.2,0.2-0.4,0.4-0.7,0.5C3.2,22,2.6,22.3,2,22.5c-0.1,0-0.2,0.1-0.3,0.2c0.7,0.1,1.2,0.6,2,0.3c-0.1,0.3-0.2,0.6-0.3,0.9
			c-0.2-0.4-0.5-0.5-0.8-0.5c-0.4-0.1-0.8-0.2-1.3-0.3c-0.2,0-0.4,0-0.7,0c-0.1-0.3,0.1-0.6,0.4-0.7c0.6-0.3,1.3-0.6,1.9-0.8
			c0,0,0.1,0,0.1-0.1C2.3,21,1.7,20.9,1.2,21.1z"/>
		<path class="st0" d="M33.4,3.5c-0.2-0.2-0.4-0.3-0.5-0.6c-0.4-0.5-0.7-1.1-1-1.6c-0.1-0.1-0.1-0.2-0.2-0.2c0,0.7-0.4,1.3,0,2
			c-0.3,0-0.6-0.1-0.9-0.1c0.5-0.5,0.3-1.2,0.4-1.8c0-0.1,0-0.3,0-0.4c0-0.2,0-0.4-0.1-0.7c0.3-0.1,0.6,0,0.8,0.3
			c0.4,0.6,0.8,1.2,1.2,1.8c0-0.6,0.4-1.3,0-2c0.3,0,0.6,0.1,0.9,0.1c-0.5,0.5-0.3,1.2-0.4,1.8C33.5,2.6,33.5,3,33.4,3.5
			C33.5,3.5,33.4,3.5,33.4,3.5z"/>
		<path class="st0" d="M16.2,3.2C16.8,3,17.3,2.6,18,2.6c1,0,1.7,1.1,1.2,2.1c-0.1,0.2-0.3,0.5-0.5,0.6c-0.4,0.3-0.9,0.5-1.4,0.7
			C17.2,4.9,16.8,4,16.2,3.2z M17.8,5.2c0.5-0.1,0.9-0.5,1-0.9c0.1-0.4-0.2-1-0.6-1.1c-0.4-0.2-0.9,0-1.2,0.3
			C17.3,4,17.6,4.6,17.8,5.2z"/>
		<path class="st0" d="M10.7,6.8C10.8,7,10.9,7.2,11,7.4c0.3,0.4,0.5,0.7,0.8,1c0.4,0.4,0.8,0.3,1.1-0.1c0.1-0.2,0.1-0.4,0-0.6
			c-0.3-0.4-0.6-0.8-0.9-1.2c-0.1-0.1-0.3-0.2-0.4-0.3C11.7,6,12,5.8,12.3,5.6c-0.1,0.4,0.2,0.6,0.3,0.9c0.3,0.4,0.6,0.7,0.9,1.1
			C13.6,7.7,13.8,7.8,14,8c-0.2,0.1-0.3,0.4-0.6,0.4c-0.3,0.3-0.5,0.5-0.8,0.7c-0.4,0.3-0.9,0.2-1.2-0.2c-0.3-0.4-0.6-0.8-0.9-1.2
			c-0.1-0.1-0.3-0.2-0.5-0.4C10.2,7.2,10.5,7,10.7,6.8z"/>
		<path class="st0" d="M35.5,56.5c-0.4,0.1-0.7,0.2-0.9,0.2c0-0.3,0-0.5-0.1-0.7c-0.1-0.5-0.3-1.1-0.4-1.6c-0.1-0.2-0.2-0.3-0.3-0.5
			c0.1,0,0.2-0.1,0.3-0.1c0.3-0.1,0.6-0.2,0.9-0.2c0.4-0.1,0.8,0.1,0.9,0.4c0.2,0.3,0.1,0.6-0.2,1c0,0-0.1,0.1-0.2,0.1
			c0.6,0.3,1.1,0.7,1.6,1c-0.4,0.2-0.8,0.3-1.3-0.1c-0.3-0.3-0.6-0.5-1-0.8C35.1,55.7,35,56.2,35.5,56.5z M34.9,55
			c0.5-0.2,0.7-0.5,0.5-0.8C35.3,54,35,54,34.7,54.2C34.7,54.5,34.8,54.8,34.9,55z"/>
		<path class="st0" d="M43.4,7.1c-0.5-0.2-0.8-0.5-0.9-1.1c0-0.3-0.1-0.7-0.1-1c-0.3,0.3-0.6,0.9-0.5,1.3c-0.3-0.2-0.6-0.3-0.9-0.5
			c0.5-0.2,1.5-2.1,1.4-2.5c0.1,0,0.1,0,0.2,0c0.3,0.2,0.6,0.3,0.9,0.5c0.4,0.3,0.6,0.6,0.5,1c-0.1,0.3-0.4,0.5-0.9,0.5
			c0,0-0.1,0-0.2,0C43.1,5.9,43.2,6.5,43.4,7.1z M42.5,4.8c0.5,0.2,0.8,0.1,0.9-0.2c0.1-0.3-0.1-0.5-0.5-0.6
			C42.8,4.2,42.6,4.5,42.5,4.8z"/>
		<path class="st0" d="M5.6,17.8c-0.1,0.3-0.2,0.6-0.4,0.9c-0.2-0.2-0.9-0.4-1-0.2c-0.2,0.3-0.4,0.6-0.4,0.9c0,0.3,0.6,0.5,0.9,0.4
			c-0.1,0.3-0.3,0.6-0.4,1c-0.2-0.6-0.6-0.9-1-1.3c-0.9-1-1-1-1.3-0.9c0.1-0.3,0.2-0.5,0.3-0.7c0-0.1,0.2-0.1,0.2-0.1
			c0.6,0,1.3,0,1.9,0C4.9,17.8,5.2,17.8,5.6,17.8z M2.9,18.4c0.2,0.2,0.3,0.4,0.5,0.6c0.1-0.2,0.2-0.4,0.2-0.6
			C3.4,18.4,3.2,18.4,2.9,18.4z"/>
		<path class="st0" d="M3.3,33.6c0,0.3,0.1,0.6,0.1,1C2.6,34,1.6,34,0.7,33.7c-0.1,0-0.2,0.1-0.4,0.1c0-0.2-0.1-0.4-0.1-0.7
			c0-0.1,0.1-0.2,0.2-0.2c0.5-0.3,1.1-0.6,1.6-1c0.3-0.2,0.6-0.4,0.9-0.6c0,0.3,0.1,0.6,0.1,1c-0.2-0.1-1,0.1-1,0.3
			c0,0.3,0,0.7,0.2,1C2.4,33.8,3.1,33.8,3.3,33.6z M1.7,32.9c-0.3,0.2-0.5,0.3-0.8,0.4c0.3,0.1,0.6,0.1,0.9,0.2
			C1.7,33.3,1.7,33.1,1.7,32.9z"/>
		<path class="st0" d="M31.3,54.4C31.4,54.4,31.4,54.4,31.3,54.4c0.8-0.1,0.8-0.1,1.1,0.5c0.2,0.4,0.5,0.8,0.7,1.2
			c0.2,0.3,0.4,0.6,0.7,0.9c-0.3,0-0.6,0.1-1,0.1c0.1-0.2-0.1-1-0.3-1c-0.3,0-0.7,0-1,0.2c-0.2,0.1-0.2,0.8,0.1,1
			c-0.3,0.1-0.6,0.1-1,0.1c0.5-0.9,0.6-1.8,0.8-2.7C31.5,54.6,31.4,54.5,31.3,54.4z M32.3,55.7c-0.2-0.3-0.3-0.5-0.4-0.8
			c-0.1,0.3-0.1,0.6-0.2,0.9C31.9,55.8,32.1,55.7,32.3,55.7z"/>
		<path class="st0" d="M20.4,1.5c0.2-0.1,0.4-0.1,0.6-0.2c0.1,0,0.2,0.1,0.2,0.1c0.4,0.5,0.9,1,1.3,1.6c0.2,0.2,0.4,0.4,0.7,0.7
			c-0.3,0.1-0.6,0.2-1,0.3C22.3,3.7,22,3,21.8,3.1c-0.3,0-0.7,0.1-1,0.3c-0.2,0.1,0,0.8,0.2,1c-0.3,0.1-0.6,0.2-1,0.3
			c0.4-0.7,0.3-1.3,0.4-1.9c0-0.2,0.1-0.5,0.1-0.8C20.5,1.8,20.5,1.7,20.4,1.5z M21.5,2.6c-0.2-0.2-0.4-0.4-0.6-0.7
			c0,0.3,0,0.6-0.1,0.9C21.1,2.8,21.3,2.7,21.5,2.6z"/>
		<path class="st0" d="M20.6,55.1c0.2-0.5,0.3-1,0.5-1.5c0.6,0.1,1.1,0.3,1.7,0.4c-0.1,0.2-0.1,0.4-0.1,0.6
			c-0.4-0.1-0.7-0.3-1.1-0.4c-0.1,0.2-0.1,0.4-0.2,0.5c0.2,0.1,0.4,0.1,0.6,0.2c0.5,0.2,0.7,0.6,0.6,1c-0.1,0.4-0.4,0.7-0.8,0.8
			c-0.4,0.1-0.9,0-1.2-0.2c-0.2-0.1-0.2-0.4-0.3-0.6c0,0,0,0,0.1,0c0.1,0.1,0.2,0.1,0.3,0.2c0.3,0.1,0.5,0.2,0.8,0.2
			c0.3,0,0.5-0.1,0.6-0.4c0.1-0.3-0.1-0.5-0.4-0.6C21.2,55.2,20.9,55.2,20.6,55.1z"/>
		<path class="st0" d="M47.4,49.3c0.3-0.1,0.5-0.3,0.8-0.4c0.1-0.1,0.1-0.3,0.1-0.4c0-0.1-0.3-0.1-0.4-0.1c-0.3,0.1-0.6,0.2-0.9,0.3
			c-0.6,0.1-0.9-0.2-0.9-0.8c0-0.5,0.6-1.2,1.1-1.3c0,0,0.1,0,0.1,0c0.2,0.1,0.3,0.2,0.5,0.3c-0.3,0.1-0.5,0.2-0.8,0.3
			c-0.2,0.1-0.3,0.2-0.4,0.4c-0.1,0.1-0.1,0.3,0,0.4c0.1,0.1,0.2,0.1,0.4,0.1c0.2,0,0.3-0.1,0.5-0.1c0.2-0.1,0.4-0.1,0.6-0.1
			c0.6-0.1,1,0.4,0.8,1c-0.2,0.4-0.5,0.7-0.9,0.9c-0.1,0-0.2,0-0.2,0C47.6,49.5,47.5,49.4,47.4,49.3z"/>
		<path class="st0" d="M38.4,53.3c-0.4-0.2-0.7-0.2-1,0.1c-0.1,0.1-0.2,0.2-0.1,0.3c0,0.1,0.1,0.2,0.2,0.2c0.1,0.1,0.3,0.1,0.4,0.1
			c0.2,0,0.4,0,0.5,0.1c0.7,0.1,1,0.7,0.5,1.3c-0.3,0.5-0.8,0.6-1.4,0.6c-0.1,0-0.1,0-0.2-0.1c-0.1-0.2-0.2-0.3-0.4-0.5
			c0.1,0,0.2,0.1,0.3,0.1c0.3,0,0.5,0,0.8,0c0.2,0,0.5-0.2,0.5-0.5c0-0.3-0.3-0.3-0.5-0.3c-0.3,0-0.6,0-0.8-0.1
			c-0.3-0.1-0.5-0.3-0.6-0.6c-0.1-0.3,0-0.6,0.3-0.7c0.3-0.2,0.6-0.3,1-0.4c0.2-0.1,0.3,0,0.4,0.2C38.3,53,38.3,53.1,38.4,53.3z"/>
		<path class="st0" d="M54.7,39.1c0.2-0.2,0.4-0.4,0.5-0.7c0.1-0.1,0-0.3-0.1-0.4c-0.1-0.1-0.3,0-0.4,0.1c-0.2,0.2-0.4,0.4-0.6,0.6
			c-0.6,0.5-1.2,0.3-1.3-0.5c-0.1-0.6,0.1-1,0.5-1.5c0,0,0.1-0.1,0.2-0.1c0.2,0,0.4,0,0.6,0.1c-0.1,0.1-0.2,0.1-0.3,0.2
			c-0.3,0.2-0.6,0.5-0.6,0.9c0,0.1,0.1,0.3,0.2,0.4c0.1,0.1,0.3,0,0.4-0.1c0.2-0.1,0.3-0.3,0.4-0.4c0.4-0.4,0.8-0.5,1.2-0.3
			c0.3,0.2,0.4,0.7,0.2,1.2c0,0.1,0,0.1-0.1,0.2C55.2,39.4,55.3,39.3,54.7,39.1z"/>
		<path class="st0" d="M56.4,33.6c0.1-0.3,0.3-0.5,0.3-0.8c0-0.1-0.1-0.3-0.2-0.4c-0.1,0-0.3,0.1-0.4,0.2c-0.2,0.2-0.3,0.5-0.5,0.7
			c-0.4,0.5-1.1,0.5-1.3-0.2c-0.2-0.5-0.1-1.1,0.1-1.6c0-0.1,0.1-0.1,0.2-0.1c0.2,0,0.4,0,0.5,0c-0.2,0.3-0.3,0.6-0.5,0.9
			c-0.1,0.1,0,0.3,0,0.4c0.1,0.3,0.3,0.3,0.5,0.1c0.2-0.2,0.3-0.4,0.4-0.5c0.4-0.5,0.7-0.7,1.1-0.6c0.4,0.1,0.5,0.5,0.5,1.1
			c0,0.1,0,0.1,0,0.2C57,33.8,57,33.8,56.4,33.6z"/>
		<path class="st0" d="M53.1,14.2c-0.1-0.6-0.2-1.2-0.9-1.3c-0.5-0.1-1,0.2-1.1,0.7c-0.3,0.8,0.3,1.2,0.8,1.6
			c-0.5,0.2-0.7,0.2-1-0.2c-0.2-0.3-0.4-0.6-0.4-0.9c-0.2-0.7,0.1-1.3,0.7-1.7c0.6-0.4,1.3-0.3,1.8,0.2c0.2,0.2,0.3,0.4,0.4,0.6
			C53.7,13.9,53.7,13.9,53.1,14.2z"/>
		<path class="st0" d="M6.6,42.3C6,42.3,4.2,43.3,4,43.7c0,0,0,0-0.1,0c-0.3-0.5-0.6-1-0.8-1.5c0.2-0.1,0.4-0.2,0.5-0.3
			c0.1,0.3,0.2,0.6,0.3,0.9c0.2-0.1,0.4-0.2,0.6-0.4c-0.1-0.2-0.2-0.4-0.4-0.6c0.2-0.1,0.3-0.2,0.5-0.3c0.1,0.2,0.2,0.4,0.3,0.7
			c0.3-0.2,0.5-0.3,0.8-0.4c-0.2-0.5-0.3-0.9-0.8-1.1c0,0,0-0.1,0-0.1c0.2,0,0.4-0.1,0.6-0.1c0,0,0.1,0,0.1,0.1
			C5.9,41.2,6.2,41.8,6.6,42.3z"/>
		<path class="st0" d="M50.3,11.8c-0.1-0.2-0.3-0.4-0.4-0.6c-0.2,0.2-0.5,0.4-0.7,0.6c0.2,0.4,0.5,0.8,1.1,0.9c0,0,0,0.1,0,0.1
			c-0.2,0.1-0.4,0.1-0.6,0.2c0,0-0.1,0-0.2-0.1c-0.4-0.5-0.8-0.9-1.2-1.4c0.4,0.1,0.7-0.2,0.9-0.4c0.4-0.3,0.7-0.6,1.1-0.9
			c0.1-0.1,0.2-0.3,0.4-0.5c0.3,0.4,0.7,0.8,1.1,1.3c-0.2,0.1-0.3,0.3-0.4,0.4c-0.2-0.3-0.3-0.6-0.5-0.8c-0.2,0.2-0.4,0.3-0.6,0.5
			c0.2,0.2,0.3,0.4,0.5,0.6C50.5,11.6,50.4,11.7,50.3,11.8z"/>
		<path class="st0" d="M27.9,57.5c0.3-0.4,0.2-2.5-0.1-2.9c0.6,0,1.2,0,1.8,0c0,0.1,0,0.3,0,0.5c-0.3,0-0.6-0.1-0.9-0.1
			c0,0.3,0,0.5,0,0.7c0.2,0,0.5,0,0.7,0c0,0.2,0,0.4,0,0.5c-0.2,0-0.4-0.1-0.7-0.1c0,0.3,0,0.6,0,0.9c0.5,0.1,0.9,0.1,1.3-0.3
			c0,0,0,0,0.1,0.1c-0.1,0.2-0.1,0.4-0.2,0.6c0,0-0.1,0.1-0.1,0.1C29.1,57.5,28.5,57.5,27.9,57.5z"/>
		<path class="st0" d="M53.7,42.5c-0.3,0.5-0.6,1-0.9,1.5c-0.2-0.1-0.3-0.2-0.5-0.3c0.2-0.3,0.4-0.5,0.6-0.7
			c-0.2-0.1-0.4-0.3-0.6-0.4c-0.1,0.2-0.3,0.4-0.4,0.6c-0.2-0.1-0.3-0.2-0.5-0.3c0.2-0.2,0.3-0.3,0.5-0.5c-0.3-0.2-0.5-0.3-0.7-0.5
			c-0.4,0.3-0.6,0.7-0.5,1.3c0,0-0.1,0-0.1,0c-0.1-0.2-0.3-0.3-0.4-0.5c0,0,0-0.1,0-0.2c0.3-0.5,0.6-1,1-1.6c0.2,0.6,0.7,0.7,1.1,1
			C52.7,42.1,53.1,42.5,53.7,42.5z"/>
		<path class="st0" d="M44.5,8c0.5-0.1,1.8-1.8,1.9-2.3c0.5,0.4,0.9,0.7,1.4,1.1c-0.1,0.2-0.3,0.3-0.4,0.4C47.2,7,47,6.8,46.8,6.5
			c-0.2,0.2-0.3,0.4-0.5,0.6c0.2,0.2,0.4,0.3,0.6,0.5c-0.1,0.1-0.2,0.3-0.3,0.4c-0.2-0.2-0.3-0.4-0.5-0.5c-0.2,0.2-0.4,0.5-0.6,0.7
			c0.3,0.4,0.6,0.7,1.2,0.7c-0.2,0.4-0.6,0.5-0.9,0.2C45.4,8.7,45,8.3,44.5,8z"/>
		<path class="st0" d="M18.1,55.2c0.3,0.1,0.5,0.2,0.7,0.3c0.2,0.1,0.5,0.1,0.7,0.1c-0.2,0.4-0.4,0.5-0.8,0.4
			c-0.5-0.2-1.1-0.4-1.7-0.6c0.2-0.2,0.4-0.3,0.6-0.4c0.4-0.3,0.9-0.6,1.3-0.9c0.1-0.1,0.3-0.3,0.2-0.4c0-0.1-0.3-0.3-0.4-0.3
			c-0.2-0.1-0.5,0-0.7,0c0.2-0.4,0.4-0.5,0.8-0.5c0.6,0.1,1,0.4,1,0.8c0,0.3-0.2,0.5-0.4,0.7C19,54.6,18.6,54.9,18.1,55.2z"/>
		<path class="st0" d="M53.5,35.6c0.1-0.4,0.2-0.7,0.3-1c0.5,0.4,1,0.6,1.6,0.4c0.5-0.2,1.1-0.2,1.6-0.6c-0.1,0.2-0.1,0.5-0.2,0.7
			c-0.1,0.1-0.2,0.2-0.3,0.2c-0.3,0.1-0.7,0.2-1,0.3c0.2,0.2,0.4,0.5,0.6,0.7c0.1,0.1,0.2,0,0.4,0.1c-0.1,0.3-0.1,0.5-0.2,0.9
			c-0.4-0.4-0.7-0.9-1.1-1.3C54.7,35.5,54,35.4,53.5,35.6z"/>
		<path class="st0" d="M26.5,57.5c-0.4,0-0.7-0.1-1-0.1c0.3-0.6,0.4-1.1,0-1.7c-0.2-0.4-0.5-0.8-0.7-1.2c0.4-0.1,0.7,0,0.9,0.4
			c0.1,0.3,0.3,0.6,0.5,0.9c0.2-0.3,0.4-0.5,0.6-0.7c0.1-0.1,0-0.2,0-0.4c0.3,0,0.6,0,0.9,0.1c-0.2,0.3-0.4,0.5-0.6,0.7
			c-0.1,0.2-0.2,0.4-0.4,0.5c-0.4,0.3-0.3,0.8-0.3,1.2C26.3,57.1,26.4,57.3,26.5,57.5z"/>
		<path class="st0" d="M51.6,40.1c0.2-0.3,0.3-0.6,0.4-0.8c0.3,0.2,0.5,0.4,0.8,0.5c0.5,0.2,0.9,0.5,1.4,0.7
			c0.1-0.3,0.2-0.6,0.3-0.9c0.1,0.1,0.3,0.3,0.4,0.4c-0.3,0.7-0.7,1.3-1,2c-0.2-0.1-0.3-0.3-0.4-0.4c0.2-0.2,0.3-0.4,0.5-0.6
			c-0.7-0.3-1.3-0.7-1.9-0.9C52,40.1,51.8,40.1,51.6,40.1z"/>
		<path class="st0" d="M53.4,14.5C53.4,14.5,53.4,14.5,53.4,14.5c0.6-0.1,0.6-0.1,0.8,0.4c0.3,0.5,0.5,1,0.8,1.5
			c-0.2,0-0.4,0.1-0.6,0.1c-0.1-0.3-0.1-0.5-0.2-0.8c-0.7,0.3-1.2,0.6-1.8,0.9c-0.1,0.1-0.2,0.2-0.3,0.4c-0.1-0.3-0.3-0.6-0.4-0.8
			c0.3-0.1,0.6-0.2,0.8-0.3c0.5-0.2,0.9-0.5,1.5-0.8C53.8,15,53.6,14.8,53.4,14.5z"/>
		<path class="st0" d="M37.5,2.4c-0.1,0.2-0.1,0.4-0.1,0.5c-0.2-0.1-0.4-0.2-0.7-0.3c-0.1,0.5-0.4,0.9-0.2,1.4
			c-0.3-0.1-0.6-0.2-1-0.3c0.4-0.4,1-2.4,0.8-2.8c0.6,0.2,1.2,0.3,1.7,0.5C38,1.6,38,1.8,37.9,1.9c-0.3-0.1-0.6-0.3-0.9-0.4
			C37,1.8,36.9,2,36.8,2.2C37.1,2.3,37.3,2.4,37.5,2.4z"/>
		<path class="st0" d="M8.6,13.2c-0.2,0.3-0.4,0.5-0.6,0.7c-0.2-0.2-0.3-0.4-0.5-0.5c-0.4-0.3-0.8-0.6-1.2-0.9
			c-0.2-0.1-0.4-0.2-0.6-0.3c0.3-0.4,0.7-0.9,1-1.3C6.9,10.9,7,11,7.2,11.1c-0.2,0.2-0.5,0.4-0.7,0.7C6.7,12,6.8,12.1,7,12.2
			c0.1-0.2,0.3-0.4,0.4-0.6c0.1,0.1,0.3,0.2,0.4,0.3c-0.2,0.2-0.3,0.3-0.5,0.5C7.8,12.7,8,13.2,8.6,13.2z"/>
		<path class="st0" d="M23.4,1.1c-0.3,0.1-0.6,0.2-0.9,0.4c0-0.2,0-0.4,0.1-0.6c0.7-0.2,1.5-0.3,2.2-0.4c0,0.2,0,0.4,0,0.6
			c-0.3,0-0.5,0-0.8,0c0.2,0.7,0.3,1.4,0.4,2.1c0,0.1,0.2,0.2,0.3,0.3c-0.4,0.1-0.7,0.1-0.9,0.2c0-0.3,0-0.6-0.1-0.9
			C23.7,2.2,23.6,1.7,23.4,1.1z"/>
		<path class="st0" d="M0,29.2c0.2,0,0.4,0.1,0.5,0.1c0,0.3-0.1,0.5-0.1,0.8c0.9-0.2,1.7,0.1,2.5-0.3c0,0.3,0,0.6,0,0.9
			c-0.3,0-0.6-0.1-0.8-0.1c-0.6,0-1.1,0-1.7,0.1c0.1,0.3,0.1,0.6,0.2,0.9c-0.2,0-0.4-0.1-0.6-0.2C0,30.7,0,30,0,29.2z"/>
		<path class="st0" d="M5.1,44.7c0.6-0.4,1.2-0.8,1.7-1.2c0.1-0.1,0.2-0.3,0.3-0.4c0.2,0.3,0.4,0.5,0.5,0.8
			c-0.3,0.1-0.5,0.2-0.7,0.3c-0.5,0.3-0.9,0.6-1.5,1c0.2,0.2,0.4,0.4,0.7,0.7C5.9,45.9,5.7,46,5.5,46c-0.4-0.6-0.8-1.2-1.3-1.9
			C4.4,44.1,4.6,44,4.8,44C4.9,44.2,5,44.4,5.1,44.7z"/>
		<path class="st0" d="M47.4,9.8c0.3,0.4,0.6,0.8,1.1,0.8c-0.4,0.4-0.7,0.4-1,0.1c-0.3-0.3-0.7-0.7-1-1c0.2-0.2,0.5-0.3,0.6-0.5
			c0.4-0.3,0.7-0.7,1.1-1.1c0.1-0.2,0.2-0.4,0.4-0.5C48.8,7.8,49,8,49.2,8.3c-0.5,0.1-0.8,0.7-1.2,1C47.8,9.4,47.6,9.6,47.4,9.8z"/>
		<path class="st0" d="M5.9,17.4c-0.2-0.2-0.3-0.3-0.5-0.4c-0.4-0.2-0.8-0.5-1.2-0.7c-0.3-0.1-0.5-0.2-0.8-0.3
			c0.1-0.2,0.3-0.5,0.4-0.7c0.2,0.2,0.4,0.4,0.6,0.5c0.5,0.3,1,0.5,1.5,0.8c0.3-0.4,0.6-0.8,0.4-1.3c0,0,0.1,0,0.1,0
			c0.1,0.2,0.3,0.3,0.4,0.5c0,0,0,0.1,0,0.1C6.4,16.4,6.2,16.9,5.9,17.4z"/>
		<path class="st0" d="M55.2,29.6c-0.2-0.1-0.4-0.1-0.5-0.2c0,0-0.1-0.1-0.1-0.2c0-0.6,0-1.2,0-1.7c1,0.2,2,0.2,2.9,0.1
			c0,0.2,0,0.6,0,0.8c-0.3,0-0.6-0.1-0.9-0.1c-0.5,0-1,0-1.5,0C55,28.6,55,29.1,55.2,29.6C55.3,29.5,55.2,29.5,55.2,29.6z"/>
		<path class="st0" d="M0,28.8c0-0.3,0-0.6,0-1c0.6,0.3,2.5,0.3,2.9,0.1c0,0.3,0,0.6,0,1C2.5,28.6,0.4,28.5,0,28.8z"/>
		<path class="st0" d="M10.5,47.2c0.2,0.2,0.4,0.4,0.6,0.6c-0.2,0.2-0.5,0.3-0.6,0.5c-0.3,0.3-0.7,0.7-1,1.1
			c-0.1,0.2-0.2,0.4-0.4,0.6c-0.2-0.2-0.4-0.4-0.7-0.6c0.5,0,0.7-0.4,1-0.7c0.2-0.2,0.5-0.5,0.7-0.7C10.1,47.7,10.3,47.4,10.5,47.2z
			"/>
		<path class="st0" d="M26.6,3.2c-0.4,0-0.7,0.1-1,0.1c0.2-0.5-0.1-2.5-0.4-2.9c0.3,0,0.6-0.1,1-0.1c-0.3,0.5-0.1,1,0,1.5
			C26.3,2.2,26.2,2.7,26.6,3.2z"/>
		<path class="st0" d="M42.7,51.6c0-0.2,0.1-0.4,0.3-0.4c0.2,0,0.3,0.1,0.3,0.4c0,0.2-0.1,0.3-0.3,0.3C42.9,52,42.8,51.9,42.7,51.6z
			"/>
		<path class="st0" d="M13.2,51.7c0-0.3,0.1-0.5,0.4-0.4c0.1,0,0.3,0.2,0.3,0.3c0,0.2-0.1,0.4-0.3,0.3
			C13.5,51.9,13.3,51.8,13.2,51.7z"/>
	</g>
</g>
</svg>
