<svg xmlns="http://www.w3.org/2000/svg" width="99" height="24.295" viewBox="0 0 99 24.295">
  <g id="Group_1" data-name="Group 1" transform="translate(-0.5 -3.519)">
    <path id="Path_1" data-name="Path 1" d="M.5,14.006H3.8c1.934,0,3.46-.932,3.46-3.032A2.216,2.216,0,0,0,5.323,8.557V8.494a2.235,2.235,0,0,0,1.5-2.227c0-1.974-1.43-2.558-3.283-2.558H.5ZM2.516,7.862V5.509H3.47c.926,0,1.39.316,1.39,1.09S4.424,7.862,3.443,7.862Zm0,4.344v-2.7H3.633c1.1,0,1.663.395,1.663,1.3,0,.932-.573,1.406-1.663,1.406Z"/>
    <path id="Path_2" data-name="Path 2" d="M10.745,5.556h1.021c1.049,0,1.622.348,1.622,1.359a1.413,1.413,0,0,1-1.622,1.532H10.745Zm5.04,8.45-2-4.122a3.094,3.094,0,0,0,1.58-2.969c0-2.448-1.553-3.206-3.433-3.206h-3.2v10.3h2.017V10.3h1.089l1.7,3.711Z"/>
    <path id="Path_3" data-name="Path 3" d="M17.107,14.006h5.708V12.048H19.123V9.679h3.024V7.736H19.123V5.667h3.556V3.709H17.107Z"/>
    <path id="Path_4" data-name="Path 4" d="M26.411,9.742l.218-.948c.245-1.027.491-2.227.695-3.316h.054c.246,1.073.477,2.289.723,3.316l.218.948Zm2.861,4.264H31.4L28.6,3.709h-2.4l-2.793,10.3h2.044L26,11.558h2.724Z"/>
    <path id="Path_5" data-name="Path 5" d="M32.324,14.006H34.34V11.242l1.035-1.579,2.153,4.343h2.207L36.547,7.815l2.684-4.106H37.037L34.381,7.925H34.34V3.709H32.324Z"/>
    <path id="Path_6" data-name="Path 6" d="M42.064,14.006h2V5.667h2.439V3.709H39.612V5.667h2.452Z"/>
    <path id="Path_7" data-name="Path 7" d="M47.881,14.006H49.9V9.71h3.065v4.3h2V3.709h-2V7.673H49.9V3.709H47.881Z"/>
    <path id="Path_8" data-name="Path 8" d="M59.053,5.556h1.021c1.049,0,1.622.348,1.622,1.359a1.413,1.413,0,0,1-1.622,1.532H59.053Zm5.04,8.45-2-4.122a3.094,3.094,0,0,0,1.58-2.969c0-2.448-1.553-3.206-3.433-3.206h-3.2v10.3h2.017V10.3h1.09l1.7,3.711Z"/>
    <path id="Path_9" data-name="Path 9" d="M69.025,14.2c2.4,0,4.032-2.022,4.032-5.386,0-3.348-1.634-5.291-4.032-5.291S64.992,5.446,64.992,8.81,66.641,14.2,69.025,14.2Zm0-2.006c-1.2,0-1.976-1.311-1.976-3.38,0-2.053.777-3.285,1.976-3.285S71,6.757,71,8.81C71,10.879,70.237,12.19,69.025,12.19Z"/>
    <path id="Path_10" data-name="Path 10" d="M74.678,9.236c0,3.459,1.24,4.96,3.542,4.96s3.515-1.5,3.515-4.96V3.709H79.8V9.473c0,2.022-.586,2.717-1.581,2.717s-1.539-.695-1.539-2.717V3.709h-2Z"/>
    <path id="Path_11" data-name="Path 11" d="M83.329,8.921c0,3.458,1.907,5.275,4.305,5.275a4.347,4.347,0,0,0,2.984-1.248V8.21H87.362V10.1h1.471v1.769a1.421,1.421,0,0,1-.94.316c-1.676,0-2.507-1.232-2.507-3.348,0-2.069.981-3.317,2.344-3.317a2.041,2.041,0,0,1,1.634.774l1.1-1.438A3.615,3.615,0,0,0,87.7,3.519C85.291,3.519,83.329,5.509,83.329,8.921Z"/>
    <path id="Path_12" data-name="Path 12" d="M92.416,14.006h2.016V9.71H97.5v4.3h2V3.709h-2V7.673H94.432V3.709H92.416Z"/>
    <path id="Path_13" data-name="Path 13" d="M.5,27.814H2.516v-3.49H3.742a3.225,3.225,0,0,0,3.474-3.491c0-2.5-1.539-3.316-3.474-3.316H.5Zm2.016-5.338V19.365h1.1c1.062,0,1.635.394,1.635,1.468A1.452,1.452,0,0,1,3.62,22.476Z" fill="#a7a9ad"/>
    <path id="Path_14" data-name="Path 14" d="M10.758,19.365H11.78c1.049,0,1.621.347,1.621,1.358a1.412,1.412,0,0,1-1.621,1.532H10.758ZM15.8,27.814l-2-4.122a3.1,3.1,0,0,0,1.581-2.969c0-2.448-1.553-3.206-3.433-3.206h-3.2v10.3h2.016V24.1h1.09l1.7,3.711Z" fill="#a7a9ad"/>
    <path id="Path_15" data-name="Path 15" d="M17.12,27.814h2.017v-10.3H17.12Z" fill="#a7a9ad"/>
    <path id="Path_16" data-name="Path 16" d="M20.649,27.814h6.43V25.856H23.128l3.924-6.934V17.517H21.016v1.958h3.556l-3.923,6.934Z" fill="#a7a9ad"/>
    <path id="Path_17" data-name="Path 17" d="M28.564,27.814h5.708V25.856H30.58V23.487H33.6V21.544H30.58V19.475h3.556V17.517H28.564Z" fill="#a7a9ad"/>
  </g>
</svg>
