<?xml version="1.0" encoding="utf-8"?>
<!-- Generator: Adobe Illustrator 25.3.1, SVG Export Plug-In . SVG Version: 6.00 Build 0)  -->
<svg version="1.1" id="Layer_1" xmlns="http://www.w3.org/2000/svg" xmlns:xlink="http://www.w3.org/1999/xlink" x="0px" y="0px"
	 viewBox="0 0 196 38" style="enable-background:new 0 0 196 38;" xml:space="preserve">
<style type="text/css">
	.st0{fill:#FFFFFF;}
</style>
<g>
	<path class="st0" d="M19.5,0C8,0,0,7.7,0,18v20.2h6.6c0,0,0-11.1,0-20.3c0-9.5,7.2-16.3,14.5-17.8c0.3,0,0.6-0.1,0.3-0.1H19.5z
		 M20.7,0.9c-0.9,0.3-1.7,0.6-2.9,1.4c-5.1,3.2-7.4,9-7.6,14.6c0,0.3,0,0.6,0,1l0,0c0,0,0,0.2,0,0.3v20h6.6v-20
		c0-1.3,0.6-2.4,1.5-3.1l2.6,3.1l2.6-3.1c0.9,0.7,1.5,1.9,1.5,3.1v20h6.6v-20c0-5.9-4.8-10.7-10.7-10.7c-1.4,0-2.7,0.3-4,0.8l0,0
		c1.4-1.6,3.4-2.4,5.7-2.4l0,0c0.7,0,1.4,0,2.1,0.2c5.9,1,10.4,5.9,10.4,11.8c0,0.2,0,0.5,0,0.7v19.8h6.6c0,0,0-19.8,0-19.9
		c0-8.6-5.2-15.6-14-17.6c-0.3-0.1-0.8-0.2-1.3-0.2c-0.7-0.1-1.3-0.2-2-0.2C23,0.2,21.9,0.5,20.7,0.9"/>
	<polygon class="st0" points="57.7,35.6 54.4,28.2 52.5,28.2 52.5,38.1 54.1,38.1 54.1,31.5 57,38.1 58.3,38.1 61.2,31.5 61.2,38.1 
		62.8,38.1 62.8,28.2 60.9,28.2 	"/>
	<polygon class="st0" points="69.2,28.2 65,38.1 66.9,38.1 70,30.4 71.4,33.7 69.7,33.7 69.2,35.2 72,35.2 73.2,38.1 75.1,38.1 
		70.9,28.2 	"/>
	<path class="st0" d="M78.4,35.2c0,1-0.5,1.4-1.7,1.4h-0.3v1.5h0.3c2.8,0,3.4-1.6,3.4-3v-6.9h-1.7C78.4,28.2,78.4,35.2,78.4,35.2z"
		/>
	<rect x="83.6" y="28.2" class="st0" width="1.7" height="9.9"/>
	<path class="st0" d="M92.6,36.6h-1.9v-6.9h1.9c2.1,0,3.2,1,3.2,3.2C95.7,35.4,94.7,36.6,92.6,36.6 M92.6,28.2h-3.7v9.9h3.7
		c3.3,0,4.9-1.8,4.9-5.2C97.5,29.8,95.8,28.2,92.6,28.2"/>
	<polygon class="st0" points="108.3,28.2 104.1,38.1 105.9,38.1 109.1,30.4 110.4,33.7 108.8,33.7 108.2,35.2 111.1,35.2 
		112.3,38.1 114.2,38.1 110,28.2 	"/>
	<polygon class="st0" points="118.1,28.2 116.4,28.2 116.4,38.1 123,38.1 123,36.6 118.1,36.6 	"/>
	<polygon class="st0" points="130.4,38.1 132.2,38.1 132.2,33.9 136.9,33.9 136.9,32.4 132.2,32.4 132.2,29.8 137.1,29.8 
		137.1,28.2 130.4,28.2 	"/>
	<path class="st0" d="M146.1,34.3c0,1.7-0.8,2.4-2.4,2.4c-1.6,0-2.4-0.8-2.4-2.4v-6h-1.7v6c0,2.6,1.4,3.9,4.2,3.9s4.2-1.3,4.2-3.9
		v-6h-1.7v6H146.1z"/>
	<polygon class="st0" points="150.3,29.8 153.2,29.8 153.2,38.1 155,38.1 155,29.8 157.9,29.8 157.9,28.2 150.3,28.2 	"/>
	<polygon class="st0" points="159.7,29.8 162.6,29.8 162.6,38.1 164.3,38.1 164.3,29.8 167.3,29.8 167.3,28.2 159.7,28.2 	"/>
	<polygon class="st0" points="172.1,28.2 167.9,38.1 169.7,38.1 172.9,30.4 174.3,33.7 172.6,33.7 172.1,35.2 174.9,35.2 
		176.1,38.1 178,38.1 173.8,28.2 	"/>
	<rect x="180.4" y="28.2" class="st0" width="1.7" height="9.9"/>
	<polygon class="st0" points="190.9,35.6 187.6,28.2 185.7,28.2 185.7,38.1 187.3,38.1 187.3,31.5 190.2,38.1 191.5,38.1 
		194.4,31.5 194.4,38.1 196,38.1 196,28.2 194.1,28.2 	"/>
	<rect x="71.6" y="22.9" class="st0" width="1.7" height="2"/>
	<rect x="74.7" y="22.9" class="st0" width="1.7" height="2"/>
	<rect x="112.1" y="8.3" class="st0" width="1.7" height="2"/>
	<path class="st0" d="M61.3,19.6c-1.2,0-1.9-0.9-1.9-2.4c0-1.6,0.7-2.6,1.9-2.6c1.1,0,1.8,0.9,1.8,2.4
		C63.1,19.3,62.1,19.6,61.3,19.6 M97.2,18.8c0,0.3,0,0.5,0,0.8h-7.8c0.9-2.7,3.2-5,5.2-5C96.1,14.6,97.2,16.2,97.2,18.8 M112.9,13.4
		c0.7,0,1.2,0.2,1.6,0.6c0.4,0.4,0.5,0.9,0.5,1.5s-0.2,1.1-0.6,1.6c-0.4,0.6-0.9,1-1.5,1.3c-0.7-0.3-1.2-0.7-1.6-1.3
		c-0.4-0.5-0.5-1-0.5-1.6C110.8,14.3,111.6,13.4,112.9,13.4 M132.6,18V9.7h-1.7v7.8c0,0.7-0.1,1.3-0.2,1.5c-0.2,0.4-0.6,0.6-1.2,0.6
		H116c-0.4,0-0.8-0.1-1.1-0.2c0.6-0.4,1.1-0.8,1.4-1.4c0.4-0.7,0.7-1.5,0.7-2.3c0-1-0.3-1.9-1-2.6c-0.7-0.8-1.7-1.2-3-1.2
		c-1.2,0-2.2,0.4-2.9,1.2c-0.7,0.7-1,1.6-1,2.6c0,0.8,0.2,1.6,0.7,2.3c0.4,0.6,0.8,1.1,1.4,1.4c-0.4,0.1-0.7,0.2-1.1,0.2h-11
		c0-0.2,0-0.4,0-0.5c0-4-1.5-6.1-4.4-6.1c-2,0-4,1.4-5.3,3.7l0.2-7h-1.8v9.9H76.3c0.1-0.4,0.2-0.9,0.2-1.5v-5h-1.7v4.5
		c0,0.7-0.1,1.3-0.2,1.5c-0.2,0.4-0.6,0.6-1.2,0.6h-5.3c-1.6,0-2.7-1-2.8-2.5c-0.3-2.6-1.6-4-3.8-4h-5c-2.6,0-3.9,1.7-3.9,5v6.1h1.7
		v-6c0-2.2,0.8-3.5,2.2-3.5h1.8c-0.5,0.7-0.7,1.6-0.7,2.5c0,2.5,1.5,4.1,3.8,4.1c1.4,0,2.5-0.6,3.1-1.6c0.7,1.1,1.9,1.7,3.7,1.7H109
		c1,0,1.7,0,2-0.1c0.6-0.1,1.3-0.4,2-0.8c0.7,0.4,1.4,0.7,2,0.8c0.4,0.1,1,0.1,2,0.1h12.9C131.1,21.3,132.6,20.7,132.6,18"/>
	<rect x="135.5" y="9.7" class="st0" width="1.7" height="11.6"/>
	<path class="st0" d="M167.7,19.3c0-3.7-2.3-6.1-5.9-6.1c-1.9,0-3.4,0.6-4.4,1.9l-0.1,0.2l0.2,0.2c0.6,0.5,0.9,0.9,1,1l0.2,0.3
		l0.2-0.3c0.6-1.1,1.6-1.6,3-1.6c2.5,0,3.9,1.5,3.9,4.3c0,0.1,0,0.2,0,0.4h-15.9c-0.3-4.4-2.2-6.6-5.9-6.6h-0.3v1.7h0.7
		c1.3,0.1,2.3,0.6,2.9,1.7c0.5,0.8,0.8,1.9,0.8,3.3h-6.7v1.7h26.3V19.3z"/>
	<rect x="161.3" y="22.9" class="st0" width="1.8" height="2"/>
	<path class="st0" d="M192.2,21.2c-0.6,0-1.1-0.2-1.5-0.7c-0.3-0.4-0.4-1-0.4-1.7c0-0.8,0.1-1.4,0.5-1.8c0.3-0.5,0.8-0.8,1.5-0.8
		c0.6,0,1.1,0.2,1.4,0.7c0.3,0.4,0.4,1,0.4,1.7C194.1,20.3,193.5,21.2,192.2,21.2 M172.2,21.3h16.9c0.7,1,1.7,1.5,3.1,1.5
		c1.2,0,2.1-0.4,2.8-1.2c0.7-0.8,1-1.7,1-2.9c0-1.2-0.3-2.2-1-2.9c-0.7-0.8-1.6-1.2-2.8-1.2s-2.1,0.4-2.8,1.2c-0.7,0.8-1,1.8-1,3
		c0,0.3,0,0.6,0.1,0.9c-5.9,0-15.7,0-16,0c-0.4-0.1-0.7-0.2-0.8-0.4c-0.2-0.3-0.3-0.8-0.3-1.5V9.7h-1.8v8.6c0,1,0.3,1.7,0.8,2.3
		C170.9,21,171.5,21.3,172.2,21.3"/>
</g>
</svg>
