<?xml version="1.0" encoding="utf-8"?>
<!-- Generator: Adobe Illustrator 25.2.3, SVG Export Plug-In . SVG Version: 6.00 Build 0)  -->
<svg version="1.1" id="Layer_1" xmlns="http://www.w3.org/2000/svg" xmlns:xlink="http://www.w3.org/1999/xlink" x="0px" y="0px"
	 viewBox="0 0 72 114" style="enable-background:new 0 0 72 114;" xml:space="preserve">
<style type="text/css">
	.st0{fill:url(#SVGID_1_);}
	.st1{fill:url(#SVGID_2_);}
	.st2{fill:url(#SVGID_3_);}
	.st3{fill:url(#SVGID_4_);}
	.st4{fill:url(#SVGID_7_);}
	.st5{fill:url(#SVGID_8_);}
	.st6{fill:url(#SVGID_9_);}
	.st7{fill:#FFFFFF;}
</style>
<g>
	<linearGradient id="SVGID_1_" gradientUnits="userSpaceOnUse" x1="52.6144" y1="96.5594" x2="11.4234" y2="96.5594">
		<stop  offset="0" style="stop-color:#74BF44"/>
		<stop  offset="1" style="stop-color:#265C2E"/>
	</linearGradient>
	<polygon class="st0" points="44.9,98.8 52.6,93.8 11.4,85.6 11.4,99.7 50.6,107.5 	"/>
	<linearGradient id="SVGID_2_" gradientUnits="userSpaceOnUse" x1="19.0851" y1="26.1226" x2="60.2755" y2="26.1226">
		<stop  offset="0" style="stop-color:#74BF44"/>
		<stop  offset="1" style="stop-color:#265C2E"/>
	</linearGradient>
	<polygon class="st1" points="26.8,23.9 19.1,28.9 60.3,37.1 60.3,23 21.1,15.2 	"/>
	<linearGradient id="SVGID_3_" gradientUnits="userSpaceOnUse" x1="1.7698" y1="75.2631" x2="60.2532" y2="75.2631">
		<stop  offset="0" style="stop-color:#245D2F"/>
		<stop  offset="0.5031" style="stop-color:#74BF44"/>
		<stop  offset="1" style="stop-color:#275D2E"/>
	</linearGradient>
	<polygon class="st2" points="1.8,62.4 60.3,74 60.3,88.1 1.8,76.5 	"/>
	<linearGradient id="SVGID_4_" gradientUnits="userSpaceOnUse" x1="11.468" y1="47.3776" x2="69.9513" y2="47.3776">
		<stop  offset="0" style="stop-color:#245D2F"/>
		<stop  offset="0.5031" style="stop-color:#74BF44"/>
		<stop  offset="1" style="stop-color:#275D2E"/>
	</linearGradient>
	<polygon class="st3" points="11.5,34.5 70,46.1 70,60.2 11.5,48.6 	"/>
	<g>
		<g>
			<defs>
				<polyline id="SVGID_5_" points="61.2,1.4 9.1,1.4 9.1,108.6 61.2,108.6 61.2,1.4 				"/>
			</defs>
			<clipPath id="SVGID_6_">
				<use xlink:href="#SVGID_5_"  style="overflow:visible;"/>
			</clipPath>
			<g transform="matrix(1 0 0 1 0 0)" style="clip-path:url(#SVGID_6_);">
				
					<image style="overflow:visible;" width="500" height="1026" xlink:href="50A4E03F3EAE34.png"  transform="matrix(0.1047 0 0 0.1047 8.9491 1.2672)">
				</image>
			</g>
		</g>
	</g>
	<linearGradient id="SVGID_7_" gradientUnits="userSpaceOnUse" x1="11.4234" y1="86.8643" x2="60.253" y2="86.8643">
		<stop  offset="0" style="stop-color:#86C440"/>
		<stop  offset="0.5031" style="stop-color:#B2D235"/>
		<stop  offset="1" style="stop-color:#86C440"/>
	</linearGradient>
	<path class="st4" d="M60.3,88.1L11.4,99.7V85.6L60.3,74V88.1z"/>
	<linearGradient id="SVGID_8_" gradientUnits="userSpaceOnUse" x1="1.7698" y1="61.357" x2="69.9513" y2="61.357">
		<stop  offset="0" style="stop-color:#86C440"/>
		<stop  offset="0.5031" style="stop-color:#B2D235"/>
		<stop  offset="1" style="stop-color:#86C440"/>
	</linearGradient>
	<path class="st5" d="M70,60.3L1.8,76.5V62.4L70,46.2V60.3z"/>
	<linearGradient id="SVGID_9_" gradientUnits="userSpaceOnUse" x1="11.4458" y1="35.8032" x2="60.2755" y2="35.8032">
		<stop  offset="0" style="stop-color:#86C440"/>
		<stop  offset="0.5031" style="stop-color:#B2D235"/>
		<stop  offset="1" style="stop-color:#86C440"/>
	</linearGradient>
	<path class="st6" d="M60.3,37.1L11.4,48.7V34.5L60.3,23V37.1z"/>
	<g>
		<path class="st7" d="M13.2,62.7l2.9-0.7c1.7-0.4,2.2,0.6,2.2,1.8c0,1.6-1,2.6-2.6,2.9L14.8,67V70l-1.6,0.4L13.2,62.7z M14.8,65.8
			l0.7-0.2c0.6-0.2,1.1-0.6,1.1-1.4c0-0.8-0.3-1.1-1.1-0.9l-0.7,0.2V65.8z"/>
		<path class="st7" d="M19.1,69v-7.7l1.6-0.4v6.4l2.9-0.7V68L19.1,69z"/>
		<path class="st7" d="M25.9,59.7l2-0.5l2.1,7.2l-1.7,0.4L28,65.3l-2.2,0.5l-0.4,1.7l-1.7,0.4L25.9,59.7z M26.1,64.5l1.6-0.4
			l-0.8-3.3l0,0L26.1,64.5z"/>
		<path class="st7" d="M34.8,57.6l0,1.3L33,59.3l0,6.4l-1.6,0.4l0-6.4l-1.8,0.4v-1.3L34.8,57.6z"/>
		<path class="st7" d="M35.6,65.1v-7.7l1.6-0.4v7.7L35.6,65.1z"/>
		<path class="st7" d="M40.3,56.3l2,4.8l0,0l0-5.3l1.5-0.4l0,7.7l-1.9,0.4l-2-4.9l0,0v5.4l-1.5,0.4v-7.7L40.3,56.3z"/>
		<path class="st7" d="M46.5,54.9l0,5.4c0,0.8,0.2,1.3,1,1.1c0.8-0.2,1-0.8,1-1.6l0-5.4L50,54l0,5.4c0,2-1.3,2.8-2.6,3.1
			c-1.3,0.3-2.6,0.2-2.6-1.9l0-5.4L46.5,54.9z"/>
		<path class="st7" d="M51.1,53.8l2.4-0.6l1.2,5.2l0,0l1.2-5.7l2.4-0.6v7.7l-1.5,0.4l0-6.1l0,0l-1.4,6.5L54,60.8L52.6,55l0,0l0,6.1
			l-1.5,0.4L51.1,53.8z"/>
		<path class="st7" d="M19.9,87.3l1.4-0.3l0.8,4.8l0,0l0.8-5.2l1.4-0.3l0.8,4.8l0,0l0.8-5.2l1.4-0.3l-1.3,7l-1.6,0.4l-0.8-4.7l0,0
			l-0.8,5.1l-1.6,0.4L19.9,87.3z"/>
		<path class="st7" d="M28,92.1v-6.7l1.4-0.3l0,6.7L28,92.1z"/>
		<path class="st7" d="M32.1,84.4l1.7,4.2l0,0l0-4.6l1.3-0.3l0,6.7l-1.6,0.4l-1.7-4.3l0,0l0,4.7l-1.3,0.3l0-6.7L32.1,84.4z"/>
		<path class="st7" d="M37.8,83l1.7,4.2l0,0v-4.6l1.3-0.3l0,6.7l-1.6,0.4l-1.7-4.3l0,0v4.7l-1.3,0.3l0-6.7L37.8,83z"/>
		<path class="st7" d="M45.8,81.1v1.1l-2.5,0.6v1.6l2.4-0.6l0,1.1l-2.4,0.6l0,1.8l2.6-0.6l0,1.1l-4.1,1l0-6.7L45.8,81.1z"/>
		<path class="st7" d="M46.6,80.9l2.6-0.6c1.2-0.3,1.9,0.1,1.9,1.3c0,0.9-0.4,1.6-1.2,1.9l0,0c1-0.1,1.1,0.4,1.1,1.8
			c0,0.7,0,1.1,0.3,1.1v0.1l-1.6,0.4c-0.1-0.2-0.2-0.4-0.2-0.7l0-1.3c0-0.5-0.3-0.8-0.8-0.6l-0.8,0.2l0,2.8l-1.4,0.3L46.6,80.9z
			 M48.1,83.5l0.6-0.1c0.7-0.2,1.1-0.5,1.1-1.3c0-0.6-0.3-0.9-1-0.7l-0.7,0.2L48.1,83.5z"/>
		<g>
			<path class="st7" d="M15.4,43.7c0-0.7,0.3-1.3,0.9-1.9L17,41c0.5-0.5,0.8-0.9,0.8-1.5c0-0.6-0.4-1-1-0.8
				c-0.8,0.2-1.1,0.9-1.1,1.5l-0.3,0.1c0-0.8,0.5-1.6,1.4-1.8c0.5-0.1,1.3,0,1.3,1c0,0.7-0.4,1.2-0.9,1.7l-0.7,0.7
				c-0.5,0.5-0.8,1.1-0.8,1.5l2.5-0.6V43L15.4,43.7z"/>
			<path class="st7" d="M20.3,37.6c1.1-0.3,1.4,0.4,1.4,2.1c0,1.8-0.5,2.6-1.4,2.8c-1,0.2-1.4-0.4-1.4-2.1
				C18.8,38.7,19.3,37.8,20.3,37.6z M20.3,42.3c0.7-0.2,1.1-0.7,1.1-2.5c0-0.9,0-2.2-1.1-2c-1.1,0.3-1.1,1.8-1.1,2.5
				C19.1,42.2,19.6,42.5,20.3,42.3z"/>
			<path class="st7" d="M22.3,42c0-0.7,0.3-1.3,0.9-1.9l0.7-0.7c0.5-0.5,0.8-0.9,0.8-1.5c0-0.6-0.4-1-1-0.8
				c-0.8,0.2-1.1,0.9-1.1,1.5l-0.3,0.1c0-0.8,0.5-1.6,1.4-1.8c0.5-0.1,1.3,0,1.3,1c0,0.7-0.4,1.2-0.9,1.7l-0.7,0.7
				c-0.5,0.5-0.8,1.1-0.8,1.5l2.5-0.6v0.3L22.3,42z"/>
			<path class="st7" d="M27.2,36c1.1-0.3,1.4,0.4,1.4,2.1c0,1.8-0.5,2.6-1.4,2.8c-1,0.2-1.4-0.4-1.4-2.1
				C25.8,37.1,26.3,36.2,27.2,36z M27.2,40.7c0.7-0.2,1.1-0.7,1.1-2.5c0-0.9,0-2.2-1.1-2c-1.1,0.3-1.1,1.8-1.1,2.5
				C26.1,40.6,26.5,40.9,27.2,40.7z"/>
			<path class="st7" d="M31.1,35l1.6-0.4l0.7,3.3l0,0l0.7-3.7l1.5-0.4l0,4.9l-1,0.2l0-3.9l0,0l-0.9,4.1L33,39.5l-0.9-3.7l0,0v3.9
				l-1,0.2L31.1,35z"/>
			<path class="st7" d="M37.5,33.5l1.3-0.3l1.4,4.6l-1.1,0.3l-0.2-1l-1.4,0.3l-0.2,1.1l-1.1,0.3L37.5,33.5z M37.6,36.5l1-0.2
				l-0.5-2.1l0,0L37.6,36.5z"/>
			<path class="st7" d="M40.5,32.8l1.9-0.5c0.9-0.2,1.4,0.1,1.4,0.9c0,0.7-0.3,1.2-0.9,1.4l0,0c0.7-0.1,0.8,0.3,0.8,1.3
				c0,0.5,0,0.8,0.2,0.8l0,0l-1.1,0.3c-0.1-0.1-0.1-0.3-0.1-0.5l0-0.9c0-0.4-0.2-0.6-0.6-0.5l-0.6,0.1l0,2.1l-1,0.2L40.5,32.8z
				 M41.6,34.7l0.4-0.1c0.5-0.1,0.8-0.4,0.8-0.9c0-0.5-0.3-0.6-0.7-0.5l-0.5,0.1V34.7z"/>
			<path class="st7" d="M47.3,32.6c0-0.7-0.4-1.2-1.1-1c-1,0.2-1.4,1.2-1.4,2.6c0,1.3,0.3,2.2,1.3,2c1-0.2,1.2-1.4,1.2-1.8l0.3-0.1
				c0,0.6-0.3,1.8-1.6,2.1c-1.1,0.3-1.6-0.6-1.6-2.2c0-1.5,0.5-2.7,1.7-2.9c1.2-0.3,1.5,0.7,1.5,1.2L47.3,32.6z"/>
			<path class="st7" d="M51.4,32.7c0,2.2-0.9,2.8-1.7,2.9c-1,0.2-1.7-0.2-1.7-2.1c0-1.9,0.7-2.7,1.7-2.9
				C50.8,30.3,51.4,30.8,51.4,32.7z M48.4,33.4c0,1.4,0.3,2.2,1.4,2c1-0.2,1.4-1.1,1.4-2.6c0-1.3-0.3-2.2-1.4-2
				C48.8,31,48.4,32,48.4,33.4z"/>
			<path class="st7" d="M55.7,29.6L55.7,29.6l-1.5,4.9l-0.3,0.1l-1.5-4.2l0,0l0,4.5L52.1,35l0-4.9l0.5-0.1l1.5,4.1l0,0l1.4-4.8
				l0.5-0.1V34l-0.3,0.1V29.6z"/>
		</g>
	</g>
</g>
</svg>
