<?xml version="1.0" encoding="utf-8"?>
<!-- Generator: Adobe Illustrator 25.2.3, SVG Export Plug-In . SVG Version: 6.00 Build 0)  -->
<svg version="1.1" id="Layer_1" xmlns="http://www.w3.org/2000/svg" xmlns:xlink="http://www.w3.org/1999/xlink" x="0px" y="0px"
	 viewBox="0 0 93.1 38" style="enable-background:new 0 0 93.1 38;" xml:space="preserve">
<style type="text/css">
	.st0{fill:#FFFFFF;}
</style>
<g id="layer1" transform="translate(-310.37551,-505.82825)">
	<path id="path2440" class="st0" d="M324.1,505.8c-1.3,0-2.7,0.1-4.1,0.5c-6.4,1.6-13.6,9.9-5.8,19.4l4.7,5.7l1.3,1.6
		c0.9,1.1,2.3,1,3.4,0.2c1.1-0.9,1.4-2.3,0.5-3.4c0,0-0.4-0.5-0.5-0.6h0c-0.3-0.4-0.4-0.5-0.8-0.9c-1.7-2-3.6-4.4-3.6-4.4
		c-3.4-4.1-1.9-9.2,2.7-12.1c4.1-2.6,11.5-1.6,14.1,2.6C334.5,509.4,329.8,505.9,324.1,505.8z M325,515.8c-0.6,0-1.2,0.2-1.8,0.6
		c-1.1,0.9-1.4,2.3-0.5,3.4c0,0,0.1,0.1,0.3,0.4c2,2.4,4.7,5.7,4.7,5.7c3.4,4.1,1.9,9.2-2.7,12.1c-4.1,2.6-11.5,1.6-14.1-2.6
		c2,5.9,8.7,9.7,16.1,7.9c6.4-1.6,13.6-9.8,5.8-19.4l-5.5-6.6l-0.6-0.8C326.2,516.1,325.6,515.8,325,515.8z"/>
	<path id="path2448" class="st0" d="M349.2,510.3c-4.1,0-8.7,2.1-8.7,7.1c0,4.8,3.8,6.2,7.6,7.1c3.8,0.9,7.6,1.5,7.6,4.7
		c0,3.2-3.3,3.7-5.6,3.7c-3.2,0-6.1-1.1-6.3-4.8H340c0.2,6.2,4.6,8.5,9.9,8.5c4.7,0,9.9-1.9,9.9-7.9c0-4.9-3.8-6.2-7.6-7.1
		c-3.6-0.9-7.6-1.4-7.6-4.4c0-2.5,2.7-3.2,5-3.2c2.5,0,5.1,1,5.4,4.2h3.8C358.5,512.1,354.4,510.3,349.2,510.3z M371.4,510.3
		c-5.2,0-9.7,2.2-9.9,8.4h3.8c0.2-3.7,2.6-4.7,5.8-4.7c2.4,0,5.2,0.6,5.2,4.2c0,3.1-3.6,2.8-7.8,3.7c-4,0.8-7.9,2-7.9,7.7
		c0,5,3.5,7,7.7,7c3.2,0,6.1-1.2,8.2-3.9c0,2.7,1.3,3.9,3.3,3.9c1.2,0,2.1-0.3,2.7-0.7v-3.2c-0.5,0.2-0.8,0.2-1.2,0.2
		c-1.2,0-1.2-0.9-1.2-2.8v-12.9C380.1,511.3,375.6,510.3,371.4,510.3z M391.4,510.3c-4.1,0-8.7,2.1-8.7,7.1c0,4.8,3.8,6.2,7.6,7.1
		c3.8,0.9,7.6,1.5,7.6,4.7c0,3.2-3.3,3.7-5.6,3.7c-3.2,0-6.1-1.1-6.3-4.8h-3.9c0.2,6.2,4.7,8.5,9.9,8.5c4.7,0,9.9-1.9,9.9-7.9
		c0-4.9-3.8-6.2-7.6-7.1c-3.6-0.9-7.6-1.4-7.6-4.4c0-2.5,2.6-3.2,5-3.2c2.5,0,5.1,1,5.4,4.2h3.9
		C400.7,512.1,396.6,510.3,391.4,510.3z M376.3,523v4.2c0,2.3-2.1,5.7-7.1,5.7c-2.3,0-4.5-1-4.5-3.7c0-3.1,2.2-4,4.7-4.5
		C371.9,524.3,374.8,524.2,376.3,523z M338.3,534c-0.8,0-1.5,0.6-1.5,1.5c0,0.9,0.7,1.5,1.5,1.5c0.8,0,1.5-0.6,1.5-1.5
		C339.7,534.7,339.1,534,338.3,534z M402,534c-0.8,0-1.5,0.6-1.5,1.5c0,0.9,0.7,1.5,1.5,1.5c0.8,0,1.5-0.6,1.5-1.5
		C403.5,534.7,402.8,534,402,534z M338.3,534.3c0.7,0,1.2,0.5,1.2,1.2c0,0.7-0.5,1.2-1.2,1.2c-0.7,0-1.2-0.5-1.2-1.2
		C337,534.8,337.6,534.3,338.3,534.3z M402,534.3c0.7,0,1.2,0.5,1.2,1.2c0,0.7-0.5,1.2-1.2,1.2c-0.7,0-1.2-0.5-1.2-1.2
		C400.8,534.8,401.3,534.3,402,534.3z M337.7,534.7v1.7h0.3v-0.7h0.3l0.4,0.7h0.3l-0.5-0.8c0.3,0,0.4-0.1,0.4-0.4
		c0-0.3-0.2-0.5-0.6-0.5H337.7z M401.4,534.7v1.7h0.2v-0.7h0.3l0.4,0.7h0.3l-0.5-0.8c0.2,0,0.4-0.1,0.4-0.4c0-0.3-0.2-0.5-0.6-0.5
		H401.4z M337.9,534.9h0.4c0.2,0,0.4,0,0.4,0.2c0,0.3-0.2,0.3-0.4,0.3h-0.3V534.9z M401.7,534.9h0.4c0.2,0,0.4,0,0.4,0.2
		c0,0.3-0.2,0.3-0.4,0.3h-0.3V534.9z"/>
</g>
</svg>
